{
.appVersion = "1352";
DisplayStrings = (
"/imacron.sc",
"/Lcaron/Lcaron/Lcaron/Lcaron/Lcaron/Lcaron/tcaron/tcaron/tcaron/tcaron/tcaron/tcaron/lcaron.sc/lcaron.sc/zero.tf/zero.tf/zero.tf/zero.tf/one.tf/one.tf/one.tf/one.tf/two.tf/two.tf/two.tf/two.tf/three.tf/three.tf/three.tf/three.tf/five.tf/five.tf/five.tf/five.tf/six.tf/six.tf/six.tf/six.tf/seven.tf/seven.tf/seven.tf/seven.tf/eight.tf/eight.tf/eight.tf/nine.tf/nine.tf/nine.tf/nine.tf/dieresisbelowcomb/dieresisbelowcomb/dieresisbelowcomb/dieresisbelowcomb/ringbelowcomb/ringbelowcomb/ringbelowcomb/ringbelowcomb/tildebelowcomb/tildebelowcomb/tildebelowcomb/tildebelowcomb/macronbelowcomb/macronbelowcomb/macronbelowcomb/macronbelowcomb"
);
classes = (
{
automatic = 1;

glyphs = (
{
glyphname = A;
lastChange = "2022-10-25 01:48:04 +0000";
layers = (
{
anchors = (
{
name = bottom;
position = "{211, 0}";
},
{
name = ogonek;
position = "{437, 10}";
},
{
name = top;
position = "{314, 655}";
},
{
name = topleft;
position = "{179, 655}";
}
);
layerId = "9DFF46AD-73DE-422E-A6A3-16745129C94E";
paths = (
{
closed = 1;
nodes = (
"138 0 LINE SMOOTH",
"146 0 OFFCURVE",
"151 7 OFFCURVE",
"153 15 CURVE SMOOTH",
"256 368 LINE SMOOTH",
"269 413 OFFCURVE",
"282 459 OFFCURVE",
"294 504 CURVE",
"296 504 LINE",
"293 459 OFFCURVE",
"291 413 OFFCURVE",
"289 368 CURVE SMOOTH",
"275 15 LINE SMOOTH",
"275 4 OFFCURVE",
"281 0 OFFCURVE",
"290 0 CURVE SMOOTH",
"434 0 LINE SMOOTH",
"443 0 OFFCURVE",
"450 5 OFFCURVE",
"449 15 CURVE SMOOTH",
"415 640 LINE SMOOTH",
"414 650 OFFCURVE",
"408 655 OFFCURVE",
"400 655 CURVE SMOOTH",
"226 655 LINE SMOOTH",
"218 655 OFFCURVE",
"212 649 OFFCURVE",
"209 640 CURVE SMOOTH",
"-24 15 LINE SMOOTH",
"-27 6 OFFCURVE",
"-22 0 OFFCURVE",
"-12 0 CURVE SMOOTH"
);
},
{
closed = 1;
nodes = (
"300 117 LINE",
"298 246 LINE",
"197 246 LINE",
"156 117 LINE"
);
}
);
width = 479;
},
{
anchors = (
{
name = bottom;
position = "{132, 0}";
},
{
name = ogonek;
position = "{287, 10}";
},
{
name = top;
position = "{232, 655}";
},
{
name = topleft;
position = "{169, 655}";
}
);
layerId = "7BE597F2-1213-4429-94A3-E96FC63EF83E";
paths = (
{
closed = 1;
nodes = (
"-12 0 LINE SMOOTH",
"-10 0 OFFCURVE",
"-9 0 OFFCURVE",
"-8 3 CURVE SMOOTH",
"179 498 LINE SMOOTH",
"196 544 OFFCURVE",
"213 591 OFFCURVE",
"229 637 CURVE",
"230 637 LINE",
"231 591 OFFCURVE",
"233 546 OFFCURVE",
"236 500 CURVE SMOOTH",
"266 3 LINE SMOOTH",
"266 0 OFFCURVE",
"267 0 OFFCURVE",
"269 0 CURVE SMOOTH",
"279 0 LINE SMOOTH",
"281 0 OFFCURVE",
"282 1 OFFCURVE",
"282 3 CURVE SMOOTH",
"242 652 LINE SMOOTH",
"242 654 OFFCURVE",
"241 655 OFFCURVE",
"239 655 CURVE SMOOTH",
"225 655 LINE SMOOTH",
"223 655 OFFCURVE",
"222 655 OFFCURVE",
"221 652 CURVE SMOOTH",
"-24 4 LINE SMOOTH",
"-25 1 OFFCURVE",
"-24 0 OFFCURVE",
"-22 0 CURVE SMOOTH"
);
},
{
closed = 1;
nodes = (
"259 191 LINE",
"256 207 LINE",
"65 207 LINE",
"58 191 LINE"
);
}
);
width = 316;
},
{
anchors = (
{
name = bottom;
position = "{140, 0}";
},
{
name = ogonek;
position = "{309, 10}";
},
{
name = top;
position = "{243, 655}";
},
{
name = topleft;
position = "{167, 655}";
}
);
layerId = "F3DD84D5-00FA-4BE1-BE55-069AF9C50450";
paths = (
{
closed = 1;
nodes = (
"26 0 LINE SMOOTH",
"30 0 OFFCURVE",
"34 3 OFFCURVE",
"36 9 CURVE SMOOTH",
"185 440 LINE SMOOTH",
"201 488 OFFCURVE",
"216 533 OFFCURVE",
"230 580 CURVE",
"232 580 LINE",
"232 533 OFFCURVE",
"233 489 OFFCURVE",
"234 440 CURVE SMOOTH",
"245 9 LINE SMOOTH",
"245 3 OFFCURVE",
"248 0 OFFCURVE",
"254 0 CURVE SMOOTH",
"302 0 LINE SMOOTH",
"308 0 OFFCURVE",
"311 3 OFFCURVE",
"311 9 CURVE SMOOTH",
"284 646 LINE SMOOTH",
"284 652 OFFCURVE",
"281 655 OFFCURVE",
"275 655 CURVE SMOOTH",
"209 655 LINE SMOOTH",
"204 655 OFFCURVE",
"201 652 OFFCURVE",
"199 646 CURVE SMOOTH",
"-30 9 LINE SMOOTH",
"-31 3 OFFCURVE",
"-29 0 OFFCURVE",
"-23 0 CURVE SMOOTH"
);
},
{
closed = 1;
nodes = (
"251 162 LINE",
"248 223 LINE",
"99 223 LINE",
"77 162 LINE"
);
}
);
width = 338;
}
);
leftKerningGroup = A;
rightKerningGroup = A;
unicode = 0041;
},
{
glyphname = Aring;
lastChange = "2022-10-25 01:48:04 +0000";
layers = (
{
layerId = "9DFF46AD-73DE-422E-A6A3-16745129C94E";
paths = (
{
closed = 1;
nodes = (
"138 0 LINE SMOOTH",
"146 0 OFFCURVE",
"151 7 OFFCURVE",
"153 15 CURVE SMOOTH",
"183 117 LINE",
"279 117 LINE",
"275 15 LINE SMOOTH",
"275 4 OFFCURVE",
"281 0 OFFCURVE",
"290 0 CURVE SMOOTH",
"434 0 LINE SMOOTH",
"443 0 OFFCURVE",
"450 5 OFFCURVE",
"449 15 CURVE SMOOTH",
"416 623 LINE",
"426 641 OFFCURVE",
"432 664 OFFCURVE",
"432 690 CURVE SMOOTH",
"432 749 OFFCURVE",
"393 784 OFFCURVE",
"328 784 CURVE SMOOTH",
"254 784 OFFCURVE",
"207 738 OFFCURVE",
"207 662 CURVE SMOOTH",
"207 653 OFFCURVE",
"208 646 OFFCURVE",
"211 637 CURVE",
"-24 15 LINE SMOOTH",
"-27 6 OFFCURVE",
"-22 0 OFFCURVE",
"-12 0 CURVE SMOOTH"
);
},
{
closed = 1;
nodes = (
"256 368 LINE SMOOTH",
"269 413 OFFCURVE",
"282 459 OFFCURVE",
"294 504 CURVE",
"296 504 LINE",
"293 459 OFFCURVE",
"291 413 OFFCURVE",
"289 368 CURVE SMOOTH",
"284 246 LINE",
"220 246 LINE"
);
},
{
closed = 1;
nodes = (
"304 637 OFFCURVE",
"298 646 OFFCURVE",
"298 665 CURVE SMOOTH",
"298 698 OFFCURVE",
"306 715 OFFCURVE",
"323 715 CURVE SMOOTH",
"336 715 OFFCURVE",
"342 705 OFFCURVE",
"342 687 CURVE SMOOTH",
"342 655 OFFCURVE",
"334 637 OFFCURVE",
"316 637 CURVE SMOOTH"
);
}
);
width = 479;
},
{
layerId = "7BE597F2-1213-4429-94A3-E96FC63EF83E";
paths = (
{
closed = 1;
nodes = (
"-12 0 LINE SMOOTH",
"-10 0 OFFCURVE",
"-9 0 OFFCURVE",
"-8 3 CURVE",
"63 191 LINE",
"255 191 LINE",
"266 3 LINE",
"266 0 OFFCURVE",
"267 0 OFFCURVE",
"269 0 CURVE SMOOTH",
"279 0 LINE SMOOTH",
"281 0 OFFCURVE",
"282 1 OFFCURVE",
"282 3 CURVE",
"243 642 LINE",
"276 647 OFFCURVE",
"296 679 OFFCURVE",
"296 725 CURVE SMOOTH",
"296 759 OFFCURVE",
"276 781 OFFCURVE",
"246 781 CURVE SMOOTH",
"206 781 OFFCURVE",
"182 748 OFFCURVE",
"182 697 CURVE SMOOTH",
"182 668 OFFCURVE",
"196 649 OFFCURVE",
"218 643 CURVE",
"-24 4 LINE",
"-25 1 OFFCURVE",
"-24 0 OFFCURVE",
"-22 0 CURVE SMOOTH"
);
},
{
closed = 1;
nodes = (
"179 498 LINE SMOOTH",
"196 544 OFFCURVE",
"213 591 OFFCURVE",
"229 637 CURVE",
"230 637 LINE",
"231 591 OFFCURVE",
"233 546 OFFCURVE",
"236 500 CURVE SMOOTH",
"254 207 LINE",
"69 207 LINE"
);
},
{
closed = 1;
nodes = (
"210 656 OFFCURVE",
"197 669 OFFCURVE",
"197 697 CURVE SMOOTH",
"197 740 OFFCURVE",
"214 766 OFFCURVE",
"244 766 CURVE SMOOTH",
"268 766 OFFCURVE",
"281 752 OFFCURVE",
"281 725 CURVE SMOOTH",
"281 682 OFFCURVE",
"264 656 OFFCURVE",
"234 656 CURVE SMOOTH"
);
}
);
width = 316;
},
{
layerId = "F3DD84D5-00FA-4BE1-BE55-069AF9C50450";
paths = (
{
closed = 1;
nodes = (
"26 0 LINE SMOOTH",
"30 0 OFFCURVE",
"34 3 OFFCURVE",
"36 9 CURVE SMOOTH",
"89 162 LINE",
"241 162 LINE",
"245 9 LINE SMOOTH",
"245 3 OFFCURVE",
"248 0 OFFCURVE",
"254 0 CURVE SMOOTH",
"302 0 LINE SMOOTH",
"308 0 OFFCURVE",
"311 3 OFFCURVE",
"311 9 CURVE",
"285 629 LINE",
"310 644 OFFCURVE",
"324 674 OFFCURVE",
"324 715 CURVE SMOOTH",
"324 757 OFFCURVE",
"299 783 OFFCURVE",
"258 783 CURVE SMOOTH",
"207 783 OFFCURVE",
"178 746 OFFCURVE",
"178 686 CURVE SMOOTH",
"178 665 OFFCURVE",
"185 648 OFFCURVE",
"196 638 CURVE",
"-30 9 LINE",
"-31 3 OFFCURVE",
"-29 0 OFFCURVE",
"-23 0 CURVE SMOOTH"
);
},
{
closed = 1;
nodes = (
"185 440 LINE SMOOTH",
"201 488 OFFCURVE",
"216 533 OFFCURVE",
"230 580 CURVE",
"232 580 LINE",
"232 533 OFFCURVE",
"233 489 OFFCURVE",
"234 440 CURVE SMOOTH",
"240 223 LINE",
"109 223 LINE"
);
},
{
closed = 1;
nodes = (
"230 654 OFFCURVE",
"220 665 OFFCURVE",
"220 687 CURVE SMOOTH",
"220 723 OFFCURVE",
"233 745 OFFCURVE",
"255 745 CURVE SMOOTH",
"272 745 OFFCURVE",
"282 733 OFFCURVE",
"282 712 CURVE SMOOTH",
"282 676 OFFCURVE",
"270 654 OFFCURVE",
"247 654 CURVE SMOOTH"
);
}
);
width = 338;
}
);
leftKerningGroup = A;
leftMetricsKey = A;
rightKerningGroup = A;
rightMetricsKey = A;
unicode = 00C5;
},
{
glyphname = AE;
lastChange = "2022-10-25 01:49:53 +0000";
layers = (
{
anchors = (
{
name = bottom;
position = "{335, 0}";
},
{
name = top;
position = "{434, 655}";
}
);
layerId = "9DFF46AD-73DE-422E-A6A3-16745129C94E";
paths = (
{
closed = 1;
nodes = (
"136 0 LINE SMOOTH",
"144 0 OFFCURVE",
"149 7 OFFCURVE",
"151 15 CURVE SMOOTH",
"183 117 LINE",
"250 117 LINE",
"233 15 LINE SMOOTH",
"231 5 OFFCURVE",
"238 0 OFFCURVE",
"247 0 CURVE SMOOTH",
"562 0 LINE SMOOTH",
"571 0 OFFCURVE",
"575 6 OFFCURVE",
"576 15 CURVE SMOOTH",
"595 131 LINE SMOOTH",
"596 140 OFFCURVE",
"591 146 OFFCURVE",
"581 146 CURVE SMOOTH",
"414 146 LINE",
"432 260 LINE",
"586 260 LINE SMOOTH",
"595 260 OFFCURVE",
"600 266 OFFCURVE",
"601 275 CURVE SMOOTH",
"618 384 LINE SMOOTH",
"620 394 OFFCURVE",
"615 399 OFFCURVE",
"605 399 CURVE SMOOTH",
"454 399 LINE",
"471 509 LINE",
"642 509 LINE SMOOTH",
"651 509 OFFCURVE",
"656 516 OFFCURVE",
"657 524 CURVE SMOOTH",
"675 640 LINE SMOOTH",
"677 650 OFFCURVE",
"672 655 OFFCURVE",
"662 655 CURVE SMOOTH",
"224 655 LINE SMOOTH",
"216 655 OFFCURVE",
"211 650 OFFCURVE",
"207 640 CURVE SMOOTH",
"-24 15 LINE SMOOTH",
"-27 6 OFFCURVE",
"-22 0 OFFCURVE",
"-12 0 CURVE SMOOTH"
);
},
{
closed = 1;
nodes = (
"273 405 LINE SMOOTH",
"283 436 OFFCURVE",
"301 492 OFFCURVE",
"315 535 CURVE",
"317 535 LINE",
"309 489 OFFCURVE",
"304 458 OFFCURVE",
"297 412 CURVE SMOOTH",
"270 246 LINE",
"223 246 LINE"
);
}
);
width = 628;
},
{
anchors = (
{
name = bottom;
position = "{293, 0}";
},
{
name = top;
position = "{397, 655}";
}
);
layerId = "7BE597F2-1213-4429-94A3-E96FC63EF83E";
paths = (
{
closed = 1;
nodes = (
"-11 0 LINE SMOOTH",
"-9 0 OFFCURVE",
"-8 0 OFFCURVE",
"-7 2 CURVE SMOOTH",
"85 191 LINE",
"228 191 LINE",
"198 4 LINE SMOOTH",
"197 0 OFFCURVE",
"199 0 OFFCURVE",
"201 0 CURVE SMOOTH",
"401 0 LINE SMOOTH",
"404 0 OFFCURVE",
"405 0 OFFCURVE",
"406 3 CURVE SMOOTH",
"408 12 LINE SMOOTH",
"409 16 OFFCURVE",
"407 16 OFFCURVE",
"405 16 CURVE SMOOTH",
"216 16 LINE",
"265 328 LINE",
"441 328 LINE SMOOTH",
"444 328 OFFCURVE",
"445 328 OFFCURVE",
"446 331 CURVE SMOOTH",
"448 340 LINE SMOOTH",
"449 344 OFFCURVE",
"447 344 OFFCURVE",
"445 344 CURVE SMOOTH",
"268 344 LINE",
"315 639 LINE",
"503 639 LINE SMOOTH",
"506 639 OFFCURVE",
"507 639 OFFCURVE",
"508 642 CURVE SMOOTH",
"510 651 LINE SMOOTH",
"511 655 OFFCURVE",
"509 655 OFFCURVE",
"507 655 CURVE SMOOTH",
"295 655 LINE SMOOTH",
"293 655 OFFCURVE",
"292 655 OFFCURVE",
"290 651 CURVE SMOOTH",
"-24 3 LINE SMOOTH",
"-25 1 OFFCURVE",
"-24 0 OFFCURVE",
"-22 0 CURVE SMOOTH"
);
},
{
closed = 1;
nodes = (
"261 555 LINE SMOOTH",
"274 583 OFFCURVE",
"286 611 OFFCURVE",
"299 639 CURVE",
"300 639 LINE",
"295 609 OFFCURVE",
"290 580 OFFCURVE",
"285 550 CURVE SMOOTH",
"230 207 LINE",
"92 207 LINE"
);
}
);
width = 481;
},
{
anchors = (
{
name = bottom;
position = "{261, 0}";
},
{
name = top;
position = "{392, 655}";
}
);
layerId = "F3DD84D5-00FA-4BE1-BE55-069AF9C50450";
paths = (
{
closed = 1;
nodes = (
"29 0 LINE SMOOTH",
"33 0 OFFCURVE",
"36 2 OFFCURVE",
"38 8 CURVE SMOOTH",
"104 162 LINE",
"219 162 LINE",
"195 9 LINE SMOOTH",
"194 3 OFFCURVE",
"197 0 OFFCURVE",
"203 0 CURVE SMOOTH",
"420 0 LINE SMOOTH",
"426 0 OFFCURVE",
"428 3 OFFCURVE",
"429 9 CURVE SMOOTH",
"437 52 LINE SMOOTH",
"438 58 OFFCURVE",
"435 61 OFFCURVE",
"429 61 CURVE SMOOTH",
"265 61 LINE",
"304 305 LINE",
"455 305 LINE SMOOTH",
"460 305 OFFCURVE",
"463 308 OFFCURVE",
"464 313 CURVE SMOOTH",
"471 355 LINE SMOOTH",
"472 360 OFFCURVE",
"469 363 OFFCURVE",
"463 363 CURVE SMOOTH",
"313 363 LINE",
"350 594 LINE",
"514 594 LINE SMOOTH",
"520 594 OFFCURVE",
"522 597 OFFCURVE",
"523 602 CURVE SMOOTH",
"531 646 LINE SMOOTH",
"532 652 OFFCURVE",
"529 655 OFFCURVE",
"523 655 CURVE SMOOTH",
"260 655 LINE SMOOTH",
"256 655 OFFCURVE",
"252 652 OFFCURVE",
"250 646 CURVE SMOOTH",
"-30 9 LINE SMOOTH",
"-31 4 OFFCURVE",
"-29 0 OFFCURVE",
"-24 0 CURVE SMOOTH"
);
},
{
closed = 1;
nodes = (
"252 511 LINE SMOOTH",
"265 543 OFFCURVE",
"276 571 OFFCURVE",
"289 602 CURVE",
"290 602 LINE",
"284 571 OFFCURVE",
"280 546 OFFCURVE",
"274 508 CURVE SMOOTH",
"228 223 LINE",
"129 223 LINE"
);
}
);
width = 497;
}
);
leftKerningGroup = AE;
leftMetricsKey = A;
rightKerningGroup = E;
rightMetricsKey = E;
unicode = 00C6;
},
{
glyphname = B;
lastChange = "2022-10-25 01:48:04 +0000";
layers = (
{
layerId = "9DFF46AD-73DE-422E-A6A3-16745129C94E";
paths = (
{
closed = 1;
nodes = (
"188 0 LINE SMOOTH",
"352 0 OFFCURVE",
"437 88 OFFCURVE",
"437 209 CURVE SMOOTH",
"437 283 OFFCURVE",
"406 323 OFFCURVE",
"349 345 CURVE",
"349 347 LINE",
"422 373 OFFCURVE",
"461 426 OFFCURVE",
"461 512 CURVE SMOOTH",
"461 607 OFFCURVE",
"393 655 OFFCURVE",
"270 655 CURVE SMOOTH",
"117 655 LINE SMOOTH",
"109 655 OFFCURVE",
"104 651 OFFCURVE",
"102 640 CURVE SMOOTH",
"2 15 LINE SMOOTH",
"0 4 OFFCURVE",
"6 0 OFFCURVE",
"16 0 CURVE SMOOTH"
);
},
{
closed = 1;
nodes = (
"205 272 LINE",
"223 272 LINE SMOOTH",
"260 272 OFFCURVE",
"274 250 OFFCURVE",
"274 215 CURVE SMOOTH",
"274 172 OFFCURVE",
"253 133 OFFCURVE",
"207 133 CURVE SMOOTH",
"182 133 LINE"
);
},
{
closed = 1;
nodes = (
"244 522 LINE",
"257 522 LINE SMOOTH",
"284 522 OFFCURVE",
"297 508 OFFCURVE",
"297 475 CURVE SMOOTH",
"297 436 OFFCURVE",
"281 391 OFFCURVE",
"241 391 CURVE SMOOTH",
"223 391 LINE"
);
}
);
width = 450;
},
{
layerId = "7BE597F2-1213-4429-94A3-E96FC63EF83E";
paths = (
{
closed = 1;
nodes = (
"118 0 LINE SMOOTH",
"243 0 OFFCURVE",
"309 76.542 OFFCURVE",
"309 212 CURVE SMOOTH",
"309 281 OFFCURVE",
"282.384 322.957 OFFCURVE",
"226 338 CURVE",
"226 340 LINE",
"296 365 OFFCURVE",
"341 438 OFFCURVE",
"341 531 CURVE SMOOTH",
"341 615.756 OFFCURVE",
"303 655 OFFCURVE",
"209 655 CURVE SMOOTH",
"144 655 LINE SMOOTH",
"141 655 OFFCURVE",
"140 655 OFFCURVE",
"139 651 CURVE SMOOTH",
"36 4 LINE SMOOTH",
"35 0 OFFCURVE",
"37 0 OFFCURVE",
"39 0 CURVE SMOOTH"
);
},
{
closed = 1;
nodes = (
"103 330 LINE",
"180 330 LINE SMOOTH",
"256 330 OFFCURVE",
"293 290 OFFCURVE",
"293 210 CURVE SMOOTH",
"293 86.231 OFFCURVE",
"233 16 OFFCURVE",
"118 16 CURVE SMOOTH",
"54 16 LINE"
);
},
{
closed = 1;
nodes = (
"153 639 LINE",
"206 639 LINE SMOOTH",
"290 639 OFFCURVE",
"325 605.556 OFFCURVE",
"325 530 CURVE SMOOTH",
"325 427 OFFCURVE",
"262.139 346 OFFCURVE",
"182 346 CURVE SMOOTH",
"106 346 LINE"
);
}
);
width = 347;
},
{
layerId = "F3DD84D5-00FA-4BE1-BE55-069AF9C50450";
paths = (
{
closed = 1;
nodes = (
"137 0 LINE SMOOTH",
"261 0 OFFCURVE",
"331 81 OFFCURVE",
"331 222 CURVE SMOOTH",
"331 287 OFFCURVE",
"305 325 OFFCURVE",
"259 341 CURVE",
"259 343 LINE",
"324 373 OFFCURVE",
"360 441 OFFCURVE",
"360 524 CURVE SMOOTH",
"360 614 OFFCURVE",
"317 655 OFFCURVE",
"217 655 CURVE SMOOTH",
"134 655 LINE SMOOTH",
"128 655 OFFCURVE",
"126 652 OFFCURVE",
"124 646 CURVE SMOOTH",
"23 9 LINE SMOOTH",
"22 4 OFFCURVE",
"25 0 OFFCURVE",
"30 0 CURVE SMOOTH"
);
},
{
closed = 1;
nodes = (
"133 310 LINE",
"182 310 LINE SMOOTH",
"240 310 OFFCURVE",
"268 280 OFFCURVE",
"268 220 CURVE SMOOTH",
"268 118 OFFCURVE",
"224 61 OFFCURVE",
"141 61 CURVE SMOOTH",
"94 61 LINE"
);
},
{
closed = 1;
nodes = (
"178 594 LINE",
"217 594 LINE SMOOTH",
"274 594 OFFCURVE",
"298 570 OFFCURVE",
"298 515 CURVE SMOOTH",
"298 428 OFFCURVE",
"256 369 OFFCURVE",
"188 369 CURVE SMOOTH",
"143 369 LINE"
);
}
);
width = 356;
}
);
leftKerningGroup = H;
leftMetricsKey = H;
rightKerningGroup = B;
unicode = 0042;
},
{
glyphname = C;
lastChange = "2022-10-25 01:49:53 +0000";
layers = (
{
anchors = (
{
name = bottom;
position = "{216, 0}";
},
{
name = top;
position = "{312, 655}";
}
);
layerId = "9DFF46AD-73DE-422E-A6A3-16745129C94E";
paths = (
{
closed = 1;
nodes = (
"377 -6 OFFCURVE",
"451 90 OFFCURVE",
"460 237 CURVE SMOOTH",
"461 246 OFFCURVE",
"455 252 OFFCURVE",
"446 252 CURVE SMOOTH",
"312 252 LINE SMOOTH",
"303 252 OFFCURVE",
"298 247 OFFCURVE",
"297 237 CURVE SMOOTH",
"292 181 OFFCURVE",
"279 142 OFFCURVE",
"236 142 CURVE SMOOTH",
"193 142 OFFCURVE",
"180 172 OFFCURVE",
"191 242 CURVE SMOOTH",
"220 422 LINE SMOOTH",
"231 488 OFFCURVE",
"246 513 OFFCURVE",
"286 513 CURVE SMOOTH",
"328 513 OFFCURVE",
"338 477 OFFCURVE",
"326 419 CURVE SMOOTH",
"324 409 OFFCURVE",
"330 404 OFFCURVE",
"339 404 CURVE SMOOTH",
"473 404 LINE SMOOTH",
"482 404 OFFCURVE",
"486 409 OFFCURVE",
"488 419 CURVE SMOOTH",
"520 568 OFFCURVE",
"446 661 OFFCURVE",
"302 661 CURVE SMOOTH",
"160 661 OFFCURVE",
"85 588 OFFCURVE",
"60 429 CURVE SMOOTH",
"31 246 LINE SMOOTH",
"5 82 OFFCURVE",
"76 -6 OFFCURVE",
"222 -6 CURVE SMOOTH"
);
}
);
width = 475;
},
{
anchors = (
{
name = bottom;
position = "{161, 0}";
},
{
name = top;
position = "{265, 655}";
}
);
layerId = "7BE597F2-1213-4429-94A3-E96FC63EF83E";
paths = (
{
closed = 1;
nodes = (
"261.865 -6 OFFCURVE",
"313.628 57.904 OFFCURVE",
"330 194 CURVE SMOOTH",
"330.609 199.062 OFFCURVE",
"329 199 OFFCURVE",
"327 199 CURVE SMOOTH",
"319 199 LINE SMOOTH",
"315.5 199 OFFCURVE",
"314 197.5 OFFCURVE",
"314 194 CURVE SMOOTH",
"298.702 67.54 OFFCURVE",
"253.359 10 OFFCURVE",
"169 10 CURVE SMOOTH",
"83.953 10 OFFCURVE",
"50.53 67.488 OFFCURVE",
"69 182 CURVE SMOOTH",
"119 492 LINE SMOOTH",
"136 598.004 OFFCURVE",
"179.003 645 OFFCURVE",
"259 645 CURVE SMOOTH",
"346.932 645 OFFCURVE",
"378.018 585.096 OFFCURVE",
"355 460 CURVE SMOOTH",
"354.254 455.945 OFFCURVE",
"355 456 OFFCURVE",
"358 456 CURVE SMOOTH",
"366 456 LINE SMOOTH",
"369 456 OFFCURVE",
"370.209 455.953 OFFCURVE",
"371 460 CURVE SMOOTH",
"396.68 591.363 OFFCURVE",
"357 661 OFFCURVE",
"260 661 CURVE SMOOTH",
"170.298 661 OFFCURVE",
"122 611 OFFCURVE",
"103 493 CURVE SMOOTH",
"53 181 LINE SMOOTH",
"33.613 58.216 OFFCURVE",
"74 -6 OFFCURVE",
"168 -6 CURVE SMOOTH"
);
}
);
width = 381;
},
{
anchors = (
{
name = bottom;
position = "{172, 0}";
},
{
name = top;
position = "{268, 655}";
}
);
layerId = "F3DD84D5-00FA-4BE1-BE55-069AF9C50450";
paths = (
{
closed = 1;
nodes = (
"280 -6 OFFCURVE",
"339 71 OFFCURVE",
"346 209 CURVE SMOOTH",
"346 218 OFFCURVE",
"343 218 OFFCURVE",
"338 218 CURVE SMOOTH",
"293 218 LINE SMOOTH",
"287 218 OFFCURVE",
"284 215 OFFCURVE",
"284 209 CURVE SMOOTH",
"279 116 OFFCURVE",
"249 55 OFFCURVE",
"178 55 CURVE SMOOTH",
"115 55 OFFCURVE",
"90 97 OFFCURVE",
"105 190 CURVE SMOOTH",
"151 478 LINE SMOOTH",
"165 563 OFFCURVE",
"195 600 OFFCURVE",
"254 600 CURVE SMOOTH",
"322 600 OFFCURVE",
"341 544 OFFCURVE",
"319 445 CURVE SMOOTH",
"318 440 OFFCURVE",
"321 437 OFFCURVE",
"326 437 CURVE SMOOTH",
"371 437 LINE SMOOTH",
"377 437 OFFCURVE",
"380 440 OFFCURVE",
"381 445 CURVE SMOOTH",
"418 568 OFFCURVE",
"369 661 OFFCURVE",
"260 661 CURVE SMOOTH",
"161 661 OFFCURVE",
"108 605 OFFCURVE",
"88 478 CURVE SMOOTH",
"43 193 LINE SMOOTH",
"22 61 OFFCURVE",
"71 -6 OFFCURVE",
"171 -6 CURVE SMOOTH"
);
}
);
width = 384;
}
);
leftKerningGroup = O;
leftMetricsKey = O;
rightKerningGroup = C;
unicode = 0043;
},
{
glyphname = D;
lastChange = "2022-10-25 01:48:04 +0000";
layers = (
{
anchors = (
{
name = bottom;
position = "{177, 0}";
},
{
name = center;
position = "{252, 341}";
},
{
name = top;
position = "{281, 655}";
}
);
layerId = "9DFF46AD-73DE-422E-A6A3-16745129C94E";
paths = (
{
closed = 1;
nodes = (
"192 0 LINE SMOOTH",
"348.253 0 OFFCURVE",
"438 93 OFFCURVE",
"470 291 CURVE SMOOTH",
"482 366 LINE SMOOTH",
"512 555 OFFCURVE",
"438 655 OFFCURVE",
"268 655 CURVE SMOOTH",
"117 655 LINE SMOOTH",
"108.5 655 OFFCURVE",
"104.125 650.625 OFFCURVE",
"102 640 CURVE SMOOTH",
"2 15 LINE SMOOTH",
"0.185 5.016 OFFCURVE",
"4.867 0 OFFCURVE",
"16 0 CURVE SMOOTH"
);
},
{
closed = 1;
nodes = (
"242 509 LINE",
"261 509 LINE SMOOTH",
"316 509 OFFCURVE",
"337 461 OFFCURVE",
"321 365 CURVE SMOOTH",
"309 293 LINE SMOOTH",
"291 186 OFFCURVE",
"263.51 146 OFFCURVE",
"208 146 CURVE SMOOTH",
"184 146 LINE"
);
}
);
width = 474;
},
{
anchors = (
{
name = bottom;
position = "{132, 0}";
},
{
name = center;
position = "{213, 328}";
},
{
name = top;
position = "{236, 655}";
}
);
layerId = "7BE597F2-1213-4429-94A3-E96FC63EF83E";
paths = (
{
closed = 1;
nodes = (
"122 0 LINE SMOOTH",
"253.937 0 OFFCURVE",
"318.419 76.806 OFFCURVE",
"347 268 CURVE SMOOTH",
"364 381 LINE SMOOTH",
"392.879 576.183 OFFCURVE",
"348.58 655 OFFCURVE",
"210 655 CURVE SMOOTH",
"144 655 LINE SMOOTH",
"141 655 OFFCURVE",
"140 655 OFFCURVE",
"139 651 CURVE SMOOTH",
"36 4 LINE SMOOTH",
"35 0 OFFCURVE",
"37 0 OFFCURVE",
"39 0 CURVE SMOOTH"
);
},
{
closed = 1;
nodes = (
"153 639 LINE",
"209 639 LINE SMOOTH",
"337.338 639 OFFCURVE",
"376.593 565.855 OFFCURVE",
"348 380 CURVE SMOOTH",
"331 269 LINE SMOOTH",
"303.541 87.576 OFFCURVE",
"244.413 16 OFFCURVE",
"122 16 CURVE SMOOTH",
"54 16 LINE"
);
}
);
width = 383;
},
{
anchors = (
{
name = bottom;
position = "{135, 0}";
},
{
name = center;
position = "{218, 327}";
},
{
name = top;
position = "{239, 656}";
}
);
layerId = "F3DD84D5-00FA-4BE1-BE55-069AF9C50450";
paths = (
{
closed = 1;
nodes = (
"133 0 LINE SMOOTH",
"266 0 OFFCURVE",
"338 87 OFFCURVE",
"367 280 CURVE SMOOTH",
"383 387 LINE SMOOTH",
"411 570 OFFCURVE",
"358 655 OFFCURVE",
"214 655 CURVE SMOOTH",
"134 655 LINE SMOOTH",
"128 655 OFFCURVE",
"126 652 OFFCURVE",
"124 646 CURVE SMOOTH",
"23 9 LINE SMOOTH",
"22 3 OFFCURVE",
"25 0 OFFCURVE",
"31 0 CURVE SMOOTH"
);
},
{
closed = 1;
nodes = (
"178 594 LINE",
"211 594 LINE SMOOTH",
"311 594 OFFCURVE",
"342 532 OFFCURVE",
"321 390 CURVE SMOOTH",
"305 280 LINE SMOOTH",
"282 127 OFFCURVE",
"232 61 OFFCURVE",
"135 61 CURVE SMOOTH",
"94 61 LINE"
);
}
);
width = 390;
}
);
leftKerningGroup = H;
leftMetricsKey = H;
rightKerningGroup = D;
unicode = 0044;
},
{
glyphname = Eth;
lastChange = "2022-10-25 01:48:04 +0000";
layers = (
{
components = (
{
name = D;
transform = "{1, 0, 0, 1, 10, 0}";
}
);
layerId = "9DFF46AD-73DE-422E-A6A3-16745129C94E";
paths = (
{
closed = 1;
nodes = (
"249 269 LINE SMOOTH",
"257 269 OFFCURVE",
"263 275 OFFCURVE",
"264 284 CURVE SMOOTH",
"279 374 LINE SMOOTH",
"281 384 OFFCURVE",
"275 389 OFFCURVE",
"265 389 CURVE SMOOTH",
"73 389 LINE",
"48 389 LINE SMOOTH",
"40 389 OFFCURVE",
"34 383 OFFCURVE",
"33 374 CURVE SMOOTH",
"18 284 LINE SMOOTH",
"16 274 OFFCURVE",
"22 269 OFFCURVE",
"32 269 CURVE SMOOTH"
);
}
);
width = 484;
},
{
components = (
{
name = D;
}
);
layerId = "7BE597F2-1213-4429-94A3-E96FC63EF83E";
paths = (
{
closed = 1;
nodes = (
"206 328 LINE SMOOTH",
"209 328 OFFCURVE",
"210 328 OFFCURVE",
"211 331 CURVE SMOOTH",
"213 340 LINE SMOOTH",
"214 344 OFFCURVE",
"212 344 OFFCURVE",
"210 344 CURVE SMOOTH",
"90 344 LINE",
"35 344 LINE SMOOTH",
"32 344 OFFCURVE",
"31 344 OFFCURVE",
"30 341 CURVE SMOOTH",
"28 332 LINE SMOOTH",
"27 328 OFFCURVE",
"29 328 OFFCURVE",
"31 328 CURVE SMOOTH"
);
}
);
width = 383;
},
{
components = (
{
alignment = -1;
name = D;
}
);
layerId = "F3DD84D5-00FA-4BE1-BE55-069AF9C50450";
paths = (
{
closed = 1;
nodes = (
"205 305 LINE SMOOTH",
"211 305 OFFCURVE",
"213 309 OFFCURVE",
"214 314 CURVE SMOOTH",
"220 354 LINE SMOOTH",
"221 359 OFFCURVE",
"218 363 OFFCURVE",
"212 363 CURVE SMOOTH",
"80 363 LINE",
"42 363 LINE SMOOTH",
"38 363 OFFCURVE",
"34 359 OFFCURVE",
"33 354 CURVE SMOOTH",
"27 314 LINE SMOOTH",
"26 309 OFFCURVE",
"30 305 OFFCURVE",
"35 305 CURVE SMOOTH"
);
}
);
width = 390;
}
);
leftKerningGroup = Eth;
rightKerningGroup = D;
rightMetricsKey = D;
unicode = 00D0;
},
{
glyphname = E;
lastChange = "2022-10-25 01:48:04 +0000";
layers = (
{
anchors = (
{
name = bottom;
position = "{172, 0}";
},
{
name = ogonek;
position = "{325, 10}";
},
{
name = top;
position = "{276, 655}";
},
{
name = topleft;
position = "{101, 655}";
}
);
layerId = "9DFF46AD-73DE-422E-A6A3-16745129C94E";
paths = (
{
closed = 1;
nodes = (
"333 0 LINE SMOOTH",
"342 0 OFFCURVE",
"347 6 OFFCURVE",
"348 15 CURVE SMOOTH",
"367 131 LINE SMOOTH",
"368 140 OFFCURVE",
"363 146 OFFCURVE",
"353 146 CURVE SMOOTH",
"186 146 LINE",
"204 260 LINE",
"358 260 LINE SMOOTH",
"367 260 OFFCURVE",
"372 266 OFFCURVE",
"373 275 CURVE SMOOTH",
"390 384 LINE SMOOTH",
"392 394 OFFCURVE",
"387 399 OFFCURVE",
"377 399 CURVE SMOOTH",
"226 399 LINE",
"243 509 LINE",
"414 509 LINE SMOOTH",
"423 509 OFFCURVE",
"428 516 OFFCURVE",
"429 524 CURVE SMOOTH",
"447 640 LINE SMOOTH",
"449 650 OFFCURVE",
"444 655 OFFCURVE",
"434 655 CURVE SMOOTH",
"117 655 LINE SMOOTH",
"108 655 OFFCURVE",
"104 650 OFFCURVE",
"102 640 CURVE SMOOTH",
"2 15 LINE SMOOTH",
"0 4 OFFCURVE",
"6 0 OFFCURVE",
"16 0 CURVE SMOOTH"
);
}
);
width = 400;
},
{
anchors = (
{
name = bottom;
position = "{135, 0}";
},
{
name = ogonek;
position = "{232, 10}";
},
{
name = top;
position = "{244, 655}";
},
{
name = topleft;
position = "{94, 655}";
}
);
guideLines = (
{
angle = 90;
position = "{565, 599}";
}
);
layerId = "7BE597F2-1213-4429-94A3-E96FC63EF83E";
paths = (
{
closed = 1;
nodes = (
"239 0 LINE SMOOTH",
"242 0 OFFCURVE",
"243 0 OFFCURVE",
"244 3 CURVE SMOOTH",
"246 12 LINE SMOOTH",
"247 16 OFFCURVE",
"245 16 OFFCURVE",
"243 16 CURVE SMOOTH",
"54 16 LINE",
"103 328 LINE",
"279 328 LINE SMOOTH",
"282 328 OFFCURVE",
"283 328 OFFCURVE",
"284 331 CURVE SMOOTH",
"286 340 LINE SMOOTH",
"287 344 OFFCURVE",
"285 344 OFFCURVE",
"283 344 CURVE SMOOTH",
"106 344 LINE",
"153 639 LINE",
"341 639 LINE SMOOTH",
"344 639 OFFCURVE",
"345 639 OFFCURVE",
"346 642 CURVE SMOOTH",
"348 651 LINE SMOOTH",
"349 655 OFFCURVE",
"347 655 OFFCURVE",
"345 655 CURVE SMOOTH",
"144 655 LINE SMOOTH",
"141 655 OFFCURVE",
"140 655 OFFCURVE",
"139 651 CURVE SMOOTH",
"36 4 LINE SMOOTH",
"35 0 OFFCURVE",
"37 0 OFFCURVE",
"39 0 CURVE SMOOTH"
);
}
);
width = 319;
},
{
anchors = (
{
name = bottom;
position = "{141, 0}";
},
{
name = ogonek;
position = "{245, 10}";
},
{
name = top;
position = "{243, 655}";
},
{
name = topleft;
position = "{101, 655}";
}
);
layerId = "F3DD84D5-00FA-4BE1-BE55-069AF9C50450";
paths = (
{
closed = 1;
nodes = (
"249 0 LINE SMOOTH",
"254 0 OFFCURVE",
"257 3 OFFCURVE",
"258 9 CURVE SMOOTH",
"265 52 LINE SMOOTH",
"266 58 OFFCURVE",
"264 61 OFFCURVE",
"258 61 CURVE SMOOTH",
"94 61 LINE",
"132 305 LINE",
"284 305 LINE SMOOTH",
"289 305 OFFCURVE",
"292 308 OFFCURVE",
"293 313 CURVE SMOOTH",
"300 355 LINE SMOOTH",
"301 360 OFFCURVE",
"298 363 OFFCURVE",
"292 363 CURVE SMOOTH",
"142 363 LINE",
"178 594 LINE",
"343 594 LINE SMOOTH",
"349 594 OFFCURVE",
"351 597 OFFCURVE",
"352 602 CURVE SMOOTH",
"360 646 LINE SMOOTH",
"361 652 OFFCURVE",
"358 655 OFFCURVE",
"352 655 CURVE SMOOTH",
"134 655 LINE SMOOTH",
"128 655 OFFCURVE",
"125 652 OFFCURVE",
"124 646 CURVE SMOOTH",
"23 9 LINE SMOOTH",
"22 3 OFFCURVE",
"26 0 OFFCURVE",
"30 0 CURVE SMOOTH"
);
}
);
width = 326;
}
);
leftKerningGroup = H;
leftMetricsKey = H;
rightKerningGroup = E;
unicode = 0045;
},
{
glyphname = F;
lastChange = "2022-10-25 01:48:04 +0000";
layers = (
{
layerId = "9DFF46AD-73DE-422E-A6A3-16745129C94E";
paths = (
{
closed = 1;
nodes = (
"148 0 LINE SMOOTH",
"156 0 OFFCURVE",
"162 6 OFFCURVE",
"163 15 CURVE SMOOTH",
"201 247 LINE",
"346 247 LINE SMOOTH",
"355 247 OFFCURVE",
"360 253 OFFCURVE",
"361 262 CURVE SMOOTH",
"379 375 LINE SMOOTH",
"381 385 OFFCURVE",
"376 390 OFFCURVE",
"366 390 CURVE SMOOTH",
"223 390 LINE",
"242 509 LINE",
"413 509 LINE SMOOTH",
"422 509 OFFCURVE",
"427 516 OFFCURVE",
"428 524 CURVE SMOOTH",
"446 640 LINE SMOOTH",
"448 650 OFFCURVE",
"443 655 OFFCURVE",
"433 655 CURVE SMOOTH",
"117 655 LINE SMOOTH",
"108 655 OFFCURVE",
"104 650 OFFCURVE",
"102 640 CURVE SMOOTH",
"2 15 LINE SMOOTH",
"0 4 OFFCURVE",
"6 0 OFFCURVE",
"16 0 CURVE SMOOTH"
);
}
);
width = 394;
},
{
layerId = "7BE597F2-1213-4429-94A3-E96FC63EF83E";
paths = (
{
closed = 1;
nodes = (
"47 0 LINE SMOOTH",
"50 0 OFFCURVE",
"51 0 OFFCURVE",
"52 5 CURVE SMOOTH",
"102 320 LINE",
"271 320 LINE SMOOTH",
"274 320 OFFCURVE",
"275 320 OFFCURVE",
"276 323 CURVE SMOOTH",
"278 332 LINE SMOOTH",
"279 336 OFFCURVE",
"277 336 OFFCURVE",
"275 336 CURVE SMOOTH",
"105 336 LINE",
"153 639 LINE",
"341 639 LINE SMOOTH",
"344 639 OFFCURVE",
"345 639 OFFCURVE",
"346 642 CURVE SMOOTH",
"348 651 LINE SMOOTH",
"349 655 OFFCURVE",
"347 655 OFFCURVE",
"345 655 CURVE SMOOTH",
"144 655 LINE SMOOTH",
"141 655 OFFCURVE",
"140 655 OFFCURVE",
"139 651 CURVE SMOOTH",
"36 5 LINE SMOOTH",
"35 0 OFFCURVE",
"37 0 OFFCURVE",
"40 0 CURVE SMOOTH"
);
}
);
width = 290;
},
{
layerId = "F3DD84D5-00FA-4BE1-BE55-069AF9C50450";
paths = (
{
closed = 1;
nodes = (
"76 0 LINE SMOOTH",
"81 0 OFFCURVE",
"84 3 OFFCURVE",
"85 9 CURVE SMOOTH",
"131 295 LINE",
"275 295 LINE SMOOTH",
"280 295 OFFCURVE",
"283 298 OFFCURVE",
"283 304 CURVE SMOOTH",
"290 345 LINE SMOOTH",
"291 351 OFFCURVE",
"289 354 OFFCURVE",
"285 354 CURVE SMOOTH",
"141 354 LINE",
"178 594 LINE",
"343 594 LINE SMOOTH",
"348 594 OFFCURVE",
"351 597 OFFCURVE",
"352 602 CURVE SMOOTH",
"359 646 LINE SMOOTH",
"360 652 OFFCURVE",
"358 655 OFFCURVE",
"354 655 CURVE SMOOTH",
"134 655 LINE SMOOTH",
"128 655 OFFCURVE",
"125 652 OFFCURVE",
"124 646 CURVE SMOOTH",
"23 9 LINE SMOOTH",
"22 3 OFFCURVE",
"26 0 OFFCURVE",
"30 0 CURVE SMOOTH"
);
}
);
width = 314;
}
);
leftKerningGroup = H;
leftMetricsKey = H;
rightKerningGroup = F;
unicode = 0046;
},
{
glyphname = G;
lastChange = "2022-10-25 01:48:04 +0000";
layers = (
{
anchors = (
{
name = bottom;
position = "{203, 0}";
},
{
name = top;
position = "{314, 655}";
},
{
name = topleft;
position = "{130, 655}";
}
);
layerId = "9DFF46AD-73DE-422E-A6A3-16745129C94E";
paths = (
{
closed = 1;
nodes = (
"230 -6 OFFCURVE",
"270 19 OFFCURVE",
"301 74 CURVE",
"303 74 LINE",
"299 52 OFFCURVE",
"298 29 OFFCURVE",
"299 15 CURVE SMOOTH",
"300 4 OFFCURVE",
"304 0 OFFCURVE",
"314 0 CURVE SMOOTH",
"414 0 LINE SMOOTH",
"425 0 OFFCURVE",
"429 5 OFFCURVE",
"429 15 CURVE SMOOTH",
"428 46 OFFCURVE",
"433 92 OFFCURVE",
"445 172 CURVE SMOOTH",
"471 338 LINE SMOOTH",
"473 347 OFFCURVE",
"468 353 OFFCURVE",
"457 353 CURVE SMOOTH",
"270 353 LINE SMOOTH",
"262 353 OFFCURVE",
"256 347 OFFCURVE",
"255 338 CURVE SMOOTH",
"242 258 LINE SMOOTH",
"240 248 OFFCURVE",
"244 243 OFFCURVE",
"255 243 CURVE SMOOTH",
"310 243 LINE",
"305 215 LINE SMOOTH",
"296 166 OFFCURVE",
"271 142 OFFCURVE",
"235 142 CURVE SMOOTH",
"193 142 OFFCURVE",
"180 170 OFFCURVE",
"192 242 CURVE SMOOTH",
"221 422 LINE SMOOTH",
"232 489 OFFCURVE",
"250 513 OFFCURVE",
"288 513 CURVE SMOOTH",
"322 513 OFFCURVE",
"337 487 OFFCURVE",
"327 442 CURVE SMOOTH",
"325 432 OFFCURVE",
"330 427 OFFCURVE",
"340 427 CURVE SMOOTH",
"473 426 LINE SMOOTH",
"481 426 OFFCURVE",
"486 431 OFFCURVE",
"488 441 CURVE SMOOTH",
"517 571 OFFCURVE",
"439 661 OFFCURVE",
"301 661 CURVE SMOOTH",
"160 661 OFFCURVE",
"86 589 OFFCURVE",
"61 431 CURVE SMOOTH",
"32 248 LINE SMOOTH",
"7 90 OFFCURVE",
"59 -6 OFFCURVE",
"167 -6 CURVE SMOOTH"
);
}
);
width = 478;
},
{
anchors = (
{
name = bottom;
position = "{167, 0}";
},
{
name = top;
position = "{265, 655}";
},
{
name = topleft;
position = "{121, 655}";
}
);
layerId = "7BE597F2-1213-4429-94A3-E96FC63EF83E";
paths = (
{
closed = 1;
nodes = (
"228 -6 OFFCURVE",
"272 33 OFFCURVE",
"304 123 CURVE",
"305 123 LINE",
"297.158 83.789 OFFCURVE",
"292.52 49.583 OFFCURVE",
"289 5 CURVE SMOOTH",
"289 0.625 OFFCURVE",
"289.5 0 OFFCURVE",
"293 0 CURVE SMOOTH",
"299 0 LINE SMOOTH",
"303 0 OFFCURVE",
"304 1 OFFCURVE",
"304 5 CURVE SMOOTH",
"306.893 45.506 OFFCURVE",
"311.694 86.008 OFFCURVE",
"320 140 CURVE SMOOTH",
"348 314 LINE SMOOTH",
"348 316 OFFCURVE",
"347 317 OFFCURVE",
"345 317 CURVE SMOOTH",
"228 317 LINE SMOOTH",
"224.5 317 OFFCURVE",
"223.875 316.625 OFFCURVE",
"223 314 CURVE SMOOTH",
"221 305 LINE SMOOTH",
"220.25 302 OFFCURVE",
"221 301 OFFCURVE",
"224 301 CURVE SMOOTH",
"330 301 LINE",
"322 250 LINE SMOOTH",
"295.449 82.199 OFFCURVE",
"245 10 OFFCURVE",
"157 10 CURVE SMOOTH",
"82 10 OFFCURVE",
"51.308 73.057 OFFCURVE",
"69 182 CURVE SMOOTH",
"119 492 LINE SMOOTH",
"135.968 597.799 OFFCURVE",
"179 645 OFFCURVE",
"258 645 CURVE SMOOTH",
"343 645 OFFCURVE",
"382 575 OFFCURVE",
"356 470 CURVE SMOOTH",
"355 467 OFFCURVE",
"355.75 466 OFFCURVE",
"358 466 CURVE SMOOTH",
"368 466 LINE SMOOTH",
"370 466 OFFCURVE",
"371 467 OFFCURVE",
"372 470 CURVE SMOOTH",
"401 583 OFFCURVE",
"354 661 OFFCURVE",
"259 661 CURVE SMOOTH",
"170 661 OFFCURVE",
"122.031 609.187 OFFCURVE",
"103 493 CURVE SMOOTH",
"53 181 LINE SMOOTH",
"34 64 OFFCURVE",
"71 -6 OFFCURVE",
"156 -6 CURVE SMOOTH"
);
}
);
width = 391;
},
{
anchors = (
{
name = bottom;
position = "{165, 0}";
},
{
name = top;
position = "{268, 655}";
},
{
name = topleft;
position = "{121, 655}";
}
);
layerId = "F3DD84D5-00FA-4BE1-BE55-069AF9C50450";
paths = (
{
closed = 1;
nodes = (
"214 -6 OFFCURVE",
"249 27 OFFCURVE",
"277 81 CURVE",
"278 81 LINE",
"272 51 OFFCURVE",
"270 28 OFFCURVE",
"269 9 CURVE SMOOTH",
"269 3 OFFCURVE",
"271 0 OFFCURVE",
"278 0 CURVE SMOOTH",
"314 0 LINE SMOOTH",
"319 0 OFFCURVE",
"323 3 OFFCURVE",
"323 9 CURVE SMOOTH",
"324 39 OFFCURVE",
"327 69 OFFCURVE",
"336 128 CURVE SMOOTH",
"367 321 LINE SMOOTH",
"368 326 OFFCURVE",
"366 330 OFFCURVE",
"360 330 CURVE SMOOTH",
"227 330 LINE SMOOTH",
"222 330 OFFCURVE",
"219 327 OFFCURVE",
"218 321 CURVE SMOOTH",
"211 280 LINE SMOOTH",
"210 274 OFFCURVE",
"212 271 OFFCURVE",
"218 271 CURVE SMOOTH",
"299 271 LINE",
"287 204 LINE SMOOTH",
"273 118 OFFCURVE",
"238 55 OFFCURVE",
"167 55 CURVE SMOOTH",
"111 55 OFFCURVE",
"91 99 OFFCURVE",
"105 190 CURVE SMOOTH",
"151 478 LINE SMOOTH",
"165 565 OFFCURVE",
"195 600 OFFCURVE",
"253 600 CURVE SMOOTH",
"320 600 OFFCURVE",
"343 542 OFFCURVE",
"321 456 CURVE SMOOTH",
"319 451 OFFCURVE",
"322 447 OFFCURVE",
"328 447 CURVE SMOOTH",
"374 447 LINE SMOOTH",
"379 447 OFFCURVE",
"381 450 OFFCURVE",
"383 455 CURVE SMOOTH",
"416 574 OFFCURVE",
"367 661 OFFCURVE",
"261 661 CURVE SMOOTH",
"163 661 OFFCURVE",
"109 607 OFFCURVE",
"89 480 CURVE SMOOTH",
"43 186 LINE SMOOTH",
"22 57 OFFCURVE",
"70 -6 OFFCURVE",
"150 -6 CURVE SMOOTH"
);
}
);
width = 397;
}
);
leftKerningGroup = O;
leftMetricsKey = O;
rightKerningGroup = G;
unicode = 0047;
},
{
glyphname = H;
lastChange = "2022-10-25 01:48:04 +0000";
layers = (
{
layerId = "9DFF46AD-73DE-422E-A6A3-16745129C94E";
paths = (
{
closed = 1;
nodes = (
"148 0 LINE SMOOTH",
"156 0 OFFCURVE",
"162 6 OFFCURVE",
"163 15 CURVE SMOOTH",
"202 256 LINE",
"306 256 LINE",
"267 15 LINE SMOOTH",
"265 4 OFFCURVE",
"271 0 OFFCURVE",
"281 0 CURVE SMOOTH",
"413 0 LINE SMOOTH",
"421 0 OFFCURVE",
"427 6 OFFCURVE",
"428 15 CURVE SMOOTH",
"528 640 LINE SMOOTH",
"530 650 OFFCURVE",
"524 655 OFFCURVE",
"515 655 CURVE SMOOTH",
"382 655 LINE SMOOTH",
"373 655 OFFCURVE",
"369 650 OFFCURVE",
"367 640 CURVE SMOOTH",
"329 402 LINE",
"225 402 LINE",
"263 640 LINE SMOOTH",
"265 650 OFFCURVE",
"259 655 OFFCURVE",
"250 655 CURVE SMOOTH",
"117 655 LINE SMOOTH",
"108 655 OFFCURVE",
"104 650 OFFCURVE",
"102 640 CURVE SMOOTH",
"2 15 LINE SMOOTH",
"0 4 OFFCURVE",
"6 0 OFFCURVE",
"16 0 CURVE SMOOTH"
);
}
);
width = 485;
},
{
guideLines = (
{
angle = 90;
position = "{597, 378}";
}
);
layerId = "7BE597F2-1213-4429-94A3-E96FC63EF83E";
paths = (
{
closed = 1;
nodes = (
"47 0 LINE SMOOTH",
"50 0 OFFCURVE",
"51 0 OFFCURVE",
"52 5 CURVE SMOOTH",
"104 331 LINE",
"338 331 LINE",
"286 5 LINE SMOOTH",
"285 0 OFFCURVE",
"287 0 OFFCURVE",
"290 0 CURVE SMOOTH",
"297 0 LINE SMOOTH",
"300 0 OFFCURVE",
"301 0 OFFCURVE",
"302 5 CURVE SMOOTH",
"405 651 LINE SMOOTH",
"406 655 OFFCURVE",
"404 655 OFFCURVE",
"401 655 CURVE SMOOTH",
"394 655 LINE SMOOTH",
"391 655 OFFCURVE",
"390 655 OFFCURVE",
"389 651 CURVE SMOOTH",
"341 347 LINE",
"107 347 LINE",
"155 651 LINE SMOOTH",
"156 655 OFFCURVE",
"154 655 OFFCURVE",
"151 655 CURVE SMOOTH",
"144 655 LINE SMOOTH",
"141 655 OFFCURVE",
"140 655 OFFCURVE",
"139 651 CURVE SMOOTH",
"36 5 LINE SMOOTH",
"35 0 OFFCURVE",
"37 0 OFFCURVE",
"40 0 CURVE SMOOTH"
);
}
);
width = 396;
},
{
layerId = "F3DD84D5-00FA-4BE1-BE55-069AF9C50450";
paths = (
{
closed = 1;
nodes = (
"76 0 LINE SMOOTH",
"81 0 OFFCURVE",
"84 3 OFFCURVE",
"85 9 CURVE SMOOTH",
"133 308 LINE",
"309 308 LINE",
"261 9 LINE SMOOTH",
"260 3 OFFCURVE",
"264 0 OFFCURVE",
"268 0 CURVE SMOOTH",
"314 0 LINE SMOOTH",
"319 0 OFFCURVE",
"322 3 OFFCURVE",
"323 9 CURVE SMOOTH",
"424 646 LINE SMOOTH",
"425 653 OFFCURVE",
"423 655 OFFCURVE",
"417 655 CURVE SMOOTH",
"371 655 LINE SMOOTH",
"366 655 OFFCURVE",
"363 652 OFFCURVE",
"362 646 CURVE SMOOTH",
"318 370 LINE",
"143 370 LINE",
"186 646 LINE SMOOTH",
"187 653 OFFCURVE",
"185 655 OFFCURVE",
"179 655 CURVE SMOOTH",
"134 655 LINE SMOOTH",
"128 655 OFFCURVE",
"125 652 OFFCURVE",
"124 646 CURVE SMOOTH",
"23 9 LINE SMOOTH",
"22 3 OFFCURVE",
"26 0 OFFCURVE",
"30 0 CURVE SMOOTH"
);
}
);
width = 403;
}
);
leftKerningGroup = H;
rightKerningGroup = H;
unicode = 0048;
},
{
glyphname = Hbar;
lastChange = "2022-10-25 01:48:04 +0000";
layers = (
{
components = (
{
name = H;
}
);
layerId = "9DFF46AD-73DE-422E-A6A3-16745129C94E";
paths = (
{
closed = 1;
nodes = (
"79 489 LINE",
"503 489 LINE",
"529 489 LINE SMOOTH",
"537 489 OFFCURVE",
"543 495 OFFCURVE",
"544 504 CURVE SMOOTH",
"556 578 LINE SMOOTH",
"558 588 OFFCURVE",
"553 593 OFFCURVE",
"543 593 CURVE SMOOTH",
"69 593 LINE SMOOTH",
"60 593 OFFCURVE",
"56 588 OFFCURVE",
"54 578 CURVE SMOOTH",
"41 504 LINE SMOOTH",
"39 494 OFFCURVE",
"45 489 OFFCURVE",
"55 489 CURVE SMOOTH"
);
}
);
width = 485;
},
{
components = (
{
name = H;
}
);
layerId = "7BE597F2-1213-4429-94A3-E96FC63EF83E";
paths = (
{
closed = 1;
nodes = (
"126 545 LINE",
"387 545 LINE",
"443 545 LINE SMOOTH",
"445 545 OFFCURVE",
"446 545 OFFCURVE",
"447 548 CURVE SMOOTH",
"449 557 LINE SMOOTH",
"450 561 OFFCURVE",
"448 561 OFFCURVE",
"445 561 CURVE SMOOTH",
"70 561 LINE SMOOTH",
"67 561 OFFCURVE",
"66 561 OFFCURVE",
"65 558 CURVE SMOOTH",
"63 549 LINE SMOOTH",
"62 545 OFFCURVE",
"64 545 OFFCURVE",
"66 545 CURVE SMOOTH"
);
}
);
width = 396;
},
{
components = (
{
alignment = -1;
name = H;
}
);
layerId = "F3DD84D5-00FA-4BE1-BE55-069AF9C50450";
paths = (
{
closed = 1;
nodes = (
"107 522 LINE",
"404 522 LINE",
"441 522 LINE SMOOTH",
"445 522 OFFCURVE",
"448 526 OFFCURVE",
"449 531 CURVE SMOOTH",
"456 572 LINE SMOOTH",
"457 577 OFFCURVE",
"454 580 OFFCURVE",
"448 580 CURVE SMOOTH",
"78 580 LINE SMOOTH",
"73 580 OFFCURVE",
"70 577 OFFCURVE",
"69 572 CURVE SMOOTH",
"63 531 LINE SMOOTH",
"62 526 OFFCURVE",
"66 522 OFFCURVE",
"71 522 CURVE SMOOTH"
);
}
);
width = 403;
}
);
leftKerningGroup = H;
rightKerningGroup = H;
unicode = 0126;
},
{
glyphname = I;
lastChange = "2022-10-25 01:48:04 +0000";
layers = (
{
anchors = (
{
name = bottom;
position = "{81, 0}";
},
{
name = ogonek;
position = "{164, 10}";
},
{
name = top;
position = "{187, 655}";
},
{
name = topleft;
position = "{93, 655}";
}
);
layerId = "9DFF46AD-73DE-422E-A6A3-16745129C94E";
paths = (
{
closed = 1;
nodes = (
"148 0 LINE SMOOTH",
"156 0 OFFCURVE",
"162 6 OFFCURVE",
"163 15 CURVE SMOOTH",
"263 640 LINE SMOOTH",
"265 650 OFFCURVE",
"259 655 OFFCURVE",
"250 655 CURVE SMOOTH",
"117 655 LINE SMOOTH",
"108 655 OFFCURVE",
"104 650 OFFCURVE",
"102 640 CURVE SMOOTH",
"2 15 LINE SMOOTH",
"0 4 OFFCURVE",
"6 0 OFFCURVE",
"16 0 CURVE SMOOTH"
);
}
);
width = 220;
},
{
anchors = (
{
name = bottom;
position = "{43, 0}";
},
{
name = ogonek;
position = "{55, 10}";
},
{
name = top;
position = "{147, 655}";
},
{
name = topleft;
position = "{104, 655}";
}
);
layerId = "7BE597F2-1213-4429-94A3-E96FC63EF83E";
paths = (
{
closed = 1;
nodes = (
"47 0 LINE SMOOTH",
"50 0 OFFCURVE",
"51 0 OFFCURVE",
"52 5 CURVE SMOOTH",
"155 651 LINE SMOOTH",
"156 655 OFFCURVE",
"154 655 OFFCURVE",
"151 655 CURVE SMOOTH",
"144 655 LINE SMOOTH",
"141 655 OFFCURVE",
"140 655 OFFCURVE",
"139 651 CURVE SMOOTH",
"36 5 LINE SMOOTH",
"35 0 OFFCURVE",
"37 0 OFFCURVE",
"40 0 CURVE SMOOTH"
);
}
);
width = 146;
},
{
anchors = (
{
name = bottom;
position = "{54, 0}";
},
{
name = ogonek;
position = "{83, 10}";
},
{
name = top;
position = "{158, 655}";
},
{
name = topleft;
position = "{95, 655}";
}
);
layerId = "F3DD84D5-00FA-4BE1-BE55-069AF9C50450";
paths = (
{
closed = 1;
nodes = (
"76 0 LINE SMOOTH",
"81 0 OFFCURVE",
"84 3 OFFCURVE",
"85 9 CURVE SMOOTH",
"186 646 LINE SMOOTH",
"187 653 OFFCURVE",
"185 655 OFFCURVE",
"179 655 CURVE SMOOTH",
"134 655 LINE SMOOTH",
"128 655 OFFCURVE",
"125 652 OFFCURVE",
"124 646 CURVE SMOOTH",
"23 9 LINE SMOOTH",
"22 3 OFFCURVE",
"26 0 OFFCURVE",
"30 0 CURVE SMOOTH"
);
}
);
width = 165;
}
);
leftKerningGroup = H;
leftMetricsKey = H;
rightKerningGroup = H;
rightMetricsKey = H;
unicode = 0049;
},
{
glyphname = J;
lastChange = "2022-10-25 01:48:04 +0000";
layers = (
{
anchors = (
{
name = bottom;
position = "{84, 0}";
},
{
name = top;
position = "{188, 655}";
}
);
layerId = "9DFF46AD-73DE-422E-A6A3-16745129C94E";
paths = (
{
closed = 1;
nodes = (
"87 -146 OFFCURVE",
"150 -78 OFFCURVE",
"176 88 CURVE SMOOTH",
"264 641 LINE SMOOTH",
"265 649 OFFCURVE",
"262 655 OFFCURVE",
"255 655 CURVE SMOOTH",
"116 655 LINE SMOOTH",
"109 655 OFFCURVE",
"103 649 OFFCURVE",
"102 641 CURVE SMOOTH",
"13 83 LINE SMOOTH",
"0 2 OFFCURVE",
"-14 -18 OFFCURVE",
"-49 -29 CURVE SMOOTH",
"-56 -31 OFFCURVE",
"-59 -39 OFFCURVE",
"-58 -48 CURVE SMOOTH",
"-42 -154 LINE SMOOTH",
"-41 -163 OFFCURVE",
"-37 -169 OFFCURVE",
"-26 -167 CURVE SMOOTH"
);
}
);
width = 221;
},
{
anchors = (
{
name = bottom;
position = "{43, 0}";
},
{
name = top;
position = "{147, 655}";
}
);
layerId = "7BE597F2-1213-4429-94A3-E96FC63EF83E";
paths = (
{
closed = 1;
nodes = (
"14 -115 OFFCURVE",
"39 -76 OFFCURVE",
"61 62 CURVE SMOOTH",
"155 651 LINE SMOOTH",
"156 655 OFFCURVE",
"154 655 OFFCURVE",
"151 655 CURVE SMOOTH",
"144 655 LINE SMOOTH",
"141 655 OFFCURVE",
"140 655 OFFCURVE",
"139 651 CURVE SMOOTH",
"45 62 LINE SMOOTH",
"24 -68 OFFCURVE",
"1 -102 OFFCURVE",
"-43 -123 CURVE SMOOTH",
"-45 -124 OFFCURVE",
"-46 -125 OFFCURVE",
"-45 -128 CURVE SMOOTH",
"-43 -136 LINE SMOOTH",
"-42 -139 OFFCURVE",
"-41 -139 OFFCURVE",
"-38 -138 CURVE SMOOTH"
);
}
);
width = 146;
},
{
anchors = (
{
name = bottom;
position = "{53, 0}";
},
{
name = top;
position = "{157, 655}";
}
);
layerId = "F3DD84D5-00FA-4BE1-BE55-069AF9C50450";
paths = (
{
closed = 1;
nodes = (
"33 -121 OFFCURVE",
"71 -80 OFFCURVE",
"95 68 CURVE SMOOTH",
"186 646 LINE SMOOTH",
"187 653 OFFCURVE",
"185 655 OFFCURVE",
"179 655 CURVE SMOOTH",
"134 655 LINE SMOOTH",
"128 655 OFFCURVE",
"125 652 OFFCURVE",
"124 646 CURVE SMOOTH",
"32 67 LINE SMOOTH",
"16 -34 OFFCURVE",
"-5 -62 OFFCURVE",
"-40 -73 CURVE SMOOTH",
"-47 -75 OFFCURVE",
"-48 -79 OFFCURVE",
"-47 -86 CURVE SMOOTH",
"-41 -132 LINE SMOOTH",
"-40 -138 OFFCURVE",
"-38 -140 OFFCURVE",
"-30 -138 CURVE SMOOTH"
);
}
);
width = 166;
}
);
leftKerningGroup = J;
rightKerningGroup = J;
rightMetricsKey = H;
unicode = 004A;
},
{
glyphname = K;
lastChange = "2022-10-25 01:48:04 +0000";
layers = (
{
anchors = (
{
name = bottom;
position = "{203, 0}";
},
{
name = top;
position = "{314, 655}";
}
);
layerId = "9DFF46AD-73DE-422E-A6A3-16745129C94E";
paths = (
{
closed = 1;
nodes = (
"148 0 LINE SMOOTH",
"156 0 OFFCURVE",
"162 6 OFFCURVE",
"163 15 CURVE SMOOTH",
"191 187 LINE",
"228 239 LINE",
"272 15 LINE SMOOTH",
"274 5 OFFCURVE",
"279 0 OFFCURVE",
"287 0 CURVE SMOOTH",
"431 0 LINE SMOOTH",
"440 0 OFFCURVE",
"446 6 OFFCURVE",
"444 15 CURVE SMOOTH",
"363 356 LINE",
"529 640 LINE SMOOTH",
"534 648 OFFCURVE",
"529 655 OFFCURVE",
"521 655 CURVE SMOOTH",
"371 655 LINE SMOOTH",
"362 655 OFFCURVE",
"358 651 OFFCURVE",
"352 640 CURVE SMOOTH",
"304 551 LINE SMOOTH",
"276 499 OFFCURVE",
"246 442 OFFCURVE",
"219 388 CURVE",
"217 388 LINE",
"230 443 OFFCURVE",
"240 497 OFFCURVE",
"249 552 CURVE SMOOTH",
"263 640 LINE SMOOTH",
"265 650 OFFCURVE",
"259 655 OFFCURVE",
"250 655 CURVE SMOOTH",
"117 655 LINE SMOOTH",
"108 655 OFFCURVE",
"104 650 OFFCURVE",
"102 640 CURVE SMOOTH",
"2 15 LINE SMOOTH",
"0 4 OFFCURVE",
"6 0 OFFCURVE",
"16 0 CURVE SMOOTH"
);
}
);
width = 473;
},
{
anchors = (
{
name = bottom;
position = "{151, 0}";
},
{
name = top;
position = "{248, 655}";
}
);
layerId = "7BE597F2-1213-4429-94A3-E96FC63EF83E";
paths = (
{
closed = 1;
nodes = (
"47 0 LINE SMOOTH",
"50 0 OFFCURVE",
"51 0 OFFCURVE",
"52 5 CURVE SMOOTH",
"84 208 LINE",
"189 362 LINE",
"283 3 LINE SMOOTH",
"284 0 OFFCURVE",
"285 0 OFFCURVE",
"287 0 CURVE SMOOTH",
"297 0 LINE SMOOTH",
"299 0 OFFCURVE",
"300 1 OFFCURVE",
"299 4 CURVE SMOOTH",
"201 380 LINE",
"386 651 LINE SMOOTH",
"388 654 OFFCURVE",
"386 655 OFFCURVE",
"384 655 CURVE SMOOTH",
"373 655 LINE SMOOTH",
"371 655 OFFCURVE",
"370 655 OFFCURVE",
"368 652 CURVE SMOOTH",
"169 360 LINE SMOOTH",
"142 320 OFFCURVE",
"117 281 OFFCURVE",
"91 241 CURVE",
"90 241 LINE",
"97 281 OFFCURVE",
"103 322 OFFCURVE",
"109 362 CURVE SMOOTH",
"155 651 LINE SMOOTH",
"156 655 OFFCURVE",
"154 655 OFFCURVE",
"151 655 CURVE SMOOTH",
"144 655 LINE SMOOTH",
"141 655 OFFCURVE",
"140 655 OFFCURVE",
"139 651 CURVE SMOOTH",
"36 5 LINE SMOOTH",
"35 0 OFFCURVE",
"37 0 OFFCURVE",
"40 0 CURVE SMOOTH"
);
}
);
width = 333;
},
{
anchors = (
{
name = bottom;
position = "{163, 0}";
},
{
name = top;
position = "{259, 655}";
}
);
layerId = "F3DD84D5-00FA-4BE1-BE55-069AF9C50450";
paths = (
{
closed = 1;
nodes = (
"76 0 LINE SMOOTH",
"81 0 OFFCURVE",
"84 3 OFFCURVE",
"85 9 CURVE SMOOTH",
"117 206 LINE",
"194 320 LINE",
"262 9 LINE SMOOTH",
"263 3 OFFCURVE",
"266 0 OFFCURVE",
"271 0 CURVE SMOOTH",
"320 0 LINE SMOOTH",
"326 0 OFFCURVE",
"328 3 OFFCURVE",
"327 9 CURVE",
"242 384 LINE",
"416 646 LINE",
"419 651 OFFCURVE",
"417 655 OFFCURVE",
"411 655 CURVE SMOOTH",
"358 655 LINE SMOOTH",
"352 655 OFFCURVE",
"348 652 OFFCURVE",
"345 646 CURVE SMOOTH",
"204 430 LINE SMOOTH",
"178 390 OFFCURVE",
"157 354 OFFCURVE",
"134 312 CURVE",
"132 312 LINE",
"140 355 OFFCURVE",
"147 393 OFFCURVE",
"153 431 CURVE SMOOTH",
"186 646 LINE SMOOTH",
"187 653 OFFCURVE",
"185 655 OFFCURVE",
"179 655 CURVE SMOOTH",
"134 655 LINE SMOOTH",
"128 655 OFFCURVE",
"125 652 OFFCURVE",
"124 646 CURVE SMOOTH",
"23 9 LINE SMOOTH",
"22 3 OFFCURVE",
"26 0 OFFCURVE",
"30 0 CURVE SMOOTH"
);
}
);
width = 360;
}
);
leftKerningGroup = H;
leftMetricsKey = H;
rightKerningGroup = K;
unicode = 004B;
},
{
glyphname = L;
lastChange = "2022-10-25 01:48:04 +0000";
layers = (
{
anchors = (
{
name = bottom;
position = "{163, 0}";
},
{
name = center;
position = "{203, 328}";
},
{
name = top;
position = "{185, 655}";
},
{
name = topright;
position = "{440, 655}";
}
);
layerId = "9DFF46AD-73DE-422E-A6A3-16745129C94E";
paths = (
{
closed = 1;
nodes = (
"313 0 LINE SMOOTH",
"322 0 OFFCURVE",
"327 6 OFFCURVE",
"328 15 CURVE SMOOTH",
"346 131 LINE SMOOTH",
"348 141 OFFCURVE",
"342 146 OFFCURVE",
"332 146 CURVE SMOOTH",
"184 146 LINE",
"263 640 LINE SMOOTH",
"265 650 OFFCURVE",
"259 655 OFFCURVE",
"250 655 CURVE SMOOTH",
"117 655 LINE SMOOTH",
"108 655 OFFCURVE",
"104 650 OFFCURVE",
"102 640 CURVE SMOOTH",
"2 15 LINE SMOOTH",
"0 5 OFFCURVE",
"6 0 OFFCURVE",
"15 0 CURVE SMOOTH"
);
}
);
width = 365;
},
{
anchors = (
{
name = bottom;
position = "{143, 0}";
},
{
name = center;
position = "{179, 328}";
},
{
name = top;
position = "{148, 655}";
},
{
name = topright;
position = "{364, 655}";
}
);
layerId = "7BE597F2-1213-4429-94A3-E96FC63EF83E";
paths = (
{
closed = 1;
nodes = (
"237 0 LINE SMOOTH",
"240 0 OFFCURVE",
"241 0 OFFCURVE",
"242 3 CURVE SMOOTH",
"244 12 LINE SMOOTH",
"245 16 OFFCURVE",
"243 16 OFFCURVE",
"241 16 CURVE SMOOTH",
"54 16 LINE",
"155 651 LINE SMOOTH",
"156 655 OFFCURVE",
"154 655 OFFCURVE",
"151 655 CURVE SMOOTH",
"144 655 LINE SMOOTH",
"141 655 OFFCURVE",
"140 655 OFFCURVE",
"139 651 CURVE SMOOTH",
"36 4 LINE SMOOTH",
"35 0 OFFCURVE",
"37 0 OFFCURVE",
"40 0 CURVE SMOOTH"
);
}
);
width = 286;
},
{
anchors = (
{
name = bottom;
position = "{139, 0}";
},
{
name = center;
position = "{181, 351}";
},
{
name = top;
position = "{158, 655}";
},
{
name = topright;
position = "{361, 655}";
}
);
layerId = "F3DD84D5-00FA-4BE1-BE55-069AF9C50450";
paths = (
{
closed = 1;
nodes = (
"243 0 LINE SMOOTH",
"249 0 OFFCURVE",
"251 3 OFFCURVE",
"252 9 CURVE SMOOTH",
"260 52 LINE SMOOTH",
"261 58 OFFCURVE",
"258 61 OFFCURVE",
"252 61 CURVE SMOOTH",
"94 61 LINE",
"186 646 LINE SMOOTH",
"187 653 OFFCURVE",
"185 655 OFFCURVE",
"179 655 CURVE SMOOTH",
"134 655 LINE SMOOTH",
"128 655 OFFCURVE",
"125 652 OFFCURVE",
"124 646 CURVE SMOOTH",
"23 9 LINE SMOOTH",
"22 3 OFFCURVE",
"26 0 OFFCURVE",
"30 0 CURVE SMOOTH"
);
}
);
width = 296;
}
);
leftKerningGroup = H;
leftMetricsKey = H;
rightKerningGroup = L;
unicode = 004C;
},
{
glyphname = Lslash;
lastChange = "2022-10-25 01:48:04 +0000";
layers = (
{
components = (
{
name = L;
transform = "{1, 0, 0, 1, 7, 0}";
}
);
layerId = "9DFF46AD-73DE-422E-A6A3-16745129C94E";
paths = (
{
closed = 1;
nodes = (
"285 340 LINE SMOOTH",
"293 343 OFFCURVE",
"299 349 OFFCURVE",
"300 357 CURVE SMOOTH",
"316 452 LINE SMOOTH",
"318 462 OFFCURVE",
"311 466 OFFCURVE",
"302 463 CURVE SMOOTH",
"41 361 LINE SMOOTH",
"32 358 OFFCURVE",
"28 353 OFFCURVE",
"27 345 CURVE SMOOTH",
"12 250 LINE SMOOTH",
"10 239 OFFCURVE",
"18 237 OFFCURVE",
"26 240 CURVE SMOOTH"
);
}
);
width = 372;
},
{
components = (
{
name = L;
}
);
layerId = "7BE597F2-1213-4429-94A3-E96FC63EF83E";
paths = (
{
closed = 1;
nodes = (
"215 406 LINE SMOOTH",
"218 408 OFFCURVE",
"218 408 OFFCURVE",
"219 413 CURVE SMOOTH",
"220 420 LINE SMOOTH",
"221 425 OFFCURVE",
"218 425 OFFCURVE",
"214 422 CURVE SMOOTH",
"21 297 LINE SMOOTH",
"18 295 OFFCURVE",
"17 294 OFFCURVE",
"16 289 CURVE SMOOTH",
"15 282 LINE SMOOTH",
"14 277 OFFCURVE",
"17 278 OFFCURVE",
"20 280 CURVE SMOOTH"
);
}
);
width = 286;
},
{
components = (
{
alignment = -1;
name = L;
}
);
layerId = "F3DD84D5-00FA-4BE1-BE55-069AF9C50450";
paths = (
{
closed = 1;
nodes = (
"228 398 LINE SMOOTH",
"233 401 OFFCURVE",
"235 404 OFFCURVE",
"236 409 CURVE SMOOTH",
"243 456 LINE SMOOTH",
"244 461 OFFCURVE",
"240 463 OFFCURVE",
"235 460 CURVE SMOOTH",
"25 331 LINE SMOOTH",
"20 328 OFFCURVE",
"18 325 OFFCURVE",
"17 320 CURVE SMOOTH",
"9 272 LINE SMOOTH",
"8 267 OFFCURVE",
"11 264 OFFCURVE",
"17 268 CURVE SMOOTH"
);
}
);
width = 296;
}
);
leftKerningGroup = Lslash;
rightKerningGroup = L;
rightMetricsKey = "=L";
unicode = 0141;
},
{
glyphname = M;
lastChange = "2022-10-25 01:48:04 +0000";
layers = (
{
layerId = "9DFF46AD-73DE-422E-A6A3-16745129C94E";
paths = (
{
closed = 1;
nodes = (
"141 0 LINE SMOOTH",
"149 0 OFFCURVE",
"155 6 OFFCURVE",
"156 15 CURVE SMOOTH",
"184 187 LINE SMOOTH",
"196 262 OFFCURVE",
"203 326 OFFCURVE",
"206 384 CURVE",
"208 384 LINE",
"213 341 OFFCURVE",
"221 296 OFFCURVE",
"230 254 CURVE SMOOTH",
"266 80 LINE SMOOTH",
"267 73 OFFCURVE",
"271 71 OFFCURVE",
"276 71 CURVE SMOOTH",
"279 71 LINE SMOOTH",
"284 71 OFFCURVE",
"287 73 OFFCURVE",
"291 80 CURVE SMOOTH",
"382 254 LINE SMOOTH",
"404 296 OFFCURVE",
"426 341 OFFCURVE",
"446 384 CURVE",
"448 384 LINE",
"433 325 OFFCURVE",
"415 238 OFFCURVE",
"407 187 CURVE SMOOTH",
"380 15 LINE SMOOTH",
"378 4 OFFCURVE",
"384 0 OFFCURVE",
"394 0 CURVE SMOOTH",
"526 0 LINE SMOOTH",
"534 0 OFFCURVE",
"540 6 OFFCURVE",
"541 15 CURVE SMOOTH",
"632 640 LINE SMOOTH",
"633 650 OFFCURVE",
"627 655 OFFCURVE",
"618 655 CURVE SMOOTH",
"463 655 LINE SMOOTH",
"456 655 OFFCURVE",
"452 650 OFFCURVE",
"448 640 CURVE SMOOTH",
"319 357 LINE",
"286 640 LINE SMOOTH",
"285 650 OFFCURVE",
"280 655 OFFCURVE",
"271 655 CURVE SMOOTH",
"118 655 LINE SMOOTH",
"109 655 OFFCURVE",
"105 650 OFFCURVE",
"103 640 CURVE SMOOTH",
"-5 15 LINE SMOOTH",
"-7 4 OFFCURVE",
"-1 0 OFFCURVE",
"9 0 CURVE SMOOTH"
);
}
);
width = 591;
},
{
layerId = "7BE597F2-1213-4429-94A3-E96FC63EF83E";
paths = (
{
closed = 1;
nodes = (
"40 0 LINE SMOOTH",
"43 0 OFFCURVE",
"44 0 OFFCURVE",
"45 5 CURVE SMOOTH",
"133 515 LINE SMOOTH",
"140 556 OFFCURVE",
"145 589 OFFCURVE",
"152 631 CURVE",
"153 631 LINE",
"158 593 OFFCURVE",
"163 557 OFFCURVE",
"168 520 CURVE SMOOTH",
"222 131 LINE SMOOTH",
"222 128 OFFCURVE",
"223 128 OFFCURVE",
"224 128 CURVE SMOOTH",
"226 128 LINE SMOOTH",
"227 128 OFFCURVE",
"228 128 OFFCURVE",
"229 131 CURVE SMOOTH",
"404 514 LINE SMOOTH",
"422 553 OFFCURVE",
"439 591 OFFCURVE",
"457 631 CURVE",
"458 631 LINE",
"452 590 OFFCURVE",
"445 549 OFFCURVE",
"439 508 CURVE SMOOTH",
"366 5 LINE SMOOTH",
"365 0 OFFCURVE",
"367 0 OFFCURVE",
"370 0 CURVE SMOOTH",
"377 0 LINE SMOOTH",
"380 0 OFFCURVE",
"381 0 OFFCURVE",
"382 5 CURVE SMOOTH",
"476 650 LINE SMOOTH",
"477 655 OFFCURVE",
"474 655 OFFCURVE",
"471 655 CURVE SMOOTH",
"456 655 LINE SMOOTH",
"452 655 OFFCURVE",
"452 655 OFFCURVE",
"450 651 CURVE SMOOTH",
"232 174 LINE",
"166 651 LINE SMOOTH",
"165 655 OFFCURVE",
"164 655 OFFCURVE",
"161 655 CURVE SMOOTH",
"146 655 LINE SMOOTH",
"143 655 OFFCURVE",
"142 655 OFFCURVE",
"141 651 CURVE SMOOTH",
"29 5 LINE SMOOTH",
"28 0 OFFCURVE",
"30 0 OFFCURVE",
"33 0 CURVE SMOOTH"
);
}
);
width = 468;
},
{
layerId = "F3DD84D5-00FA-4BE1-BE55-069AF9C50450";
paths = (
{
closed = 1;
nodes = (
"68 0 LINE SMOOTH",
"73 0 OFFCURVE",
"76 3 OFFCURVE",
"77 9 CURVE SMOOTH",
"149 433 LINE SMOOTH",
"155 472 OFFCURVE",
"163 519 OFFCURVE",
"168 562 CURVE",
"170 562 LINE",
"172 521 OFFCURVE",
"176 475 OFFCURVE",
"179 438 CURVE SMOOTH",
"214 100 LINE SMOOTH",
"214 95 OFFCURVE",
"217 93 OFFCURVE",
"220 93 CURVE SMOOTH",
"224 93 LINE SMOOTH",
"228 93 OFFCURVE",
"232 95 OFFCURVE",
"234 100 CURVE SMOOTH",
"377 439 LINE SMOOTH",
"394 480 OFFCURVE",
"410 521 OFFCURVE",
"425 562 CURVE",
"427 562 LINE",
"418 519 OFFCURVE",
"410 471 OFFCURVE",
"404 431 CURVE SMOOTH",
"342 9 LINE SMOOTH",
"341 3 OFFCURVE",
"344 0 OFFCURVE",
"349 0 CURVE SMOOTH",
"395 0 LINE SMOOTH",
"399 0 OFFCURVE",
"402 3 OFFCURVE",
"403 9 CURVE SMOOTH",
"496 646 LINE SMOOTH",
"497 653 OFFCURVE",
"494 655 OFFCURVE",
"488 655 CURVE SMOOTH",
"414 655 LINE SMOOTH",
"408 655 OFFCURVE",
"407 653 OFFCURVE",
"404 646 CURVE SMOOTH",
"250 259 LINE",
"217 646 LINE SMOOTH",
"217 653 OFFCURVE",
"213 655 OFFCURVE",
"208 655 CURVE SMOOTH",
"134 655 LINE SMOOTH",
"128 655 OFFCURVE",
"126 653 OFFCURVE",
"125 646 CURVE SMOOTH",
"15 9 LINE SMOOTH",
"14 3 OFFCURVE",
"18 0 OFFCURVE",
"23 0 CURVE SMOOTH"
);
}
);
width = 474;
}
);
leftKerningGroup = M;
rightKerningGroup = M;
unicode = 004D;
},
{
glyphname = N;
lastChange = "2022-10-25 01:48:04 +0000";
layers = (
{
anchors = (
{
name = bottom;
position = "{214, 0}";
},
{
name = top;
position = "{317, 655}";
}
);
layerId = "9DFF46AD-73DE-422E-A6A3-16745129C94E";
rightMetricsKey = "=H";
paths = (
{
closed = 1;
nodes = (
"141 0 LINE SMOOTH",
"149 0 OFFCURVE",
"155 6 OFFCURVE",
"156 15 CURVE SMOOTH",
"182 179 LINE SMOOTH",
"193 248 OFFCURVE",
"203 349 OFFCURVE",
"205 412 CURVE",
"207 412 LINE",
"210 365 OFFCURVE",
"216 278 OFFCURVE",
"228 184 CURVE SMOOTH",
"250 15 LINE SMOOTH",
"251 4 OFFCURVE",
"255 0 OFFCURVE",
"265 0 CURVE SMOOTH",
"414 0 LINE SMOOTH",
"422 0 OFFCURVE",
"428 6 OFFCURVE",
"429 15 CURVE SMOOTH",
"529 640 LINE SMOOTH",
"531 650 OFFCURVE",
"525 655 OFFCURVE",
"516 655 CURVE SMOOTH",
"390 655 LINE SMOOTH",
"381 655 OFFCURVE",
"377 650 OFFCURVE",
"375 640 CURVE SMOOTH",
"347 467 LINE SMOOTH",
"337 406 OFFCURVE",
"328 305 OFFCURVE",
"325 236 CURVE",
"323 236 LINE",
"319 285 OFFCURVE",
"315 322 OFFCURVE",
"311 363 CURVE SMOOTH",
"281 640 LINE SMOOTH",
"280 650 OFFCURVE",
"275 655 OFFCURVE",
"266 655 CURVE SMOOTH",
"117 655 LINE SMOOTH",
"108 655 OFFCURVE",
"104 651 OFFCURVE",
"102 640 CURVE SMOOTH",
"2 15 LINE SMOOTH",
"0 4 OFFCURVE",
"5 0 OFFCURVE",
"15 0 CURVE SMOOTH"
);
}
);
width = 486;
},
{
anchors = (
{
name = bottom;
position = "{171, 0}";
},
{
name = top;
position = "{274, 655}";
}
);
guideLines = (
{
position = "{399, 245}";
},
{
position = "{372, 386}";
}
);
layerId = "7BE597F2-1213-4429-94A3-E96FC63EF83E";
paths = (
{
closed = 1;
nodes = (
"47 0 LINE SMOOTH",
"50 0 OFFCURVE",
"51 0 OFFCURVE",
"52 5 CURVE",
"112 385 LINE SMOOTH",
"125 468 OFFCURVE",
"138 551 OFFCURVE",
"151 634 CURVE",
"152 634 LINE",
"169 551 OFFCURVE",
"186 469 OFFCURVE",
"203 386 CURVE SMOOTH",
"281 3 LINE SMOOTH",
"282 0 OFFCURVE",
"283 0 OFFCURVE",
"285 0 CURVE SMOOTH",
"301 0 LINE SMOOTH",
"304 0 OFFCURVE",
"305 0 OFFCURVE",
"306 4 CURVE SMOOTH",
"409 651 LINE SMOOTH",
"410 655 OFFCURVE",
"408 655 OFFCURVE",
"405 655 CURVE SMOOTH",
"398 655 LINE SMOOTH",
"395 655 OFFCURVE",
"394 655 OFFCURVE",
"393 651 CURVE SMOOTH",
"329 245 LINE SMOOTH",
"317 170 OFFCURVE",
"305 96 OFFCURVE",
"293 21 CURVE",
"292 21 LINE",
"277 97 OFFCURVE",
"261 174 OFFCURVE",
"246 250 CURVE SMOOTH",
"163 651 LINE SMOOTH",
"162 654 OFFCURVE",
"161 655 OFFCURVE",
"158 655 CURVE SMOOTH",
"144 655 LINE SMOOTH",
"141 655 OFFCURVE",
"140 655 OFFCURVE",
"139 651 CURVE SMOOTH",
"36 5 LINE SMOOTH",
"35 0 OFFCURVE",
"37 0 OFFCURVE",
"40 0 CURVE SMOOTH"
);
}
);
width = 400;
},
{
anchors = (
{
name = bottom;
position = "{173, 0}";
},
{
name = top;
position = "{276, 655}";
}
);
layerId = "F3DD84D5-00FA-4BE1-BE55-069AF9C50450";
paths = (
{
closed = 1;
nodes = (
"75 0 LINE SMOOTH",
"80 0 OFFCURVE",
"83 3 OFFCURVE",
"84 9 CURVE SMOOTH",
"142 375 LINE SMOOTH",
"152 439 OFFCURVE",
"162 513 OFFCURVE",
"170 573 CURVE",
"171 573 LINE",
"176 515 OFFCURVE",
"182 440 OFFCURVE",
"189 378 CURVE SMOOTH",
"233 9 LINE SMOOTH",
"234 3 OFFCURVE",
"236 0 OFFCURVE",
"241 0 CURVE SMOOTH",
"316 0 LINE SMOOTH",
"321 0 OFFCURVE",
"324 3 OFFCURVE",
"325 9 CURVE SMOOTH",
"427 646 LINE SMOOTH",
"428 653 OFFCURVE",
"424 655 OFFCURVE",
"419 655 CURVE SMOOTH",
"375 655 LINE SMOOTH",
"369 655 OFFCURVE",
"367 652 OFFCURVE",
"366 646 CURVE SMOOTH",
"305 264 LINE SMOOTH",
"296 211 OFFCURVE",
"287 135 OFFCURVE",
"281 82 CURVE",
"279 82 LINE",
"275 138 OFFCURVE",
"271 207 OFFCURVE",
"264 261 CURVE SMOOTH",
"218 646 LINE SMOOTH",
"217 652 OFFCURVE",
"214 655 OFFCURVE",
"209 655 CURVE SMOOTH",
"134 655 LINE SMOOTH",
"128 655 OFFCURVE",
"125 652 OFFCURVE",
"124 646 CURVE SMOOTH",
"23 9 LINE SMOOTH",
"22 3 OFFCURVE",
"26 0 OFFCURVE",
"31 0 CURVE SMOOTH"
);
}
);
width = 406;
}
);
leftKerningGroup = H;
leftMetricsKey = H;
rightKerningGroup = H;
rightMetricsKey = H;
unicode = 004E;
},
{
glyphname = Eng;
lastChange = "2022-10-25 01:48:04 +0000";
layers = (
{
layerId = "9DFF46AD-73DE-422E-A6A3-16745129C94E";
paths = (
{
closed = 1;
nodes = (
"392 -120 OFFCURVE",
"417 -63 OFFCURVE",
"441 87 CURVE SMOOTH",
"530 640 LINE SMOOTH",
"532 650 OFFCURVE",
"526 655 OFFCURVE",
"517 655 CURVE SMOOTH",
"391 655 LINE SMOOTH",
"382 655 OFFCURVE",
"378 650 OFFCURVE",
"376 640 CURVE SMOOTH",
"348 467 LINE SMOOTH",
"337 396 OFFCURVE",
"328 305 OFFCURVE",
"326 236 CURVE",
"323 236 LINE",
"319 285 OFFCURVE",
"315 322 OFFCURVE",
"311 363 CURVE SMOOTH",
"281 640 LINE SMOOTH",
"280 650 OFFCURVE",
"275 655 OFFCURVE",
"266 655 CURVE SMOOTH",
"117 655 LINE SMOOTH",
"108 655 OFFCURVE",
"104 651 OFFCURVE",
"102 640 CURVE SMOOTH",
"2 15 LINE SMOOTH",
"0 4 OFFCURVE",
"5 0 OFFCURVE",
"15 0 CURVE SMOOTH",
"141 0 LINE SMOOTH",
"149 0 OFFCURVE",
"155 6 OFFCURVE",
"156 15 CURVE SMOOTH",
"182 179 LINE SMOOTH",
"193 248 OFFCURVE",
"203 349 OFFCURVE",
"205 412 CURVE",
"207 412 LINE",
"210 365 OFFCURVE",
"216 278 OFFCURVE",
"228 184 CURVE SMOOTH",
"250 15 LINE SMOOTH",
"251 4 OFFCURVE",
"255 0 OFFCURVE",
"265 0 CURVE SMOOTH",
"272 0 LINE",
"264 -35 OFFCURVE",
"244 -57 OFFCURVE",
"218 -76 CURVE SMOOTH",
"211 -81 OFFCURVE",
"211 -89 OFFCURVE",
"215 -95 CURVE SMOOTH",
"277 -183 LINE SMOOTH",
"280 -188 OFFCURVE",
"287 -190 OFFCURVE",
"293 -186 CURVE SMOOTH"
);
}
);
width = 487;
},
{
layerId = "7BE597F2-1213-4429-94A3-E96FC63EF83E";
paths = (
{
closed = 1;
nodes = (
"265 -113 OFFCURVE",
"294 -67 OFFCURVE",
"310 29 CURVE SMOOTH",
"409 651 LINE SMOOTH",
"410 655 OFFCURVE",
"408 655 OFFCURVE",
"405 655 CURVE SMOOTH",
"398 655 LINE SMOOTH",
"395 655 OFFCURVE",
"394 655 OFFCURVE",
"393 651 CURVE SMOOTH",
"312 137 LINE SMOOTH",
"306 98 OFFCURVE",
"299 60 OFFCURVE",
"293 21 CURVE",
"292 21 LINE",
"285 59 OFFCURVE",
"278 97 OFFCURVE",
"270 135 CURVE SMOOTH",
"163 651 LINE SMOOTH",
"162 654 OFFCURVE",
"161 655 OFFCURVE",
"158 655 CURVE SMOOTH",
"144 655 LINE SMOOTH",
"141 655 OFFCURVE",
"140 655 OFFCURVE",
"139 651 CURVE SMOOTH",
"36 5 LINE SMOOTH",
"35 0 OFFCURVE",
"37 0 OFFCURVE",
"40 0 CURVE SMOOTH",
"47 0 LINE SMOOTH",
"50 0 OFFCURVE",
"51 0 OFFCURVE",
"52 5 CURVE SMOOTH",
"132 509 LINE SMOOTH",
"138 551 OFFCURVE",
"145 592 OFFCURVE",
"151 634 CURVE",
"152 634 LINE",
"160 594 OFFCURVE",
"168 554 OFFCURVE",
"176 514 CURVE SMOOTH",
"282 3 LINE SMOOTH",
"283 0 OFFCURVE",
"284 0 OFFCURVE",
"286 0 CURVE SMOOTH",
"289 0 LINE",
"272 -69 OFFCURVE",
"242 -110 OFFCURVE",
"180 -155 CURVE SMOOTH",
"178 -156 OFFCURVE",
"178 -157 OFFCURVE",
"179 -159 CURVE SMOOTH",
"184 -168 LINE SMOOTH",
"185 -170 OFFCURVE",
"187 -170 OFFCURVE",
"189 -168 CURVE SMOOTH"
);
}
);
width = 400;
},
{
layerId = "F3DD84D5-00FA-4BE1-BE55-069AF9C50450";
paths = (
{
closed = 1;
nodes = (
"284 -153 OFFCURVE",
"311 -73 OFFCURVE",
"331 47 CURVE SMOOTH",
"427 646 LINE SMOOTH",
"428 653 OFFCURVE",
"424 655 OFFCURVE",
"419 655 CURVE SMOOTH",
"375 655 LINE SMOOTH",
"369 655 OFFCURVE",
"367 652 OFFCURVE",
"366 646 CURVE SMOOTH",
"302 244 LINE SMOOTH",
"294 197 OFFCURVE",
"286 128 OFFCURVE",
"281 82 CURVE",
"279 82 LINE",
"277 131 OFFCURVE",
"274 192 OFFCURVE",
"268 242 CURVE SMOOTH",
"218 646 LINE SMOOTH",
"217 652 OFFCURVE",
"214 655 OFFCURVE",
"209 655 CURVE SMOOTH",
"134 655 LINE SMOOTH",
"128 655 OFFCURVE",
"125 652 OFFCURVE",
"124 646 CURVE SMOOTH",
"23 9 LINE SMOOTH",
"22 3 OFFCURVE",
"26 0 OFFCURVE",
"31 0 CURVE SMOOTH",
"75 0 LINE SMOOTH",
"80 0 OFFCURVE",
"83 3 OFFCURVE",
"84 9 CURVE SMOOTH",
"146 398 LINE SMOOTH",
"154 455 OFFCURVE",
"164 521 OFFCURVE",
"170 573 CURVE",
"171 573 LINE",
"175 523 OFFCURVE",
"178 456 OFFCURVE",
"184 403 CURVE SMOOTH",
"233 9 LINE SMOOTH",
"234 3 OFFCURVE",
"236 0 OFFCURVE",
"242 0 CURVE SMOOTH",
"260 0 LINE",
"245 -67 OFFCURVE",
"223 -108 OFFCURVE",
"187 -136 CURVE SMOOTH",
"183 -140 OFFCURVE",
"182 -142 OFFCURVE",
"185 -147 CURVE SMOOTH",
"207 -188 LINE SMOOTH",
"209 -192 OFFCURVE",
"213 -193 OFFCURVE",
"216 -191 CURVE SMOOTH"
);
}
);
width = 406;
}
);
leftKerningGroup = H;
leftMetricsKey = H;
rightKerningGroup = H;
rightMetricsKey = H;
unicode = 014A;
},
{
glyphname = O;
lastChange = "2022-10-25 01:48:04 +0000";
layers = (
{
anchors = (
{
name = bottom;
position = "{199, 0}";
},
{
name = center;
position = "{251, 328}";
},
{
name = ogonek;
position = "{390, 10}";
},
{
name = top;
position = "{316, 655}";
},
{
name = topleft;
position = "{84, 655}";
},
{
name = topright;
position = "{522, 655}";
}
);
layerId = "9DFF46AD-73DE-422E-A6A3-16745129C94E";
paths = (
{
closed = 1;
nodes = (
"362.222 -6 OFFCURVE",
"438.681 66.998 OFFCURVE",
"464 226 CURVE SMOOTH",
"493 409 LINE SMOOTH",
"519 573 OFFCURVE",
"449.202 661 OFFCURVE",
"303 661 CURVE SMOOTH",
"161.778 661 OFFCURVE",
"85.319 588.002 OFFCURVE",
"60 429 CURVE SMOOTH",
"31 246 LINE SMOOTH",
"5 82 OFFCURVE",
"74.798 -6 OFFCURVE",
"221 -6 CURVE SMOOTH"
);
},
{
closed = 1;
nodes = (
"192.79 142 OFFCURVE",
"179.13 171.695 OFFCURVE",
"191 242 CURVE SMOOTH",
"220 422 LINE SMOOTH",
"230.388 488.482 OFFCURVE",
"249 513 OFFCURVE",
"288 513 CURVE SMOOTH",
"332 513 OFFCURVE",
"344.061 483.976 OFFCURVE",
"333 413 CURVE SMOOTH",
"304 233 LINE SMOOTH",
"293.612 166.518 OFFCURVE",
"275.56 142 OFFCURVE",
"237 142 CURVE SMOOTH"
);
}
);
width = 478;
},
{
anchors = (
{
name = bottom;
position = "{163, 0}";
},
{
name = center;
position = "{215, 328}";
},
{
name = ogonek;
position = "{318, 10}";
},
{
name = top;
position = "{266, 655}";
},
{
name = topleft;
position = "{94, 655}";
},
{
name = topright;
position = "{439, 655}";
}
);
layerId = "7BE597F2-1213-4429-94A3-E96FC63EF83E";
paths = (
{
closed = 1;
nodes = (
"258 -6 OFFCURVE",
"307 46 OFFCURVE",
"325 162 CURVE SMOOTH",
"375 474 LINE SMOOTH",
"396 607 OFFCURVE",
"347 661 OFFCURVE",
"260 661 CURVE SMOOTH",
"170 661 OFFCURVE",
"122 609 OFFCURVE",
"103 493 CURVE SMOOTH",
"53 181 LINE SMOOTH",
"32 48 OFFCURVE",
"81 -6 OFFCURVE",
"168 -6 CURVE SMOOTH"
);
},
{
closed = 1;
nodes = (
"91 10 OFFCURVE",
"49 58 OFFCURVE",
"69 182 CURVE SMOOTH",
"119 492 LINE SMOOTH",
"136 598 OFFCURVE",
"179 645 OFFCURVE",
"259 645 CURVE SMOOTH",
"337 645 OFFCURVE",
"379 597 OFFCURVE",
"359 473 CURVE SMOOTH",
"309 163 LINE SMOOTH",
"292 57 OFFCURVE",
"249 10 OFFCURVE",
"169 10 CURVE SMOOTH"
);
}
);
width = 384;
},
{
anchors = (
{
name = bottom;
position = "{158, 0}";
},
{
name = center;
position = "{210, 328}";
},
{
name = ogonek;
position = "{315, 10}";
},
{
name = top;
position = "{268, 655}";
},
{
name = topleft;
position = "{87, 655}";
},
{
name = topright;
position = "{437, 655}";
}
);
layerId = "F3DD84D5-00FA-4BE1-BE55-069AF9C50450";
paths = (
{
closed = 1;
nodes = (
"275 -6 OFFCURVE",
"327 52 OFFCURVE",
"347 175 CURVE SMOOTH",
"393 464 LINE SMOOTH",
"413 593 OFFCURVE",
"362 661 OFFCURVE",
"264 661 CURVE SMOOTH",
"160 661 OFFCURVE",
"109 603 OFFCURVE",
"89 480 CURVE SMOOTH",
"43 189 LINE SMOOTH",
"23 63 OFFCURVE",
"73 -6 OFFCURVE",
"170 -6 CURVE SMOOTH"
);
},
{
closed = 1;
nodes = (
"116 55 OFFCURVE",
"90 97 OFFCURVE",
"105 190 CURVE SMOOTH",
"151 478 LINE SMOOTH",
"165 563 OFFCURVE",
"195 600 OFFCURVE",
"257 600 CURVE SMOOTH",
"319 600 OFFCURVE",
"346 558 OFFCURVE",
"331 465 CURVE SMOOTH",
"285 175 LINE SMOOTH",
"272 92 OFFCURVE",
"241 55 OFFCURVE",
"178 55 CURVE SMOOTH"
);
}
);
width = 390;
}
);
leftKerningGroup = O;
rightKerningGroup = O;
unicode = 004F;
},
{
glyphname = Oslash;
lastChange = "2022-10-25 01:48:04 +0000";
layers = (
{
anchors = (
{
name = top;
position = "{302, 655}";
}
);
components = (
{
name = O;
}
);
layerId = "9DFF46AD-73DE-422E-A6A3-16745129C94E";
paths = (
{
closed = 1;
nodes = (
"124 -50 LINE SMOOTH",
"132 -50 OFFCURVE",
"136 -45 OFFCURVE",
"141 -35 CURVE SMOOTH",
"180 43 LINE",
"199 113 LINE",
"375 465 LINE",
"446 567 LINE",
"508 690 LINE SMOOTH",
"513 699 OFFCURVE",
"509 705 OFFCURVE",
"498 705 CURVE SMOOTH",
"403 705 LINE SMOOTH",
"395 705 OFFCURVE",
"390 701 OFFCURVE",
"385 690 CURVE SMOOTH",
"350 620 LINE",
"330 548 LINE",
"163 218 LINE",
"82 92 LINE",
"18 -35 LINE SMOOTH",
"14 -43 OFFCURVE",
"19 -50 OFFCURVE",
"28 -50 CURVE SMOOTH"
);
}
);
width = 478;
},
{
anchors = (
{
name = top;
position = "{266, 655}";
}
);
components = (
{
name = O;
}
);
layerId = "7BE597F2-1213-4429-94A3-E96FC63EF83E";
paths = (
{
closed = 1;
nodes = (
"17 -48 LINE SMOOTH",
"20 -48 OFFCURVE",
"21 -48 OFFCURVE",
"23 -44 CURVE SMOOTH",
"70 43 LINE",
"75 51 LINE",
"363 593 LINE",
"366 599 LINE",
"420 699 LINE SMOOTH",
"422 702 OFFCURVE",
"421 703 OFFCURVE",
"419 703 CURVE SMOOTH",
"410 703 LINE SMOOTH",
"407 703 OFFCURVE",
"407 703 OFFCURVE",
"405 699 CURVE SMOOTH",
"356 609 LINE",
"353 603 LINE",
"67 66 LINE",
"63 59 LINE",
"8 -44 LINE SMOOTH",
"6 -47 OFFCURVE",
"7 -48 OFFCURVE",
"9 -48 CURVE SMOOTH"
);
}
);
width = 384;
},
{
anchors = (
{
name = top;
position = "{269, 655}";
}
);
components = (
{
alignment = -1;
name = O;
}
);
layerId = "F3DD84D5-00FA-4BE1-BE55-069AF9C50450";
paths = (
{
closed = 1;
nodes = (
"45 -50 LINE SMOOTH",
"51 -50 OFFCURVE",
"53 -47 OFFCURVE",
"56 -41 CURVE SMOOTH",
"97 39 LINE",
"111 66 LINE",
"357 547 LINE",
"372 576 LINE",
"434 696 LINE SMOOTH",
"437 701 OFFCURVE",
"433 705 OFFCURVE",
"428 705 CURVE SMOOTH",
"388 705 LINE SMOOTH",
"383 705 OFFCURVE",
"380 702 OFFCURVE",
"378 696 CURVE SMOOTH",
"339 620 LINE",
"326 594 LINE",
"78 114 LINE",
"63 84 LINE",
"-1 -41 LINE SMOOTH",
"-3 -45 OFFCURVE",
"-1 -50 OFFCURVE",
"4 -50 CURVE SMOOTH"
);
}
);
width = 390;
}
);
leftKerningGroup = O;
rightKerningGroup = O;
unicode = 00D8;
},
{
glyphname = OE;
lastChange = "2022-10-25 01:48:04 +0000";
layers = (
{
layerId = "9DFF46AD-73DE-422E-A6A3-16745129C94E";
paths = (
{
closed = 1;
nodes = (
"240 -6 OFFCURVE",
"259 -3 OFFCURVE",
"275 0 CURVE",
"577 0 LINE SMOOTH",
"586 0 OFFCURVE",
"591 6 OFFCURVE",
"592 15 CURVE SMOOTH",
"611 131 LINE SMOOTH",
"612 140 OFFCURVE",
"607 146 OFFCURVE",
"597 146 CURVE SMOOTH",
"430 146 LINE",
"448 260 LINE",
"602 260 LINE SMOOTH",
"611 260 OFFCURVE",
"616 266 OFFCURVE",
"617 275 CURVE SMOOTH",
"634 384 LINE SMOOTH",
"636 394 OFFCURVE",
"631 399 OFFCURVE",
"621 399 CURVE SMOOTH",
"470 399 LINE",
"487 509 LINE",
"658 509 LINE SMOOTH",
"667 509 OFFCURVE",
"672 516 OFFCURVE",
"673 524 CURVE SMOOTH",
"691 640 LINE SMOOTH",
"693 650 OFFCURVE",
"688 655 OFFCURVE",
"678 655 CURVE SMOOTH",
"377 655 LINE",
"357 658 OFFCURVE",
"327 661 OFFCURVE",
"303 661 CURVE SMOOTH",
"161 661 OFFCURVE",
"85.319 588.002 OFFCURVE",
"60 429 CURVE SMOOTH",
"31 246 LINE SMOOTH",
"5 82 OFFCURVE",
"77 -6 OFFCURVE",
"217 -6 CURVE SMOOTH"
);
},
{
closed = 1;
nodes = (
"193 142 OFFCURVE",
"179 172 OFFCURVE",
"191 242 CURVE SMOOTH",
"220 422 LINE SMOOTH",
"230 488 OFFCURVE",
"248 513 OFFCURVE",
"287 513 CURVE SMOOTH",
"303 513 OFFCURVE",
"316 510 OFFCURVE",
"325 507 CURVE",
"267 148 LINE",
"259 144 OFFCURVE",
"249 142 OFFCURVE",
"237 142 CURVE SMOOTH"
);
}
);
width = 644;
},
{
layerId = "7BE597F2-1213-4429-94A3-E96FC63EF83E";
paths = (
{
closed = 1;
nodes = (
"196 -6 OFFCURVE",
"211 -3 OFFCURVE",
"230 0 CURVE",
"431 0 LINE SMOOTH",
"434 0 OFFCURVE",
"435 0 OFFCURVE",
"436 3 CURVE SMOOTH",
"438 12 LINE SMOOTH",
"439 16 OFFCURVE",
"437 16 OFFCURVE",
"435 16 CURVE SMOOTH",
"246 16 LINE",
"295 328 LINE",
"471 328 LINE SMOOTH",
"474 328 OFFCURVE",
"475 328 OFFCURVE",
"476 331 CURVE SMOOTH",
"478 340 LINE SMOOTH",
"479 344 OFFCURVE",
"477 344 OFFCURVE",
"475 344 CURVE SMOOTH",
"298 344 LINE",
"345 639 LINE",
"533 639 LINE SMOOTH",
"536 639 OFFCURVE",
"537 639 OFFCURVE",
"538 642 CURVE SMOOTH",
"540 651 LINE SMOOTH",
"541 655 OFFCURVE",
"539 655 OFFCURVE",
"537 655 CURVE SMOOTH",
"331 655 LINE",
"311 658 OFFCURVE",
"287 661 OFFCURVE",
"260 661 CURVE SMOOTH",
"170 661 OFFCURVE",
"122 609 OFFCURVE",
"103 493 CURVE SMOOTH",
"53 181 LINE SMOOTH",
"32 48 OFFCURVE",
"81 -6 OFFCURVE",
"168 -6 CURVE SMOOTH"
);
},
{
closed = 1;
nodes = (
"91 10 OFFCURVE",
"49 58 OFFCURVE",
"69 182 CURVE SMOOTH",
"119 492 LINE SMOOTH",
"136 598 OFFCURVE",
"179 645 OFFCURVE",
"259 645 CURVE SMOOTH",
"285 645 OFFCURVE",
"310 643 OFFCURVE",
"329 639 CURVE",
"230 16 LINE",
"211 12 OFFCURVE",
"196 10 OFFCURVE",
"169 10 CURVE SMOOTH"
);
}
);
width = 511;
},
{
layerId = "F3DD84D5-00FA-4BE1-BE55-069AF9C50450";
paths = (
{
closed = 1;
nodes = (
"187 -6 OFFCURVE",
"208 -3 OFFCURVE",
"224 0 CURVE",
"447 0 LINE SMOOTH",
"453 0 OFFCURVE",
"455 3 OFFCURVE",
"456 9 CURVE SMOOTH",
"464 52 LINE SMOOTH",
"465 58 OFFCURVE",
"462 61 OFFCURVE",
"456 61 CURVE SMOOTH",
"292 61 LINE",
"331 305 LINE",
"482 305 LINE SMOOTH",
"488 305 OFFCURVE",
"490 308 OFFCURVE",
"491 313 CURVE SMOOTH",
"498 355 LINE SMOOTH",
"499 360 OFFCURVE",
"496 363 OFFCURVE",
"490 363 CURVE SMOOTH",
"340 363 LINE",
"376 594 LINE",
"542 594 LINE SMOOTH",
"547 594 OFFCURVE",
"550 597 OFFCURVE",
"551 602 CURVE SMOOTH",
"559 646 LINE SMOOTH",
"560 652 OFFCURVE",
"557 655 OFFCURVE",
"551 655 CURVE SMOOTH",
"327 655 LINE",
"312 658 OFFCURVE",
"285 661 OFFCURVE",
"264 661 CURVE SMOOTH",
"164 661 OFFCURVE",
"108 603 OFFCURVE",
"89 483 CURVE SMOOTH",
"43 188 LINE SMOOTH",
"22 54 OFFCURVE",
"69 -6 OFFCURVE",
"166 -6 CURVE SMOOTH"
);
},
{
closed = 1;
nodes = (
"117 55 OFFCURVE",
"89 94 OFFCURVE",
"105 192 CURVE SMOOTH",
"151 478 LINE SMOOTH",
"165 562 OFFCURVE",
"194 600 OFFCURVE",
"257 600 CURVE SMOOTH",
"279 600 OFFCURVE",
"298 598 OFFCURVE",
"314 595 CURVE",
"230 63 LINE",
"215 58 OFFCURVE",
"198 55 OFFCURVE",
"175 55 CURVE SMOOTH"
);
}
);
width = 525;
}
);
leftKerningGroup = O;
leftMetricsKey = O;
rightKerningGroup = E;
rightMetricsKey = E;
unicode = 0152;
},
{
glyphname = P;
lastChange = "2022-10-25 01:48:04 +0000";
layers = (
{
layerId = "9DFF46AD-73DE-422E-A6A3-16745129C94E";
paths = (
{
closed = 1;
nodes = (
"148 0 LINE SMOOTH",
"156 0 OFFCURVE",
"162 6 OFFCURVE",
"163 15 CURVE SMOOTH",
"194 206 LINE",
"216 206 LINE SMOOTH",
"363.489 206 OFFCURVE",
"452 308.763 OFFCURVE",
"452 480 CURVE SMOOTH",
"452 597.75 OFFCURVE",
"386.571 655 OFFCURVE",
"252 655 CURVE SMOOTH",
"117 655 LINE SMOOTH",
"108.5 655 OFFCURVE",
"104.125 650.625 OFFCURVE",
"102 640 CURVE SMOOTH",
"2 15 LINE SMOOTH",
"0.185 5.016 OFFCURVE",
"4.867 0 OFFCURVE",
"16 0 CURVE SMOOTH"
);
},
{
closed = 1;
nodes = (
"242 509 LINE",
"252 509 LINE SMOOTH",
"275.941 509 OFFCURVE",
"288 496 OFFCURVE",
"288 462 CURVE SMOOTH",
"288 399 OFFCURVE",
"263.962 352 OFFCURVE",
"227 352 CURVE SMOOTH",
"217 352 LINE"
);
}
);
width = 428;
},
{
layerId = "7BE597F2-1213-4429-94A3-E96FC63EF83E";
paths = (
{
closed = 1;
nodes = (
"47 0 LINE SMOOTH",
"50 0 OFFCURVE",
"51 0 OFFCURVE",
"52 5 CURVE SMOOTH",
"95 277 LINE",
"152 277 LINE SMOOTH",
"287 277 OFFCURVE",
"341 383 OFFCURVE",
"341 517 CURVE SMOOTH",
"341 620 OFFCURVE",
"288 655 OFFCURVE",
"201 655 CURVE SMOOTH",
"144 655 LINE SMOOTH",
"141 655 OFFCURVE",
"140 655 OFFCURVE",
"139 651 CURVE SMOOTH",
"36 5 LINE SMOOTH",
"35 0 OFFCURVE",
"37 0 OFFCURVE",
"40 0 CURVE SMOOTH"
);
},
{
closed = 1;
nodes = (
"153 639 LINE",
"200 639 LINE SMOOTH",
"277 639 OFFCURVE",
"325 611 OFFCURVE",
"325 516 CURVE SMOOTH",
"325 398 OFFCURVE",
"280 293 OFFCURVE",
"153 293 CURVE SMOOTH",
"98 293 LINE"
);
}
);
width = 323;
},
{
layerId = "F3DD84D5-00FA-4BE1-BE55-069AF9C50450";
paths = (
{
closed = 1;
nodes = (
"76 0 LINE SMOOTH",
"81 0 OFFCURVE",
"84 3 OFFCURVE",
"85 9 CURVE SMOOTH",
"124 254 LINE",
"166 254 LINE SMOOTH",
"289 254 OFFCURVE",
"360 356 OFFCURVE",
"360 510 CURVE SMOOTH",
"360 611 OFFCURVE",
"311 655 OFFCURVE",
"212 655 CURVE SMOOTH",
"134 655 LINE SMOOTH",
"128 655 OFFCURVE",
"126 652 OFFCURVE",
"124 646 CURVE SMOOTH",
"23 9 LINE SMOOTH",
"22 4 OFFCURVE",
"25 0 OFFCURVE",
"30 0 CURVE SMOOTH"
);
},
{
closed = 1;
nodes = (
"178 595 LINE",
"209 595 LINE SMOOTH",
"267 595 OFFCURVE",
"297 568 OFFCURVE",
"297 504 CURVE SMOOTH",
"297 387 OFFCURVE",
"253 316 OFFCURVE",
"169 316 CURVE SMOOTH",
"134 316 LINE"
);
}
);
width = 336;
}
);
leftKerningGroup = H;
leftMetricsKey = H;
rightKerningGroup = P;
unicode = 0050;
},
{
glyphname = Thorn;
lastChange = "2022-10-25 01:49:53 +0000";
layers = (
{
layerId = "9DFF46AD-73DE-422E-A6A3-16745129C94E";
paths = (
{
closed = 1;
nodes = (
"148 0 LINE SMOOTH",
"156 0 OFFCURVE",
"162 6 OFFCURVE",
"163 15 CURVE SMOOTH",
"179 114 LINE",
"201 114 LINE SMOOTH",
"348 114 OFFCURVE",
"437 217 OFFCURVE",
"437 388 CURVE SMOOTH",
"437 502 OFFCURVE",
"378 559 OFFCURVE",
"253 563 CURVE SMOOTH",
"252 563 LINE",
"263 640 LINE SMOOTH",
"264 650 OFFCURVE",
"259 655 OFFCURVE",
"250 655 CURVE SMOOTH",
"117 655 LINE SMOOTH",
"108 655 OFFCURVE",
"104 651 OFFCURVE",
"102 640 CURVE SMOOTH",
"2 15 LINE SMOOTH",
"0 4 OFFCURVE",
"6 0 OFFCURVE",
"16 0 CURVE SMOOTH"
);
},
{
closed = 1;
nodes = (
"227 417 LINE",
"237 417 LINE SMOOTH",
"261 417 OFFCURVE",
"273 404 OFFCURVE",
"273 370 CURVE SMOOTH",
"273 307 OFFCURVE",
"249 260 OFFCURVE",
"212 260 CURVE SMOOTH",
"202 260 LINE"
);
}
);
width = 428;
},
{
layerId = "7BE597F2-1213-4429-94A3-E96FC63EF83E";
paths = (
{
closed = 1;
nodes = (
"47 0 LINE SMOOTH",
"50 0 OFFCURVE",
"51 0 OFFCURVE",
"52 5 CURVE SMOOTH",
"75 150 LINE",
"132 150 LINE SMOOTH",
"267 150 OFFCURVE",
"321 256 OFFCURVE",
"321 390 CURVE SMOOTH",
"321 493 OFFCURVE",
"268 528 OFFCURVE",
"181 528 CURVE SMOOTH",
"135 528 LINE",
"155 651 LINE SMOOTH",
"156 655 OFFCURVE",
"154 655 OFFCURVE",
"151 655 CURVE SMOOTH",
"144 655 LINE SMOOTH",
"141 655 OFFCURVE",
"140 655 OFFCURVE",
"139 651 CURVE SMOOTH",
"36 5 LINE SMOOTH",
"35 0 OFFCURVE",
"37 0 OFFCURVE",
"40 0 CURVE SMOOTH"
);
},
{
closed = 1;
nodes = (
"133 512 LINE",
"180 512 LINE SMOOTH",
"257 512 OFFCURVE",
"305 484 OFFCURVE",
"305 389 CURVE SMOOTH",
"305 271 OFFCURVE",
"260 166 OFFCURVE",
"133 166 CURVE SMOOTH",
"78 166 LINE"
);
}
);
width = 323;
},
{
layerId = "F3DD84D5-00FA-4BE1-BE55-069AF9C50450";
paths = (
{
closed = 1;
nodes = (
"76 0 LINE SMOOTH",
"81 0 OFFCURVE",
"84 3 OFFCURVE",
"85 9 CURVE SMOOTH",
"106 140 LINE",
"148 140 LINE SMOOTH",
"272 140 OFFCURVE",
"343 241 OFFCURVE",
"343 395 CURVE SMOOTH",
"343 496 OFFCURVE",
"294 540 OFFCURVE",
"195 540 CURVE SMOOTH",
"170 540 LINE",
"186 646 LINE SMOOTH",
"187 653 OFFCURVE",
"185 655 OFFCURVE",
"179 655 CURVE SMOOTH",
"134 655 LINE SMOOTH",
"128 655 OFFCURVE",
"125 652 OFFCURVE",
"124 646 CURVE SMOOTH",
"23 9 LINE SMOOTH",
"22 3 OFFCURVE",
"26 0 OFFCURVE",
"30 0 CURVE SMOOTH"
);
},
{
closed = 1;
nodes = (
"160 480 LINE",
"191 480 LINE SMOOTH",
"249 480 OFFCURVE",
"279 453 OFFCURVE",
"279 389 CURVE SMOOTH",
"279 272 OFFCURVE",
"236 201 OFFCURVE",
"152 201 CURVE SMOOTH",
"116 201 LINE"
);
}
);
width = 338;
}
);
leftKerningGroup = H;
leftMetricsKey = H;
rightKerningGroup = Thorn;
rightMetricsKey = P;
unicode = 00DE;
},
{
glyphname = Q;
lastChange = "2022-10-25 01:48:04 +0000";
layers = (
{
components = (
{
name = O;
}
);
layerId = "9DFF46AD-73DE-422E-A6A3-16745129C94E";
paths = (
{
closed = 1;
nodes = (
"307 -184 OFFCURVE",
"331 -178 OFFCURVE",
"344 -173 CURVE SMOOTH",
"352 -170 OFFCURVE",
"357 -164 OFFCURVE",
"358 -156 CURVE SMOOTH",
"371 -69 LINE SMOOTH",
"372 -61 OFFCURVE",
"366 -56 OFFCURVE",
"358 -59 CURVE SMOOTH",
"350 -62 OFFCURVE",
"342 -64 OFFCURVE",
"329 -64 CURVE SMOOTH",
"296 -64 OFFCURVE",
"301 -23 OFFCURVE",
"314 42 CURVE SMOOTH",
"316 52 OFFCURVE",
"311 57 OFFCURVE",
"305 57 CURVE SMOOTH",
"200 56 LINE SMOOTH",
"193 56 OFFCURVE",
"188 51 OFFCURVE",
"186 42 CURVE SMOOTH",
"152 -112 OFFCURVE",
"181 -184 OFFCURVE",
"275 -184 CURVE SMOOTH"
);
}
);
width = 478;
},
{
components = (
{
name = O;
}
);
layerId = "7BE597F2-1213-4429-94A3-E96FC63EF83E";
paths = (
{
closed = 1;
nodes = (
"216 -172 OFFCURVE",
"224 -170 OFFCURVE",
"230 -167 CURVE SMOOTH",
"232 -166 OFFCURVE",
"233 -166 OFFCURVE",
"234 -161 CURVE SMOOTH",
"235 -154 LINE SMOOTH",
"236 -149 OFFCURVE",
"233 -149 OFFCURVE",
"230 -151 CURVE SMOOTH",
"225 -154 OFFCURVE",
"218 -156 OFFCURVE",
"209 -156 CURVE SMOOTH",
"171 -156 OFFCURVE",
"167 -104 OFFCURVE",
"182 -3 CURVE SMOOTH",
"182 -1 OFFCURVE",
"182 0 OFFCURVE",
"180 0 CURVE SMOOTH",
"169 0 LINE SMOOTH",
"168 0 OFFCURVE",
"167 -1 OFFCURVE",
"167 -3 CURVE SMOOTH",
"151 -104 OFFCURVE",
"153 -172 OFFCURVE",
"207 -172 CURVE SMOOTH"
);
}
);
width = 384;
},
{
components = (
{
alignment = -1;
name = O;
}
);
layerId = "F3DD84D5-00FA-4BE1-BE55-069AF9C50450";
paths = (
{
closed = 1;
nodes = (
"223 -180 OFFCURVE",
"234 -178 OFFCURVE",
"242 -174 CURVE SMOOTH",
"247 -172 OFFCURVE",
"249 -170 OFFCURVE",
"250 -165 CURVE SMOOTH",
"258 -123 LINE SMOOTH",
"259 -116 OFFCURVE",
"256 -114 OFFCURVE",
"251 -115 CURVE SMOOTH",
"244 -117 OFFCURVE",
"237 -119 OFFCURVE",
"230 -119 CURVE SMOOTH",
"199 -119 OFFCURVE",
"195 -83 OFFCURVE",
"216 22 CURVE SMOOTH",
"217 28 OFFCURVE",
"216 31 OFFCURVE",
"212 31 CURVE SMOOTH",
"168 35 LINE SMOOTH",
"165 35 OFFCURVE",
"155 32 OFFCURVE",
"154 27 CURVE SMOOTH",
"124 -118 OFFCURVE",
"154 -180 OFFCURVE",
"210 -180 CURVE SMOOTH"
);
}
);
width = 390;
}
);
leftKerningGroup = O;
leftMetricsKey = O;
rightKerningGroup = O;
rightMetricsKey = O;
unicode = 0051;
},
{
glyphname = R;
lastChange = "2022-10-25 01:48:04 +0000";
layers = (
{
anchors = (
{
name = bottom;
position = "{210, 0}";
},
{
name = top;
position = "{277, 655}";
}
);
layerId = "9DFF46AD-73DE-422E-A6A3-16745129C94E";
paths = (
{
closed = 1;
nodes = (
"148 0 LINE SMOOTH",
"156 0 OFFCURVE",
"162 6 OFFCURVE",
"163 15 CURVE SMOOTH",
"199 239 LINE",
"212 239 LINE",
"257 15 LINE SMOOTH",
"259 5 OFFCURVE",
"264 0 OFFCURVE",
"272 0 CURVE SMOOTH",
"413 0 LINE SMOOTH",
"421.533 0 OFFCURVE",
"428.116 7.595 OFFCURVE",
"426 15 CURVE SMOOTH",
"363 271 LINE",
"363 272 LINE",
"427.561 296.964 OFFCURVE",
"473 381 OFFCURVE",
"473 472 CURVE SMOOTH",
"473 602 OFFCURVE",
"411.855 655 OFFCURVE",
"268 655 CURVE SMOOTH",
"117 655 LINE SMOOTH",
"108.5 655 OFFCURVE",
"104.125 650.625 OFFCURVE",
"102 640 CURVE SMOOTH",
"2 15 LINE SMOOTH",
"0.185 5.016 OFFCURVE",
"4.867 0 OFFCURVE",
"16 0 CURVE SMOOTH"
);
},
{
closed = 1;
nodes = (
"242 509 LINE",
"260 509 LINE SMOOTH",
"293 509 OFFCURVE",
"306 496 OFFCURVE",
"306 463 CURVE SMOOTH",
"306 406 OFFCURVE",
"279 374 OFFCURVE",
"239 374 CURVE SMOOTH",
"221 374 LINE"
);
}
);
width = 460;
},
{
anchors = (
{
name = bottom;
position = "{152, 0}";
},
{
name = top;
position = "{235, 655}";
}
);
layerId = "7BE597F2-1213-4429-94A3-E96FC63EF83E";
paths = (
{
closed = 1;
nodes = (
"47 0 LINE SMOOTH",
"50 0 OFFCURVE",
"51 0 OFFCURVE",
"52 5 CURVE SMOOTH",
"99 303 LINE",
"211 303 LINE",
"272 3 LINE SMOOTH",
"273 0 OFFCURVE",
"274 0 OFFCURVE",
"276 0 CURVE SMOOTH",
"286 0 LINE SMOOTH",
"288 0 OFFCURVE",
"290 1 OFFCURVE",
"289 4 CURVE SMOOTH",
"226 308 LINE",
"226 309 LINE",
"310 331 OFFCURVE",
"352 415 OFFCURVE",
"352 526 CURVE SMOOTH",
"352 616 OFFCURVE",
"301 655 OFFCURVE",
"217 655 CURVE SMOOTH",
"144 655 LINE SMOOTH",
"141 655 OFFCURVE",
"140 655 OFFCURVE",
"139 651 CURVE SMOOTH",
"36 5 LINE SMOOTH",
"35 0 OFFCURVE",
"37 0 OFFCURVE",
"40 0 CURVE SMOOTH"
);
},
{
closed = 1;
nodes = (
"153 639 LINE",
"216 639 LINE SMOOTH",
"288 639 OFFCURVE",
"336 608 OFFCURVE",
"336 526 CURVE SMOOTH",
"336 411 OFFCURVE",
"289 319 OFFCURVE",
"184 319 CURVE SMOOTH",
"102 319 LINE"
);
}
);
width = 349;
},
{
anchors = (
{
name = bottom;
position = "{159, 0}";
},
{
name = top;
position = "{239, 655}";
}
);
layerId = "F3DD84D5-00FA-4BE1-BE55-069AF9C50450";
paths = (
{
closed = 1;
nodes = (
"76 0 LINE SMOOTH",
"81 0 OFFCURVE",
"84 3 OFFCURVE",
"85 9 CURVE SMOOTH",
"129 285 LINE",
"201 285 LINE",
"250 9 LINE SMOOTH",
"251 2 OFFCURVE",
"254 0 OFFCURVE",
"259 0 CURVE SMOOTH",
"307 0 LINE SMOOTH",
"312 0 OFFCURVE",
"316 3 OFFCURVE",
"315 9 CURVE SMOOTH",
"260 301 LINE",
"260 302 LINE",
"336 334 OFFCURVE",
"372 421 OFFCURVE",
"372 513 CURVE SMOOTH",
"372 609 OFFCURVE",
"327 655 OFFCURVE",
"221 655 CURVE SMOOTH",
"134 655 LINE SMOOTH",
"128 655 OFFCURVE",
"125 652 OFFCURVE",
"124 646 CURVE SMOOTH",
"23 9 LINE SMOOTH",
"22 3 OFFCURVE",
"26 0 OFFCURVE",
"30 0 CURVE SMOOTH"
);
},
{
closed = 1;
nodes = (
"178 594 LINE",
"221 594 LINE SMOOTH",
"279 594 OFFCURVE",
"309 568 OFFCURVE",
"309 507 CURVE SMOOTH",
"309 419 OFFCURVE",
"275 344 OFFCURVE",
"185 344 CURVE SMOOTH",
"138 344 LINE"
);
}
);
width = 364;
}
);
leftKerningGroup = H;
leftMetricsKey = H;
rightKerningGroup = R;
unicode = 0052;
},
{
glyphname = S;
lastChange = "2022-10-25 01:48:04 +0000";
layers = (
{
anchors = (
{
name = bottom;
position = "{182, 0}";
},
{
name = top;
position = "{276, 655}";
}
);
layerId = "9DFF46AD-73DE-422E-A6A3-16745129C94E";
paths = (
{
closed = 1;
nodes = (
"321.794 -6 OFFCURVE",
"399 72 OFFCURVE",
"399 200 CURVE SMOOTH",
"399 271 OFFCURVE",
"379 309 OFFCURVE",
"337 349 CURVE SMOOTH",
"255 426 LINE SMOOTH",
"234 446 OFFCURVE",
"226 460.345 OFFCURVE",
"226 486 CURVE SMOOTH",
"226 510 OFFCURVE",
"234 521 OFFCURVE",
"251 521 CURVE SMOOTH",
"270.775 521 OFFCURVE",
"277 500 OFFCURVE",
"270 461 CURVE SMOOTH",
"268 451 OFFCURVE",
"272.733 446 OFFCURVE",
"283 446 CURVE SMOOTH",
"417 446 LINE SMOOTH",
"425.5 446 OFFCURVE",
"430.111 450.611 OFFCURVE",
"432 461 CURVE SMOOTH",
"455.219 589.674 OFFCURVE",
"393 661 OFFCURVE",
"258 661 CURVE SMOOTH",
"134 661 OFFCURVE",
"61 592 OFFCURVE",
"61 472 CURVE SMOOTH",
"61 403 OFFCURVE",
"79 359 OFFCURVE",
"127 313 CURVE SMOOTH",
"200 244 LINE SMOOTH",
"224 221 OFFCURVE",
"233 202.682 OFFCURVE",
"233 181 CURVE SMOOTH",
"233 149.641 OFFCURVE",
"222.351 134 OFFCURVE",
"201 134 CURVE SMOOTH",
"179 134 OFFCURVE",
"172 158 OFFCURVE",
"179 199 CURVE SMOOTH",
"180 207 OFFCURVE",
"174.967 214 OFFCURVE",
"166 214 CURVE SMOOTH",
"36 214 LINE SMOOTH",
"28.5 214 OFFCURVE",
"23 208 OFFCURVE",
"21 199 CURVE SMOOTH",
"-7 67 OFFCURVE",
"52.363 -6 OFFCURVE",
"192 -6 CURVE SMOOTH"
);
}
);
width = 415;
},
{
anchors = (
{
name = bottom;
position = "{139, 0}";
},
{
name = top;
position = "{238, 655}";
}
);
layerId = "7BE597F2-1213-4429-94A3-E96FC63EF83E";
paths = (
{
closed = 1;
nodes = (
"234 -6 OFFCURVE",
"285 52 OFFCURVE",
"285 156 CURVE SMOOTH",
"285 227 OFFCURVE",
"268.157 266.657 OFFCURVE",
"215 325 CURVE SMOOTH",
"164 382 LINE SMOOTH",
"123.509 427.552 OFFCURVE",
"110 459.574 OFFCURVE",
"110 510 CURVE SMOOTH",
"110 592.184 OFFCURVE",
"154.6 645 OFFCURVE",
"224 645 CURVE SMOOTH",
"301 645 OFFCURVE",
"332.415 593.504 OFFCURVE",
"313 493 CURVE SMOOTH",
"312.039 490.115 OFFCURVE",
"312.875 489 OFFCURVE",
"316 489 CURVE SMOOTH",
"324 489 LINE SMOOTH",
"327 489 OFFCURVE",
"328.142 488.967 OFFCURVE",
"329 493 CURVE SMOOTH",
"351.789 600.11 OFFCURVE",
"313 661 OFFCURVE",
"225 661 CURVE SMOOTH",
"144.01 661 OFFCURVE",
"94 602.973 OFFCURVE",
"94 509 CURVE SMOOTH",
"94 452.875 OFFCURVE",
"108.581 418.61 OFFCURVE",
"154 368 CURVE SMOOTH",
"204 312 LINE SMOOTH",
"253.515 257.132 OFFCURVE",
"269 219.254 OFFCURVE",
"269 153 CURVE SMOOTH",
"269 61.012 OFFCURVE",
"222.269 10 OFFCURVE",
"138 10 CURVE SMOOTH",
"59 10 OFFCURVE",
"27.718 62.781 OFFCURVE",
"49 166 CURVE SMOOTH",
"49.833 170.038 OFFCURVE",
"48 170 OFFCURVE",
"46 170 CURVE SMOOTH",
"38 170 LINE SMOOTH",
"35 170 OFFCURVE",
"33.62 170.101 OFFCURVE",
"33 167 CURVE SMOOTH",
"10.231 53.157 OFFCURVE",
"47 -6 OFFCURVE",
"138 -6 CURVE SMOOTH"
);
}
);
width = 327;
},
{
anchors = (
{
name = bottom;
position = "{140, 0}";
},
{
name = top;
position = "{243, 655}";
}
);
layerId = "F3DD84D5-00FA-4BE1-BE55-069AF9C50450";
paths = (
{
closed = 1;
nodes = (
"244 -6 OFFCURVE",
"306 59 OFFCURVE",
"306 178 CURVE SMOOTH",
"306 240 OFFCURVE",
"290 281 OFFCURVE",
"245 333 CURVE SMOOTH",
"191 397 LINE SMOOTH",
"159 435 OFFCURVE",
"144 464 OFFCURVE",
"144 507 CURVE SMOOTH",
"144 559 OFFCURVE",
"172 600 OFFCURVE",
"222 600 CURVE SMOOTH",
"276 600 OFFCURVE",
"301 557 OFFCURVE",
"282 483 CURVE SMOOTH",
"281 475 OFFCURVE",
"282 471 OFFCURVE",
"288 471 CURVE SMOOTH",
"334 471 LINE SMOOTH",
"338 471 OFFCURVE",
"341 474 OFFCURVE",
"344 483 CURVE SMOOTH",
"371 591 OFFCURVE",
"328 661 OFFCURVE",
"226 661 CURVE SMOOTH",
"133 661 OFFCURVE",
"80 597 OFFCURVE",
"80 502 CURVE SMOOTH",
"80 446 OFFCURVE",
"97 402 OFFCURVE",
"131 362 CURVE SMOOTH",
"192 291 LINE SMOOTH",
"226 252 OFFCURVE",
"242 217 OFFCURVE",
"242 166 CURVE SMOOTH",
"242 95 OFFCURVE",
"209 55 OFFCURVE",
"151 55 CURVE SMOOTH",
"90 55 OFFCURVE",
"72 97 OFFCURVE",
"89 179 CURVE SMOOTH",
"90 185 OFFCURVE",
"88 188 OFFCURVE",
"82 188 CURVE SMOOTH",
"36 188 LINE SMOOTH",
"32 188 OFFCURVE",
"29 185 OFFCURVE",
"27 179 CURVE SMOOTH",
"0 69 OFFCURVE",
"41 -6 OFFCURVE",
"145 -6 CURVE SMOOTH"
);
}
);
width = 334;
}
);
leftKerningGroup = S;
rightKerningGroup = S;
unicode = 0053;
},
{
glyphname = Germandbls;
lastChange = "2022-10-25 01:48:04 +0000";
layers = (
{
layerId = "9DFF46AD-73DE-422E-A6A3-16745129C94E";
paths = (
{
closed = 1;
nodes = (
"468 -6 OFFCURVE",
"535 75.111 OFFCURVE",
"535 225 CURVE SMOOTH",
"535 308 OFFCURVE",
"504 354 OFFCURVE",
"439 368 CURVE",
"558 631 LINE SMOOTH",
"564 643 OFFCURVE",
"559.833 655 OFFCURVE",
"550 655 CURVE SMOOTH",
"118 655 LINE SMOOTH",
"110 655 OFFCURVE",
"104.125 650.625 OFFCURVE",
"102 640 CURVE SMOOTH",
"2 15 LINE SMOOTH",
"0.185 5.016 OFFCURVE",
"4.867 0 OFFCURVE",
"16 0 CURVE SMOOTH",
"148 0 LINE SMOOTH",
"156 0 OFFCURVE",
"162 6 OFFCURVE",
"163 15 CURVE SMOOTH",
"242 509 LINE",
"348 509 LINE",
"282 356 LINE SMOOTH",
"278 347 OFFCURVE",
"276 339 OFFCURVE",
"275 332 CURVE SMOOTH",
"268 287 LINE SMOOTH",
"266 277 OFFCURVE",
"271 272 OFFCURVE",
"282 272 CURVE SMOOTH",
"313 272 LINE SMOOTH",
"353 272 OFFCURVE",
"375 253 OFFCURVE",
"375 214 CURVE SMOOTH",
"375 159 OFFCURVE",
"361 134 OFFCURVE",
"344 134 CURVE SMOOTH",
"333.258 134 OFFCURVE",
"330.202 143.475 OFFCURVE",
"334 165 CURVE SMOOTH",
"335.75 173.75 OFFCURVE",
"330.333 180 OFFCURVE",
"321 180 CURVE SMOOTH",
"227 182 LINE SMOOTH",
"219 182 OFFCURVE",
"214 177 OFFCURVE",
"212 167 CURVE SMOOTH",
"189.867 50.8 OFFCURVE",
"234 -6 OFFCURVE",
"343 -6 CURVE SMOOTH"
);
}
);
width = 540;
},
{
layerId = "7BE597F2-1213-4429-94A3-E96FC63EF83E";
paths = (
{
closed = 1;
nodes = (
"306.171 -6 OFFCURVE",
"357 81.763 OFFCURVE",
"357 234 CURVE SMOOTH",
"357 327 OFFCURVE",
"317 375 OFFCURVE",
"240 375 CURVE",
"384 648 LINE SMOOTH",
"385.954 651.909 OFFCURVE",
"385.071 655 OFFCURVE",
"382 655 CURVE SMOOTH",
"144 655 LINE SMOOTH",
"141 655 OFFCURVE",
"140 655 OFFCURVE",
"139 651 CURVE SMOOTH",
"36 5 LINE SMOOTH",
"35 0 OFFCURVE",
"37 0 OFFCURVE",
"40 0 CURVE SMOOTH",
"47 0 LINE SMOOTH",
"50 0 OFFCURVE",
"51 0 OFFCURVE",
"52 5 CURVE SMOOTH",
"153 639 LINE",
"360 639 LINE",
"220 369 LINE SMOOTH",
"219 367 OFFCURVE",
"218 365 OFFCURVE",
"218 363 CURVE SMOOTH",
"218 362 LINE SMOOTH",
"218 360 OFFCURVE",
"219 359 OFFCURVE",
"221 359 CURVE SMOOTH",
"240 359 LINE SMOOTH",
"306.879 359 OFFCURVE",
"341 315.757 OFFCURVE",
"341 231 CURVE SMOOTH",
"341 92.455 OFFCURVE",
"295.482 10 OFFCURVE",
"219 10 CURVE SMOOTH",
"163.9 10 OFFCURVE",
"142 47 OFFCURVE",
"152 120 CURVE SMOOTH",
"153 124 OFFCURVE",
"152.2 125 OFFCURVE",
"149 125 CURVE SMOOTH",
"142 125 LINE SMOOTH",
"138 125 OFFCURVE",
"136.76 125.042 OFFCURVE",
"136 120 CURVE SMOOTH",
"123.732 38.583 OFFCURVE",
"152.746 -6 OFFCURVE",
"218 -6 CURVE SMOOTH"
);
}
);
width = 388;
},
{
layerId = "F3DD84D5-00FA-4BE1-BE55-069AF9C50450";
paths = (
{
closed = 1;
nodes = (
"330 -6 OFFCURVE",
"380 82 OFFCURVE",
"380 245 CURVE SMOOTH",
"380 331 OFFCURVE",
"351 376 OFFCURVE",
"290 383 CURVE",
"414 634 LINE SMOOTH",
"418 645 OFFCURVE",
"421 655 OFFCURVE",
"412 655 CURVE SMOOTH",
"134 655 LINE SMOOTH",
"128 655 OFFCURVE",
"126 652 OFFCURVE",
"124 646 CURVE SMOOTH",
"23 9 LINE SMOOTH",
"22 4 OFFCURVE",
"25 0 OFFCURVE",
"30 0 CURVE SMOOTH",
"76 0 LINE SMOOTH",
"81 0 OFFCURVE",
"84 3 OFFCURVE",
"85 9 CURVE SMOOTH",
"178 594 LINE",
"327 594 LINE",
"226 382 LINE SMOOTH",
"224 378 OFFCURVE",
"222 375 OFFCURVE",
"221 370 CURVE SMOOTH",
"217 343 LINE SMOOTH",
"216 338 OFFCURVE",
"219 335 OFFCURVE",
"225 335 CURVE SMOOTH",
"238 335 LINE SMOOTH",
"292 335 OFFCURVE",
"318 303 OFFCURVE",
"318 237 CURVE SMOOTH",
"318 124 OFFCURVE",
"288 55 OFFCURVE",
"240 55 CURVE SMOOTH",
"207 55 OFFCURVE",
"193 81 OFFCURVE",
"200 128 CURVE SMOOTH",
"201 134 OFFCURVE",
"198 137 OFFCURVE",
"192 137 CURVE SMOOTH",
"148 137 LINE SMOOTH",
"143 137 OFFCURVE",
"140 135 OFFCURVE",
"139 128 CURVE SMOOTH",
"125 45 OFFCURVE",
"162 -6 OFFCURVE",
"236 -6 CURVE SMOOTH"
);
}
);
width = 396;
}
);
leftKerningGroup = H;
leftMetricsKey = H;
rightKerningGroup = S;
unicode = 1E9E;
},
{
glyphname = T;
lastChange = "2022-10-25 01:48:04 +0000";
layers = (
{
anchors = (
{
name = bottom;
position = "{177, 0}";
},
{
name = center;
position = "{232, 328}";
},
{
name = top;
position = "{284, 655}";
}
);
layerId = "9DFF46AD-73DE-422E-A6A3-16745129C94E";
paths = (
{
closed = 1;
nodes = (
"245 0 LINE SMOOTH",
"253 0 OFFCURVE",
"259 6 OFFCURVE",
"260 15 CURVE SMOOTH",
"339 509 LINE",
"439 509 LINE SMOOTH",
"448 509 OFFCURVE",
"453 516 OFFCURVE",
"454 524 CURVE SMOOTH",
"472 640 LINE SMOOTH",
"474 650 OFFCURVE",
"469 655 OFFCURVE",
"459 655 CURVE SMOOTH",
"99 655 LINE SMOOTH",
"91 655 OFFCURVE",
"86 650 OFFCURVE",
"84 640 CURVE SMOOTH",
"65 524 LINE SMOOTH",
"63 514 OFFCURVE",
"69 509 OFFCURVE",
"78 509 CURVE SMOOTH",
"178 509 LINE",
"99 15 LINE SMOOTH",
"97 4 OFFCURVE",
"103 0 OFFCURVE",
"113 0 CURVE SMOOTH"
);
}
);
width = 413;
},
{
anchors = (
{
name = bottom;
position = "{128, 0}";
},
{
name = center;
position = "{179, 328}";
},
{
name = top;
position = "{234, 655}";
}
);
layerId = "7BE597F2-1213-4429-94A3-E96FC63EF83E";
paths = (
{
closed = 1;
nodes = (
"131 0 LINE SMOOTH",
"134 0 OFFCURVE",
"135 0 OFFCURVE",
"136 5 CURVE SMOOTH",
"237 639 LINE",
"357 639 LINE SMOOTH",
"360 639 OFFCURVE",
"361 639 OFFCURVE",
"362 642 CURVE SMOOTH",
"364 651 LINE SMOOTH",
"365 655 OFFCURVE",
"363 655 OFFCURVE",
"361 655 CURVE SMOOTH",
"103 655 LINE SMOOTH",
"100 655 OFFCURVE",
"99 655 OFFCURVE",
"98 652 CURVE SMOOTH",
"96 643 LINE SMOOTH",
"95 639 OFFCURVE",
"97 639 OFFCURVE",
"99 639 CURVE SMOOTH",
"221 639 LINE",
"120 5 LINE SMOOTH",
"119 0 OFFCURVE",
"121 0 OFFCURVE",
"124 0 CURVE SMOOTH"
);
}
);
width = 314;
},
{
anchors = (
{
name = bottom;
position = "{130, 0}";
},
{
name = center;
position = "{183, 328}";
},
{
name = top;
position = "{236, 655}";
}
);
layerId = "F3DD84D5-00FA-4BE1-BE55-069AF9C50450";
paths = (
{
closed = 1;
nodes = (
"153 0 LINE SMOOTH",
"157 0 OFFCURVE",
"161 3 OFFCURVE",
"162 9 CURVE SMOOTH",
"255 594 LINE",
"357 594 LINE SMOOTH",
"362 594 OFFCURVE",
"365 597 OFFCURVE",
"366 602 CURVE SMOOTH",
"374 646 LINE SMOOTH",
"375 652 OFFCURVE",
"372 655 OFFCURVE",
"366 655 CURVE SMOOTH",
"99 655 LINE SMOOTH",
"94 655 OFFCURVE",
"91 652 OFFCURVE",
"90 646 CURVE SMOOTH",
"83 603 LINE SMOOTH",
"82 597 OFFCURVE",
"85 594 OFFCURVE",
"90 594 CURVE SMOOTH",
"192 594 LINE",
"100 9 LINE SMOOTH",
"99 3 OFFCURVE",
"102 0 OFFCURVE",
"107 0 CURVE SMOOTH"
);
}
);
width = 318;
}
);
leftKerningGroup = T;
rightKerningGroup = T;
unicode = 0054;
},
{
glyphname = Tbar;
lastChange = "2022-10-25 01:48:04 +0000";
layers = (
{
components = (
{
name = T;
}
);
layerId = "9DFF46AD-73DE-422E-A6A3-16745129C94E";
paths = (
{
closed = 1;
nodes = (
"138 258 LINE",
"299 258 LINE",
"344 258 LINE SMOOTH",
"352 258 OFFCURVE",
"358 264 OFFCURVE",
"359 273 CURVE SMOOTH",
"373 362 LINE SMOOTH",
"375 372 OFFCURVE",
"369 377 OFFCURVE",
"360 377 CURVE SMOOTH",
"112 377 LINE SMOOTH",
"103 377 OFFCURVE",
"99 372 OFFCURVE",
"97 362 CURVE SMOOTH",
"82 273 LINE SMOOTH",
"80 263 OFFCURVE",
"87 258 OFFCURVE",
"96 258 CURVE SMOOTH"
);
}
);
width = 413;
},
{
components = (
{
name = T;
}
);
layerId = "7BE597F2-1213-4429-94A3-E96FC63EF83E";
paths = (
{
closed = 1;
nodes = (
"172 328 LINE",
"187 328 LINE",
"266 328 LINE SMOOTH",
"269 328 OFFCURVE",
"270 328 OFFCURVE",
"271 331 CURVE SMOOTH",
"273 340 LINE SMOOTH",
"274 344 OFFCURVE",
"272 344 OFFCURVE",
"270 344 CURVE SMOOTH",
"96 344 LINE SMOOTH",
"93 344 OFFCURVE",
"92 344 OFFCURVE",
"91 341 CURVE SMOOTH",
"89 332 LINE SMOOTH",
"88 328 OFFCURVE",
"90 328 OFFCURVE",
"92 328 CURVE SMOOTH"
);
}
);
width = 314;
},
{
components = (
{
alignment = -1;
name = T;
}
);
layerId = "F3DD84D5-00FA-4BE1-BE55-069AF9C50450";
paths = (
{
closed = 1;
nodes = (
"147 309 LINE",
"210 309 LINE",
"265 309 LINE SMOOTH",
"271 309 OFFCURVE",
"273 313 OFFCURVE",
"274 318 CURVE SMOOTH",
"280 355 LINE SMOOTH",
"281 361 OFFCURVE",
"278 363 OFFCURVE",
"272 363 CURVE SMOOTH",
"100 363 LINE SMOOTH",
"95 363 OFFCURVE",
"92 360 OFFCURVE",
"91 355 CURVE SMOOTH",
"85 318 LINE SMOOTH",
"84 313 OFFCURVE",
"88 309 OFFCURVE",
"93 309 CURVE SMOOTH"
);
}
);
width = 318;
}
);
leftKerningGroup = T;
leftMetricsKey = "=T";
rightKerningGroup = T;
rightMetricsKey = "=T";
unicode = 0166;
},
{
glyphname = U;
lastChange = "2022-10-25 01:48:04 +0000";
layers = (
{
anchors = (
{
name = bottom;
position = "{209, 0}";
},
{
name = ogonek;
position = "{310, 10}";
},
{
name = top;
position = "{312, 655}";
},
{
name = topleft;
position = "{129, 655}";
},
{
name = topright;
position = "{529, 655}";
}
);
layerId = "9DFF46AD-73DE-422E-A6A3-16745129C94E";
paths = (
{
closed = 1;
nodes = (
"361 -6 OFFCURVE",
"429 67 OFFCURVE",
"456 235 CURVE SMOOTH",
"521 640 LINE SMOOTH",
"522.844 649.219 OFFCURVE",
"517.833 655 OFFCURVE",
"508 655 CURVE SMOOTH",
"375 655 LINE SMOOTH",
"366.5 655 OFFCURVE",
"362.125 650.625 OFFCURVE",
"360 640 CURVE SMOOTH",
"296 240 LINE SMOOTH",
"284 165 OFFCURVE",
"270 142 OFFCURVE",
"233 142 CURVE SMOOTH",
"198 142 OFFCURVE",
"186 171 OFFCURVE",
"197 240 CURVE SMOOTH",
"261 640 LINE SMOOTH",
"262.844 649.219 OFFCURVE",
"257.833 655 OFFCURVE",
"248 655 CURVE SMOOTH",
"115 655 LINE SMOOTH",
"106.5 655 OFFCURVE",
"102.125 650.625 OFFCURVE",
"100 640 CURVE SMOOTH",
"35 235 LINE SMOOTH",
"9.675 77.206 OFFCURVE",
"72.166 -6 OFFCURVE",
"216 -6 CURVE SMOOTH"
);
}
);
width = 478;
},
{
anchors = (
{
name = bottom;
position = "{164, 0}";
},
{
name = ogonek;
position = "{216, 10}";
},
{
name = top;
position = "{267, 655}";
},
{
name = topleft;
position = "{120, 655}";
},
{
name = topright;
position = "{445, 655}";
}
);
layerId = "7BE597F2-1213-4429-94A3-E96FC63EF83E";
paths = (
{
closed = 1;
nodes = (
"263 -6 OFFCURVE",
"304 50 OFFCURVE",
"327 194 CURVE SMOOTH",
"400 651 LINE SMOOTH",
"401 655 OFFCURVE",
"399 655 OFFCURVE",
"396 655 CURVE SMOOTH",
"389 655 LINE SMOOTH",
"386 655 OFFCURVE",
"385 655 OFFCURVE",
"384 651 CURVE SMOOTH",
"311 194 LINE SMOOTH",
"290 63 OFFCURVE",
"253 10 OFFCURVE",
"171 10 CURVE SMOOTH",
"91 10 OFFCURVE",
"57 66 OFFCURVE",
"78 196 CURVE SMOOTH",
"151 651 LINE SMOOTH",
"152 655 OFFCURVE",
"150 655 OFFCURVE",
"147 655 CURVE SMOOTH",
"140 655 LINE SMOOTH",
"137 655 OFFCURVE",
"136 655 OFFCURVE",
"135 651 CURVE SMOOTH",
"62 196 LINE SMOOTH",
"40 57 OFFCURVE",
"80 -6 OFFCURVE",
"169 -6 CURVE SMOOTH"
);
}
);
width = 386;
},
{
anchors = (
{
name = bottom;
position = "{167, 0}";
},
{
name = ogonek;
position = "{231, 10}";
},
{
name = top;
position = "{270, 655}";
},
{
name = topleft;
position = "{122, 655}";
},
{
name = topright;
position = "{450, 655}";
}
);
layerId = "F3DD84D5-00FA-4BE1-BE55-069AF9C50450";
paths = (
{
closed = 1;
nodes = (
"274 -6 OFFCURVE",
"323 54 OFFCURVE",
"346 199 CURVE SMOOTH",
"418 646 LINE SMOOTH",
"419 652 OFFCURVE",
"416 655 OFFCURVE",
"411 655 CURVE SMOOTH",
"365 655 LINE SMOOTH",
"360 655 OFFCURVE",
"357 652 OFFCURVE",
"356 646 CURVE SMOOTH",
"285 200 LINE SMOOTH",
"269 96 OFFCURVE",
"239 55 OFFCURVE",
"180 55 CURVE SMOOTH",
"118 55 OFFCURVE",
"95 101 OFFCURVE",
"111 200 CURVE SMOOTH",
"182 646 LINE SMOOTH",
"183 652 OFFCURVE",
"181 655 OFFCURVE",
"175 655 CURVE SMOOTH",
"130 655 LINE SMOOTH",
"124 655 OFFCURVE",
"121 653 OFFCURVE",
"120 646 CURVE SMOOTH",
"49 203 LINE SMOOTH",
"27 65 OFFCURVE",
"69 -6 OFFCURVE",
"175 -6 CURVE SMOOTH"
);
}
);
width = 392;
}
);
leftKerningGroup = U;
rightKerningGroup = U;
unicode = 0055;
},
{
glyphname = V;
lastChange = "2022-10-25 01:48:04 +0000";
layers = (
{
layerId = "9DFF46AD-73DE-422E-A6A3-16745129C94E";
paths = (
{
closed = 1;
nodes = (
"301 0 LINE SMOOTH",
"308 0 OFFCURVE",
"313 6 OFFCURVE",
"316 15 CURVE SMOOTH",
"543 640 LINE SMOOTH",
"546 649 OFFCURVE",
"541 655 OFFCURVE",
"531 655 CURVE SMOOTH",
"379 655 LINE SMOOTH",
"371 655 OFFCURVE",
"366 648 OFFCURVE",
"364 640 CURVE SMOOTH",
"265 287 LINE SMOOTH",
"252 242 OFFCURVE",
"241 196 OFFCURVE",
"229 151 CURVE",
"227 151 LINE",
"230 196 OFFCURVE",
"235 242 OFFCURVE",
"237 287 CURVE SMOOTH",
"249 640 LINE SMOOTH",
"249 651 OFFCURVE",
"243 655 OFFCURVE",
"234 655 CURVE SMOOTH",
"91 655 LINE SMOOTH",
"82 655 OFFCURVE",
"75 650 OFFCURVE",
"76 640 CURVE SMOOTH",
"110 15 LINE SMOOTH",
"111 5 OFFCURVE",
"117 0 OFFCURVE",
"125 0 CURVE SMOOTH"
);
}
);
width = 475;
},
{
layerId = "7BE597F2-1213-4429-94A3-E96FC63EF83E";
paths = (
{
closed = 1;
nodes = (
"146 0 LINE SMOOTH",
"148 0 OFFCURVE",
"149 0 OFFCURVE",
"150 3 CURVE SMOOTH",
"395 651 LINE SMOOTH",
"396 654 OFFCURVE",
"395 655 OFFCURVE",
"393 655 CURVE SMOOTH",
"383 655 LINE SMOOTH",
"381 655 OFFCURVE",
"380 655 OFFCURVE",
"379 652 CURVE SMOOTH",
"192 157 LINE SMOOTH",
"175 111 OFFCURVE",
"157 63 OFFCURVE",
"142 18 CURVE",
"141 18 LINE",
"140 64 OFFCURVE",
"138 109 OFFCURVE",
"135 155 CURVE SMOOTH",
"105 652 LINE SMOOTH",
"105 655 OFFCURVE",
"104 655 OFFCURVE",
"102 655 CURVE SMOOTH",
"92 655 LINE SMOOTH",
"90 655 OFFCURVE",
"89 654 OFFCURVE",
"89 652 CURVE SMOOTH",
"129 3 LINE SMOOTH",
"129 1 OFFCURVE",
"130 0 OFFCURVE",
"132 0 CURVE SMOOTH"
);
}
);
width = 336;
},
{
layerId = "F3DD84D5-00FA-4BE1-BE55-069AF9C50450";
paths = (
{
closed = 1;
nodes = (
"183 0 LINE SMOOTH",
"188 0 OFFCURVE",
"191 3 OFFCURVE",
"193 9 CURVE SMOOTH",
"419 646 LINE SMOOTH",
"421 652 OFFCURVE",
"418 655 OFFCURVE",
"412 655 CURVE SMOOTH",
"363 655 LINE SMOOTH",
"358 655 OFFCURVE",
"355 652 OFFCURVE",
"353 646 CURVE SMOOTH",
"205 215 LINE SMOOTH",
"189 167 OFFCURVE",
"175 122 OFFCURVE",
"161 75 CURVE",
"160 75 LINE",
"160 122 OFFCURVE",
"160 167 OFFCURVE",
"158 215 CURVE SMOOTH",
"148 646 LINE SMOOTH",
"148 652 OFFCURVE",
"144 655 OFFCURVE",
"139 655 CURVE SMOOTH",
"91 655 LINE SMOOTH",
"86 655 OFFCURVE",
"83 652 OFFCURVE",
"83 646 CURVE SMOOTH",
"108 9 LINE SMOOTH",
"108 3 OFFCURVE",
"111 0 OFFCURVE",
"117 0 CURVE SMOOTH"
);
}
);
width = 358;
}
);
leftKerningGroup = V;
rightKerningGroup = V;
unicode = 0056;
},
{
glyphname = W;
lastChange = "2022-10-25 01:48:04 +0000";
layers = (
{
anchors = (
{
name = bottom;
position = "{299, 0}";
},
{
name = top;
position = "{403, 655}";
}
);
layerId = "9DFF46AD-73DE-422E-A6A3-16745129C94E";
paths = (
{
closed = 1;
nodes = (
"237 0 LINE SMOOTH",
"244 0 OFFCURVE",
"249 5 OFFCURVE",
"252 15 CURVE SMOOTH",
"308 184 LINE SMOOTH",
"323 229 OFFCURVE",
"336 273 OFFCURVE",
"350 318 CURVE",
"352 318 LINE",
"351 273 OFFCURVE",
"350 229 OFFCURVE",
"350 184 CURVE SMOOTH",
"349 15 LINE SMOOTH",
"349 5 OFFCURVE",
"355 0 OFFCURVE",
"364 0 CURVE SMOOTH",
"501 0 LINE SMOOTH",
"509 0 OFFCURVE",
"513 6 OFFCURVE",
"516 15 CURVE SMOOTH",
"725 640 LINE SMOOTH",
"728 649 OFFCURVE",
"721 655 OFFCURVE",
"713 655 CURVE SMOOTH",
"585 655 LINE SMOOTH",
"576 655 OFFCURVE",
"573 650 OFFCURVE",
"570 640 CURVE SMOOTH",
"515 433 LINE SMOOTH",
"492 347 OFFCURVE",
"472 259 OFFCURVE",
"457 172 CURVE",
"456 172 LINE",
"458 222 OFFCURVE",
"459 271 OFFCURVE",
"460 321 CURVE SMOOTH",
"466 623 LINE SMOOTH",
"466 633 OFFCURVE",
"463 638 OFFCURVE",
"451 638 CURVE SMOOTH",
"326 638 LINE SMOOTH",
"317 638 OFFCURVE",
"311 633 OFFCURVE",
"311 623 CURVE SMOOTH",
"316 515 LINE",
"247 314 LINE SMOOTH",
"231 267 OFFCURVE",
"215 219 OFFCURVE",
"201 172 CURVE",
"199 172 LINE",
"208 256 OFFCURVE",
"218 341 OFFCURVE",
"222 425 CURVE SMOOTH",
"233 640 LINE SMOOTH",
"234 650 OFFCURVE",
"227 655 OFFCURVE",
"218 655 CURVE SMOOTH",
"90 655 LINE SMOOTH",
"80 655 OFFCURVE",
"75 650 OFFCURVE",
"75 640 CURVE SMOOTH",
"83 15 LINE SMOOTH",
"83 5 OFFCURVE",
"89 0 OFFCURVE",
"98 0 CURVE SMOOTH"
);
}
);
width = 658;
},
{
anchors = (
{
name = bottom;
position = "{224, 0}";
},
{
name = top;
position = "{319, 655}";
}
);
layerId = "7BE597F2-1213-4429-94A3-E96FC63EF83E";
paths = (
{
closed = 1;
nodes = (
"126 0 LINE SMOOTH",
"129 0 OFFCURVE",
"131 0 OFFCURVE",
"132 4 CURVE SMOOTH",
"251 347 LINE SMOOTH",
"265 387 OFFCURVE",
"280 433 OFFCURVE",
"294 474 CURVE",
"295 474 LINE",
"294 433 OFFCURVE",
"294 387 OFFCURVE",
"295 346 CURVE SMOOTH",
"300 4 LINE SMOOTH",
"300 0 OFFCURVE",
"302 0 OFFCURVE",
"305 0 CURVE",
"319 0 LINE SMOOTH",
"322 0 OFFCURVE",
"324 0 OFFCURVE",
"325 4 CURVE SMOOTH",
"545 652 LINE SMOOTH",
"546 655 OFFCURVE",
"544 655 OFFCURVE",
"542 655 CURVE SMOOTH",
"533 655 LINE SMOOTH",
"531 655 OFFCURVE",
"530 655 OFFCURVE",
"529 652 CURVE SMOOTH",
"357 146 LINE SMOOTH",
"342 103 OFFCURVE",
"329 60 OFFCURVE",
"315 17 CURVE",
"314 17 LINE",
"314 60 OFFCURVE",
"314 102 OFFCURVE",
"313 145 CURVE SMOOTH",
"306 641 LINE SMOOTH",
"306 644 OFFCURVE",
"305 645 OFFCURVE",
"302 645 CURVE SMOOTH",
"295 645 LINE SMOOTH",
"292 645 OFFCURVE",
"291 644 OFFCURVE",
"291 640 CURVE SMOOTH",
"292 510 LINE",
"163 136 LINE SMOOTH",
"149 96 OFFCURVE",
"136 57 OFFCURVE",
"122 17 CURVE",
"121 17 LINE",
"120 57 OFFCURVE",
"119 98 OFFCURVE",
"118 138 CURVE SMOOTH",
"107 652 LINE SMOOTH",
"107 654 OFFCURVE",
"107 655 OFFCURVE",
"105 655 CURVE SMOOTH",
"94 655 LINE SMOOTH",
"92 655 OFFCURVE",
"91 654 OFFCURVE",
"91 652 CURVE SMOOTH",
"108 4 LINE SMOOTH",
"108 0 OFFCURVE",
"110 0 OFFCURVE",
"113 0 CURVE SMOOTH"
);
}
);
width = 489;
},
{
anchors = (
{
name = bottom;
position = "{229, 0}";
},
{
name = top;
position = "{332, 655}";
}
);
layerId = "F3DD84D5-00FA-4BE1-BE55-069AF9C50450";
paths = (
{
closed = 1;
nodes = (
"157 0 LINE SMOOTH",
"161 0 OFFCURVE",
"165 3 OFFCURVE",
"167 9 CURVE SMOOTH",
"257 276 LINE SMOOTH",
"270 315 OFFCURVE",
"282 357 OFFCURVE",
"293 397 CURVE",
"295 397 LINE",
"293 354 OFFCURVE",
"293 312 OFFCURVE",
"293 274 CURVE SMOOTH",
"290 9 LINE SMOOTH",
"290 2 OFFCURVE",
"294 0 OFFCURVE",
"299 0 CURVE SMOOTH",
"360 0 LINE SMOOTH",
"365 0 OFFCURVE",
"368 3 OFFCURVE",
"370 9 CURVE SMOOTH",
"573 646 LINE SMOOTH",
"575 653 OFFCURVE",
"572 655 OFFCURVE",
"566 655 CURVE SMOOTH",
"518 655 LINE SMOOTH",
"514 655 OFFCURVE",
"511 652 OFFCURVE",
"509 646 CURVE SMOOTH",
"386 244 LINE SMOOTH",
"369 186 OFFCURVE",
"352 124 OFFCURVE",
"342 78 CURVE",
"340 78 LINE",
"342 123 OFFCURVE",
"344 167 OFFCURVE",
"344 212 CURVE SMOOTH",
"346 636 LINE SMOOTH",
"346 642 OFFCURVE",
"342 645 OFFCURVE",
"337 645 CURVE SMOOTH",
"290 645 LINE SMOOTH",
"285 645 OFFCURVE",
"281 642 OFFCURVE",
"281 636 CURVE SMOOTH",
"282 508 LINE",
"183 210 LINE SMOOTH",
"168 166 OFFCURVE",
"155 122 OFFCURVE",
"142 78 CURVE",
"140 78 LINE",
"143 122 OFFCURVE",
"147 191 OFFCURVE",
"148 243 CURVE SMOOTH",
"150 646 LINE SMOOTH",
"150 652 OFFCURVE",
"147 655 OFFCURVE",
"141 655 CURVE SMOOTH",
"95 655 LINE SMOOTH",
"90 655 OFFCURVE",
"86 652 OFFCURVE",
"86 646 CURVE SMOOTH",
"91 9 LINE SMOOTH",
"91 2 OFFCURVE",
"95 0 OFFCURVE",
"100 0 CURVE SMOOTH"
);
}
);
width = 514;
}
);
leftKerningGroup = W;
rightKerningGroup = W;
unicode = 0057;
},
{
glyphname = X;
lastChange = "2022-10-25 01:48:04 +0000";
layers = (
{
layerId = "9DFF46AD-73DE-422E-A6A3-16745129C94E";
paths = (
{
closed = 1;
nodes = (
"144 0 LINE SMOOTH",
"153 0 OFFCURVE",
"157 6 OFFCURVE",
"161 15 CURVE SMOOTH",
"201 113 LINE SMOOTH",
"213 143 OFFCURVE",
"225 174 OFFCURVE",
"235 204 CURVE",
"237 204 LINE",
"239 174 OFFCURVE",
"241 144 OFFCURVE",
"244 114 CURVE SMOOTH",
"254 15 LINE SMOOTH",
"255 5 OFFCURVE",
"259 0 OFFCURVE",
"269 0 CURVE SMOOTH",
"419 0 LINE SMOOTH",
"429 0 OFFCURVE",
"433 6 OFFCURVE",
"431 15 CURVE SMOOTH",
"344 335 LINE",
"522 640 LINE SMOOTH",
"527 648 OFFCURVE",
"521 655 OFFCURVE",
"513 655 CURVE SMOOTH",
"350 655 LINE SMOOTH",
"343 655 OFFCURVE",
"338 650 OFFCURVE",
"335 640 CURVE SMOOTH",
"307 558 LINE SMOOTH",
"296 527 OFFCURVE",
"286 496 OFFCURVE",
"275 465 CURVE",
"274 465 LINE",
"272 496 OFFCURVE",
"270 527 OFFCURVE",
"266 558 CURVE SMOOTH",
"256 640 LINE SMOOTH",
"255 650 OFFCURVE",
"251 655 OFFCURVE",
"241 655 CURVE SMOOTH",
"94 655 LINE SMOOTH",
"84 655 OFFCURVE",
"79 648 OFFCURVE",
"81 640 CURVE SMOOTH",
"164 335 LINE",
"-26 15 LINE SMOOTH",
"-30 8 OFFCURVE",
"-28 0 OFFCURVE",
"-16 0 CURVE SMOOTH"
);
}
);
width = 460;
},
{
layerId = "7BE597F2-1213-4429-94A3-E96FC63EF83E";
paths = (
{
closed = 1;
nodes = (
"-8 0 LINE SMOOTH",
"-5 0 OFFCURVE",
"-4 1 OFFCURVE",
"-2 4 CURVE SMOOTH",
"115 208 LINE SMOOTH",
"136 245 OFFCURVE",
"158 282 OFFCURVE",
"179 319 CURVE",
"180 319 LINE",
"190 281 OFFCURVE",
"200 244 OFFCURVE",
"210 206 CURVE SMOOTH",
"263 3 LINE SMOOTH",
"264 0 OFFCURVE",
"265 0 OFFCURVE",
"267 0 CURVE SMOOTH",
"276 0 LINE SMOOTH",
"278 0 OFFCURVE",
"280 1 OFFCURVE",
"279 4 CURVE SMOOTH",
"192 334 LINE",
"374 651 LINE SMOOTH",
"376 654 OFFCURVE",
"375 655 OFFCURVE",
"372 655 CURVE SMOOTH",
"361 655 LINE SMOOTH",
"359 655 OFFCURVE",
"358 655 OFFCURVE",
"356 651 CURVE SMOOTH",
"237 443 LINE SMOOTH",
"220 413 OFFCURVE",
"202 382 OFFCURVE",
"185 352 CURVE",
"184 352 LINE",
"175 384 OFFCURVE",
"167 417 OFFCURVE",
"158 449 CURVE SMOOTH",
"105 652 LINE SMOOTH",
"104 655 OFFCURVE",
"103 655 OFFCURVE",
"101 655 CURVE SMOOTH",
"92 655 LINE SMOOTH",
"90 655 OFFCURVE",
"88 654 OFFCURVE",
"89 650 CURVE SMOOTH",
"171 337 LINE",
"-20 4 LINE SMOOTH",
"-21 2 OFFCURVE",
"-21 0 OFFCURVE",
"-18 0 CURVE SMOOTH"
);
}
);
width = 316;
},
{
layerId = "F3DD84D5-00FA-4BE1-BE55-069AF9C50450";
paths = (
{
closed = 1;
nodes = (
"36 0 LINE SMOOTH",
"40 0 OFFCURVE",
"43 3 OFFCURVE",
"46 9 CURVE SMOOTH",
"129 168 LINE SMOOTH",
"148 205 OFFCURVE",
"167 244 OFFCURVE",
"184 282 CURVE",
"185 282 LINE",
"191 244 OFFCURVE",
"198 204 OFFCURVE",
"205 166 CURVE SMOOTH",
"236 9 LINE SMOOTH",
"237 2 OFFCURVE",
"239 0 OFFCURVE",
"244 0 CURVE SMOOTH",
"295 0 LINE SMOOTH",
"300 0 OFFCURVE",
"304 3 OFFCURVE",
"303 9 CURVE SMOOTH",
"230 336 LINE",
"397 646 LINE SMOOTH",
"399 652 OFFCURVE",
"397 655 OFFCURVE",
"391 655 CURVE SMOOTH",
"338 655 LINE SMOOTH",
"333 655 OFFCURVE",
"331 652 OFFCURVE",
"328 646 CURVE SMOOTH",
"252 499 LINE SMOOTH",
"234 463 OFFCURVE",
"216 427 OFFCURVE",
"199 391 CURVE",
"198 391 LINE",
"193 427 OFFCURVE",
"186 464 OFFCURVE",
"179 500 CURVE SMOOTH",
"150 646 LINE SMOOTH",
"149 653 OFFCURVE",
"147 655 OFFCURVE",
"141 655 CURVE SMOOTH",
"91 655 LINE SMOOTH",
"86 655 OFFCURVE",
"82 652 OFFCURVE",
"83 646 CURVE SMOOTH",
"152 338 LINE",
"-26 9 LINE SMOOTH",
"-28 3 OFFCURVE",
"-26 0 OFFCURVE",
"-20 0 CURVE SMOOTH"
);
}
);
width = 333;
}
);
leftKerningGroup = X;
rightKerningGroup = X;
unicode = 0058;
},
{
glyphname = Y;
lastChange = "2022-10-25 01:48:04 +0000";
layers = (
{
anchors = (
{
name = bottom;
position = "{200, 0}";
},
{
name = top;
position = "{297, 655}";
},
{
name = topleft;
position = "{82, 655}";
}
);
layerId = "9DFF46AD-73DE-422E-A6A3-16745129C94E";
paths = (
{
closed = 1;
nodes = (
"268 0 LINE SMOOTH",
"276 0 OFFCURVE",
"282 6 OFFCURVE",
"283 15 CURVE SMOOTH",
"317 227 LINE",
"528 640 LINE SMOOTH",
"533 649 OFFCURVE",
"527 655 OFFCURVE",
"518 655 CURVE SMOOTH",
"366 655 LINE SMOOTH",
"358 655 OFFCURVE",
"353 649 OFFCURVE",
"350 640 CURVE SMOOTH",
"296 490 LINE SMOOTH",
"282 451 OFFCURVE",
"270 413 OFFCURVE",
"257 374 CURVE",
"255 374 LINE",
"254 413 OFFCURVE",
"253 452 OFFCURVE",
"251 491 CURVE SMOOTH",
"244 640 LINE SMOOTH",
"243 651 OFFCURVE",
"238 655 OFFCURVE",
"229 655 CURVE SMOOTH",
"87 655 LINE SMOOTH",
"78 655 OFFCURVE",
"72 649 OFFCURVE",
"74 640 CURVE SMOOTH",
"156 227 LINE",
"122 15 LINE SMOOTH",
"120 4 OFFCURVE",
"126 0 OFFCURVE",
"136 0 CURVE SMOOTH"
);
}
);
width = 459;
},
{
anchors = (
{
name = bottom;
position = "{126, 0}";
},
{
name = top;
position = "{225, 655}";
},
{
name = topleft;
position = "{91, 655}";
}
);
layerId = "7BE597F2-1213-4429-94A3-E96FC63EF83E";
paths = (
{
closed = 1;
nodes = (
"131 0 LINE SMOOTH",
"133 0 OFFCURVE",
"134 0 OFFCURVE",
"135 5 CURVE SMOOTH",
"170 225 LINE",
"370 651 LINE SMOOTH",
"371 654 OFFCURVE",
"370 655 OFFCURVE",
"367 655 CURVE SMOOTH",
"359 655 LINE SMOOTH",
"356 655 OFFCURVE",
"355 655 OFFCURVE",
"353 651 CURVE SMOOTH",
"221 369 LINE SMOOTH",
"202 329 OFFCURVE",
"184 290 OFFCURVE",
"166 250 CURVE",
"165 250 LINE",
"159 291 OFFCURVE",
"152 333 OFFCURVE",
"146 374 CURVE SMOOTH",
"104 651 LINE SMOOTH",
"103 655 OFFCURVE",
"102 655 OFFCURVE",
"99 655 CURVE SMOOTH",
"91 655 LINE SMOOTH",
"89 655 OFFCURVE",
"87 654 OFFCURVE",
"88 650 CURVE SMOOTH",
"154 225 LINE",
"119 5 LINE SMOOTH",
"118 0 OFFCURVE",
"120 0 OFFCURVE",
"122 0 CURVE SMOOTH"
);
}
);
width = 311;
},
{
anchors = (
{
name = bottom;
position = "{138, 0}";
},
{
name = top;
position = "{238, 655}";
},
{
name = topleft;
position = "{88, 655}";
}
);
layerId = "F3DD84D5-00FA-4BE1-BE55-069AF9C50450";
paths = (
{
closed = 1;
nodes = (
"162 0 LINE SMOOTH",
"166 0 OFFCURVE",
"170 3 OFFCURVE",
"171 9 CURVE SMOOTH",
"205 225 LINE",
"400 646 LINE SMOOTH",
"402 652 OFFCURVE",
"399 655 OFFCURVE",
"393 655 CURVE SMOOTH",
"340 655 LINE SMOOTH",
"335 655 OFFCURVE",
"332 653 OFFCURVE",
"330 646 CURVE SMOOTH",
"234 425 LINE SMOOTH",
"217 385 OFFCURVE",
"201 346 OFFCURVE",
"186 306 CURVE",
"185 306 LINE",
"182 347 OFFCURVE",
"178 387 OFFCURVE",
"173 426 CURVE SMOOTH",
"149 646 LINE SMOOTH",
"148 653 OFFCURVE",
"146 655 OFFCURVE",
"140 655 CURVE SMOOTH",
"90 655 LINE SMOOTH",
"84 655 OFFCURVE",
"81 652 OFFCURVE",
"82 646 CURVE SMOOTH",
"143 224 LINE",
"109 9 LINE SMOOTH",
"108 3 OFFCURVE",
"112 0 OFFCURVE",
"116 0 CURVE SMOOTH"
);
}
);
width = 335;
}
);
leftKerningGroup = Y;
rightKerningGroup = Y;
unicode = 0059;
},
{
glyphname = Z;
lastChange = "2022-10-25 01:48:04 +0000";
layers = (
{
anchors = (
{
name = bottom;
position = "{173, 0}";
},
{
name = top;
position = "{290, 655}";
}
);
layerId = "9DFF46AD-73DE-422E-A6A3-16745129C94E";
paths = (
{
closed = 1;
nodes = (
"346 0 LINE SMOOTH",
"355 0 OFFCURVE",
"360 7 OFFCURVE",
"361 15 CURVE SMOOTH",
"379 131 LINE SMOOTH",
"381 141 OFFCURVE",
"376 146 OFFCURVE",
"366 146 CURVE SMOOTH",
"283 146 LINE SMOOTH",
"259 146 OFFCURVE",
"229 146 OFFCURVE",
"204 144 CURVE",
"204 146 LINE",
"224 175 OFFCURVE",
"251 217 OFFCURVE",
"272 256 CURVE SMOOTH",
"469 618 LINE SMOOTH",
"472 623 OFFCURVE",
"474 629 OFFCURVE",
"475 635 CURVE SMOOTH",
"476 641 LINE SMOOTH",
"477 649 OFFCURVE",
"474 655 OFFCURVE",
"466 655 CURVE SMOOTH",
"109 655 LINE SMOOTH",
"101 655 OFFCURVE",
"96 650 OFFCURVE",
"94 640 CURVE SMOOTH",
"75 524 LINE SMOOTH",
"73 514 OFFCURVE",
"79 509 OFFCURVE",
"88 509 CURVE SMOOTH",
"162 509 LINE SMOOTH",
"187 509 OFFCURVE",
"220 510 OFFCURVE",
"246 511 CURVE",
"246 510 LINE",
"227 481 OFFCURVE",
"198 434 OFFCURVE",
"176 394 CURVE SMOOTH",
"-16 37 LINE SMOOTH",
"-19 32 OFFCURVE",
"-20 26 OFFCURVE",
"-21 20 CURVE SMOOTH",
"-22 14 LINE SMOOTH",
"-24 6 OFFCURVE",
"-20 0 OFFCURVE",
"-13 0 CURVE SMOOTH"
);
}
);
width = 412;
},
{
anchors = (
{
name = bottom;
position = "{118, 0}";
},
{
name = top;
position = "{235, 655}";
}
);
layerId = "7BE597F2-1213-4429-94A3-E96FC63EF83E";
paths = (
{
closed = 1;
nodes = (
"236 0 LINE SMOOTH",
"239 0 OFFCURVE",
"240 0 OFFCURVE",
"241 3 CURVE SMOOTH",
"243 12 LINE SMOOTH",
"244 16 OFFCURVE",
"242 16 OFFCURVE",
"240 16 CURVE SMOOTH",
"96 16 LINE SMOOTH",
"65 16 OFFCURVE",
"34 16 OFFCURVE",
"3 16 CURVE",
"3 17 LINE",
"20 48 OFFCURVE",
"38 79 OFFCURVE",
"55 110 CURVE SMOOTH",
"352 640 LINE SMOOTH",
"353 642 OFFCURVE",
"354 644 OFFCURVE",
"355 647 CURVE SMOOTH",
"356 651 LINE SMOOTH",
"357 655 OFFCURVE",
"354 655 OFFCURVE",
"352 655 CURVE SMOOTH",
"109 655 LINE SMOOTH",
"106 655 OFFCURVE",
"105 655 OFFCURVE",
"104 652 CURVE SMOOTH",
"102 643 LINE SMOOTH",
"101 639 OFFCURVE",
"103 639 OFFCURVE",
"105 639 CURVE SMOOTH",
"245 639 LINE SMOOTH",
"274 639 OFFCURVE",
"304 639 OFFCURVE",
"333 639 CURVE",
"333 638 LINE",
"318 611 OFFCURVE",
"301 582 OFFCURVE",
"286 555 CURVE SMOOTH",
"-15 16 LINE SMOOTH",
"-17 13 OFFCURVE",
"-17 13 OFFCURVE",
"-18 9 CURVE SMOOTH",
"-19 4 LINE SMOOTH",
"-20 0 OFFCURVE",
"-19 0 OFFCURVE",
"-16 0 CURVE SMOOTH"
);
}
);
width = 295;
},
{
anchors = (
{
name = bottom;
position = "{132, 0}";
},
{
name = top;
position = "{242, 655}";
}
);
layerId = "F3DD84D5-00FA-4BE1-BE55-069AF9C50450";
paths = (
{
closed = 1;
nodes = (
"260 0 LINE SMOOTH",
"266 0 OFFCURVE",
"268 3 OFFCURVE",
"269 9 CURVE SMOOTH",
"276 52 LINE SMOOTH",
"277 58 OFFCURVE",
"274 61 OFFCURVE",
"269 61 CURVE SMOOTH",
"152 61 LINE SMOOTH",
"126 61 OFFCURVE",
"103 61 OFFCURVE",
"75 61 CURVE",
"75 62 LINE",
"90 90 OFFCURVE",
"105 118 OFFCURVE",
"120 147 CURVE SMOOTH",
"380 632 LINE SMOOTH",
"382 636 OFFCURVE",
"384 639 OFFCURVE",
"385 643 CURVE SMOOTH",
"386 649 LINE SMOOTH",
"387 653 OFFCURVE",
"385 655 OFFCURVE",
"379 655 CURVE SMOOTH",
"111 655 LINE SMOOTH",
"105 655 OFFCURVE",
"103 652 OFFCURVE",
"102 646 CURVE SMOOTH",
"95 603 LINE SMOOTH",
"94 597 OFFCURVE",
"97 594 OFFCURVE",
"102 594 CURVE SMOOTH",
"214 594 LINE SMOOTH",
"238 594 OFFCURVE",
"264 594 OFFCURVE",
"291 594 CURVE",
"291 593 LINE",
"272 559 OFFCURVE",
"253 525 OFFCURVE",
"235 490 CURVE SMOOTH",
"-13 23 LINE SMOOTH",
"-15 19 OFFCURVE",
"-16 16 OFFCURVE",
"-17 12 CURVE SMOOTH",
"-18 6 LINE SMOOTH",
"-19 2 OFFCURVE",
"-17 0 OFFCURVE",
"-12 0 CURVE SMOOTH"
);
}
);
width = 324;
}
);
leftKerningGroup = Z;
rightKerningGroup = Z;
unicode = 005A;
},
{
glyphname = a;
lastChange = "2022-10-25 01:49:53 +0000";
layers = (
{
anchors = (
{
name = bottom;
position = "{170, 0}";
},
{
name = ogonek;
position = "{345, 10}";
},
{
name = top;
position = "{243, 497}";
}
);
layerId = "9DFF46AD-73DE-422E-A6A3-16745129C94E";
paths = (
{
closed = 1;
nodes = (
"130.523 -6 OFFCURVE",
"174.567 16.534 OFFCURVE",
"215 60 CURVE",
"213.077 43.654 OFFCURVE",
"212 27.5 OFFCURVE",
"212 15 CURVE SMOOTH",
"212 4.5 OFFCURVE",
"216.5 0 OFFCURVE",
"227 0 CURVE SMOOTH",
"333 0 LINE SMOOTH",
"342 0 OFFCURVE",
"347 5 OFFCURVE",
"348 15 CURVE SMOOTH",
"351.297 47.972 OFFCURVE",
"357 90 OFFCURVE",
"364 132 CURVE SMOOTH",
"420 487 LINE",
"365 489 OFFCURVE",
"298 506 OFFCURVE",
"222 506 CURVE SMOOTH",
"114.98 506 OFFCURVE",
"65.465 463.884 OFFCURVE",
"48 358 CURVE SMOOTH",
"13 140 LINE SMOOTH",
"-3.507 39.014 OFFCURVE",
"19 -6 OFFCURVE",
"86 -6 CURVE SMOOTH"
);
},
{
closed = 1;
nodes = (
"172.9 131 OFFCURVE",
"169.29 138.737 OFFCURVE",
"173 161 CURVE SMOOTH",
"204 351 LINE SMOOTH",
"207 372 OFFCURVE",
"213 378 OFFCURVE",
"227 378 CURVE SMOOTH",
"233 378 OFFCURVE",
"236.6 377.35 OFFCURVE",
"246 375 CURVE",
"208 139 LINE",
"199.317 133.573 OFFCURVE",
"192.562 131 OFFCURVE",
"187 131 CURVE SMOOTH"
);
}
);
width = 396;
},
{
anchors = (
{
name = bottom;
position = "{111, 0}";
},
{
name = ogonek;
position = "{245, 10}";
},
{
name = top;
position = "{200, 478}";
}
);
layerId = "7BE597F2-1213-4429-94A3-E96FC63EF83E";
paths = (
{
closed = 1;
nodes = (
"149 -6 OFFCURVE",
"195 32 OFFCURVE",
"233 75 CURVE",
"229 54 OFFCURVE",
"225 27 OFFCURVE",
"224 3 CURVE SMOOTH",
"224 0 OFFCURVE",
"225 0 OFFCURVE",
"227 0 CURVE SMOOTH",
"237 0 LINE SMOOTH",
"239 0 OFFCURVE",
"240 1 OFFCURVE",
"240 3 CURVE SMOOTH",
"243 37 OFFCURVE",
"247 62 OFFCURVE",
"255 111 CURVE SMOOTH",
"310 462 LINE",
"273 471 OFFCURVE",
"238 484 OFFCURVE",
"200 484 CURVE SMOOTH",
"125 484 OFFCURVE",
"86 438 OFFCURVE",
"70 338 CURVE SMOOTH",
"36 123 LINE SMOOTH",
"21 32 OFFCURVE",
"44 -6 OFFCURVE",
"102 -6 CURVE SMOOTH"
);
},
{
closed = 1;
nodes = (
"53 10 OFFCURVE",
"39 44 OFFCURVE",
"52 126 CURVE SMOOTH",
"86 338 LINE SMOOTH",
"100 427 OFFCURVE",
"135 468 OFFCURVE",
"199 468 CURVE SMOOTH",
"227 468 OFFCURVE",
"261 459 OFFCURVE",
"292 450 CURVE",
"237 98 LINE",
"190 48 OFFCURVE",
"148 10 OFFCURVE",
"103 10 CURVE SMOOTH"
);
}
);
width = 325;
},
{
anchors = (
{
name = bottom;
position = "{123, 0}";
},
{
name = ogonek;
position = "{260, 10}";
},
{
name = top;
position = "{211, 486}";
}
);
layerId = "F3DD84D5-00FA-4BE1-BE55-069AF9C50450";
paths = (
{
closed = 1;
nodes = (
"140 -6 OFFCURVE",
"175 22 OFFCURVE",
"207 56 CURVE",
"204 39 OFFCURVE",
"203 22 OFFCURVE",
"202 9 CURVE SMOOTH",
"202 2 OFFCURVE",
"205 0 OFFCURVE",
"210 0 CURVE SMOOTH",
"250 0 LINE SMOOTH",
"256 0 OFFCURVE",
"259 2 OFFCURVE",
"259 9 CURVE SMOOTH",
"259 31 OFFCURVE",
"263 62 OFFCURVE",
"273 120 CURVE SMOOTH",
"330 473 LINE",
"284 479 OFFCURVE",
"250 492 OFFCURVE",
"201 492 CURVE SMOOTH",
"123 492 OFFCURVE",
"80 448 OFFCURVE",
"62 339 CURVE SMOOTH",
"28 123 LINE SMOOTH",
"13 32 OFFCURVE",
"44 -6 OFFCURVE",
"97 -6 CURVE SMOOTH"
);
},
{
closed = 1;
nodes = (
"92 55 OFFCURVE",
"82 75 OFFCURVE",
"90 124 CURVE SMOOTH",
"123 333 LINE SMOOTH",
"135 407 OFFCURVE",
"157 431 OFFCURVE",
"198 431 CURVE SMOOTH",
"219 431 OFFCURVE",
"240 427 OFFCURVE",
"259 422 CURVE",
"211 113 LINE",
"181 79 OFFCURVE",
"149 55 OFFCURVE",
"122 55 CURVE SMOOTH"
);
}
);
width = 328;
}
);
leftKerningGroup = o;
leftMetricsKey = o;
rightKerningGroup = u;
rightMetricsKey = u;
unicode = 0061;
},
{
glyphname = ae;
lastChange = "2022-10-25 01:49:53 +0000";
layers = (
{
layerId = "9DFF46AD-73DE-422E-A6A3-16745129C94E";
paths = (
{
closed = 1;
nodes = (
"142 -6 OFFCURVE",
"180 17 OFFCURVE",
"221 64 CURVE",
"247 18 OFFCURVE",
"292 -6 OFFCURVE",
"363 -6 CURVE SMOOTH",
"487 -6 OFFCURVE",
"544 41 OFFCURVE",
"554 151 CURVE SMOOTH",
"555 161 OFFCURVE",
"550 166 OFFCURVE",
"541 166 CURVE SMOOTH",
"421 166 LINE SMOOTH",
"413 166 OFFCURVE",
"407 160 OFFCURVE",
"406 151 CURVE SMOOTH",
"403 122 OFFCURVE",
"396 113 OFFCURVE",
"377 113 CURVE SMOOTH",
"360 113 OFFCURVE",
"353 125 OFFCURVE",
"357 152 CURVE SMOOTH",
"365 204 LINE",
"426 209 LINE SMOOTH",
"535 218 OFFCURVE",
"592 278 OFFCURVE",
"592 386 CURVE SMOOTH",
"592 466 OFFCURVE",
"540 506 OFFCURVE",
"458 506 CURVE SMOOTH",
"410 506 OFFCURVE",
"367 491 OFFCURVE",
"338 457 CURVE",
"319 489 OFFCURVE",
"283 506 OFFCURVE",
"228 506 CURVE SMOOTH",
"122 506 OFFCURVE",
"58 451 OFFCURVE",
"54 343 CURVE SMOOTH",
"54 333 OFFCURVE",
"59 328 OFFCURVE",
"69 328 CURVE SMOOTH",
"178 328 LINE SMOOTH",
"187 328 OFFCURVE",
"193 334 OFFCURVE",
"193 343 CURVE SMOOTH",
"193 374 OFFCURVE",
"200 390 OFFCURVE",
"218 390 CURVE SMOOTH",
"234 390 OFFCURVE",
"239 377 OFFCURVE",
"235 351 CURVE SMOOTH",
"226 292 LINE",
"170 286 LINE SMOOTH",
"49 272 OFFCURVE",
"-1 208 OFFCURVE",
"-1 96 CURVE SMOOTH",
"-1 33 OFFCURVE",
"36 -6 OFFCURVE",
"94 -6 CURVE SMOOTH"
);
},
{
closed = 1;
nodes = (
"158 111 OFFCURVE",
"152 119 OFFCURVE",
"152 141 CURVE SMOOTH",
"152 175 OFFCURVE",
"168 198 OFFCURVE",
"200 201 CURVE SMOOTH",
"211 202 LINE",
"209 187 LINE SMOOTH",
"206 166 OFFCURVE",
"204 147 OFFCURVE",
"205 130 CURVE",
"192 117 OFFCURVE",
"182 111 OFFCURVE",
"171 111 CURVE SMOOTH"
);
},
{
closed = 1;
nodes = (
"389 350 LINE SMOOTH",
"393 377 OFFCURVE",
"401 387 OFFCURVE",
"418 387 CURVE SMOOTH",
"433 387 OFFCURVE",
"441 377 OFFCURVE",
"441 358 CURVE SMOOTH",
"441 326 OFFCURVE",
"421 302 OFFCURVE",
"393 298 CURVE SMOOTH",
"380 296 LINE"
);
}
);
width = 584;
},
{
layerId = "7BE597F2-1213-4429-94A3-E96FC63EF83E";
paths = (
{
closed = 1;
nodes = (
"127 -6 OFFCURVE",
"163.826 19.942 OFFCURVE",
"208 77 CURVE",
"214.42 22.433 OFFCURVE",
"246.62 -6 OFFCURVE",
"302 -6 CURVE SMOOTH",
"369 -6 OFFCURVE",
"402.964 29.69 OFFCURVE",
"413 117 CURVE SMOOTH",
"413.582 122.066 OFFCURVE",
"412 122 OFFCURVE",
"410 122 CURVE SMOOTH",
"401 122 LINE SMOOTH",
"398.875 122 OFFCURVE",
"398 120.833 OFFCURVE",
"398 118 CURVE SMOOTH",
"387.867 39.975 OFFCURVE",
"361.222 10 OFFCURVE",
"302 10 CURVE SMOOTH",
"238.616 10 OFFCURVE",
"212 55 OFFCURVE",
"225 139 CURVE SMOOTH",
"242 245 LINE",
"327 254 LINE SMOOTH",
"417 264 OFFCURVE",
"458 308 OFFCURVE",
"458 393 CURVE SMOOTH",
"458 453 OFFCURVE",
"426 484 OFFCURVE",
"369 484 CURVE SMOOTH",
"322 484 OFFCURVE",
"283 464 OFFCURVE",
"262 414 CURVE",
"258 462 OFFCURVE",
"232 484 OFFCURVE",
"188 484 CURVE SMOOTH",
"126 484 OFFCURVE",
"91.451 445.832 OFFCURVE",
"84 366 CURVE SMOOTH",
"84 364 OFFCURVE",
"85 363 OFFCURVE",
"87 363 CURVE SMOOTH",
"97 363 LINE SMOOTH",
"99 363 OFFCURVE",
"100 364 OFFCURVE",
"100 366 CURVE SMOOTH",
"107.529 436.988 OFFCURVE",
"134 468 OFFCURVE",
"185 468 CURVE SMOOTH",
"237 468 OFFCURVE",
"256 444 OFFCURVE",
"242 350 CURVE SMOOTH",
"228 258 LINE",
"156 250 LINE SMOOTH",
"63 240 OFFCURVE",
"24 178 OFFCURVE",
"24 85 CURVE SMOOTH",
"24 26 OFFCURVE",
"47 -6 OFFCURVE",
"89 -6 CURVE SMOOTH"
);
},
{
closed = 1;
nodes = (
"58 10 OFFCURVE",
"40 36 OFFCURVE",
"40 88 CURVE SMOOTH",
"40 169 OFFCURVE",
"75 225 OFFCURVE",
"153 235 CURVE SMOOTH",
"225 244 LINE",
"209 139 LINE SMOOTH",
"207 124 OFFCURVE",
"206 110 OFFCURVE",
"206 97 CURVE",
"161.214 37.286 OFFCURVE",
"126 10 OFFCURVE",
"91 10 CURVE SMOOTH"
);
},
{
closed = 1;
nodes = (
"258 349 LINE SMOOTH",
"271 429 OFFCURVE",
"305.861 468 OFFCURVE",
"367 468 CURVE SMOOTH",
"416.664 468 OFFCURVE",
"442 442.327 OFFCURVE",
"442 392 CURVE SMOOTH",
"442 314.763 OFFCURVE",
"407 278 OFFCURVE",
"324 269 CURVE SMOOTH",
"244 260 LINE"
);
}
);
width = 471;
},
{
layerId = "F3DD84D5-00FA-4BE1-BE55-069AF9C50450";
paths = (
{
closed = 1;
nodes = (
"133 -6 OFFCURVE",
"163 12 OFFCURVE",
"202 60 CURVE",
"217 16 OFFCURVE",
"249 -6 OFFCURVE",
"300 -6 CURVE SMOOTH",
"375 -6 OFFCURVE",
"417 35 OFFCURVE",
"428 123 CURVE SMOOTH",
"429 130 OFFCURVE",
"427 132 OFFCURVE",
"420 132 CURVE SMOOTH",
"378 132 LINE SMOOTH",
"373 132 OFFCURVE",
"371 130 OFFCURVE",
"370 124 CURVE SMOOTH",
"364 78 OFFCURVE",
"343 55 OFFCURVE",
"308 55 CURVE SMOOTH",
"265 55 OFFCURVE",
"248 88 OFFCURVE",
"258 149 CURVE SMOOTH",
"271 229 LINE",
"330 235 LINE SMOOTH",
"422 245 OFFCURVE",
"470 303 OFFCURVE",
"470 390 CURVE SMOOTH",
"470 458 OFFCURVE",
"437 492 OFFCURVE",
"372 492 CURVE SMOOTH",
"331 492 OFFCURVE",
"296 474 OFFCURVE",
"275 439 CURVE",
"260 477 OFFCURVE",
"236 492 OFFCURVE",
"190 492 CURVE SMOOTH",
"118 492 OFFCURVE",
"77 446 OFFCURVE",
"75 364 CURVE SMOOTH",
"75 358 OFFCURVE",
"78 355 OFFCURVE",
"84 355 CURVE SMOOTH",
"126 355 LINE SMOOTH",
"131 355 OFFCURVE",
"135 358 OFFCURVE",
"135 364 CURVE SMOOTH",
"138 409 OFFCURVE",
"155 431 OFFCURVE",
"188 431 CURVE SMOOTH",
"225 431 OFFCURVE",
"237 408 OFFCURVE",
"227 344 CURVE SMOOTH",
"217 281 LINE",
"175 277 LINE SMOOTH",
"70 265 OFFCURVE",
"21 202 OFFCURVE",
"21 98 CURVE SMOOTH",
"21 34 OFFCURVE",
"50 -6 OFFCURVE",
"95 -6 CURVE SMOOTH"
);
},
{
closed = 1;
nodes = (
"94 56 OFFCURVE",
"83 73 OFFCURVE",
"83 109 CURVE SMOOTH",
"83 171 OFFCURVE",
"115 214 OFFCURVE",
"172 220 CURVE SMOOTH",
"207 225 LINE",
"197 158 LINE SMOOTH",
"194 140 OFFCURVE",
"193 125 OFFCURVE",
"194 111 CURVE",
"164 73 OFFCURVE",
"139 56 OFFCURVE",
"117 56 CURVE SMOOTH"
);
},
{
closed = 1;
nodes = (
"289 342 LINE SMOOTH",
"300 406 OFFCURVE",
"321 431 OFFCURVE",
"363 431 CURVE SMOOTH",
"392 431 OFFCURVE",
"408 413 OFFCURVE",
"408 382 CURVE SMOOTH",
"408 326 OFFCURVE",
"380 296 OFFCURVE",
"323 290 CURVE SMOOTH",
"280 286 LINE"
);
}
);
width = 475;
}
);
leftKerningGroup = ae;
rightKerningGroup = e;
rightMetricsKey = e;
unicode = 00E6;
},
{
glyphname = b;
lastChange = "2022-10-25 01:49:53 +0000";
layers = (
{
layerId = "9DFF46AD-73DE-422E-A6A3-16745129C94E";
paths = (
{
closed = 1;
nodes = (
"296.911 -6 OFFCURVE",
"350.987 38.915 OFFCURVE",
"368 146 CURVE SMOOTH",
"406 381 LINE SMOOTH",
"419.637 466.718 OFFCURVE",
"396.696 506 OFFCURVE",
"333 506 CURVE SMOOTH",
"290.833 506 OFFCURVE",
"252.046 488.727 OFFCURVE",
"205 449 CURVE",
"196 355 LINE",
"209.571 364.5 OFFCURVE",
"221 369 OFFCURVE",
"231 369 CURVE SMOOTH",
"242 369 OFFCURVE",
"246 362 OFFCURVE",
"243 345 CURVE SMOOTH",
"212 151 LINE SMOOTH",
"208.76 130.48 OFFCURVE",
"202.035 122 OFFCURVE",
"189 122 CURVE SMOOTH",
"181.167 122 OFFCURVE",
"175.109 122.956 OFFCURVE",
"170 125 CURVE SMOOTH",
"256 668 LINE SMOOTH",
"257.794 676.971 OFFCURVE",
"252.167 683 OFFCURVE",
"242 683 CURVE SMOOTH",
"114 683 LINE SMOOTH",
"105.5 683 OFFCURVE",
"100.062 677.562 OFFCURVE",
"99 668 CURVE SMOOTH",
"-5 13 LINE",
"50 7 OFFCURVE",
"115 -6 OFFCURVE",
"185 -6 CURVE SMOOTH"
);
}
);
width = 397;
},
{
layerId = "7BE597F2-1213-4429-94A3-E96FC63EF83E";
paths = (
{
closed = 1;
nodes = (
"215.52 -6 OFFCURVE",
"255.903 39.353 OFFCURVE",
"271 140 CURVE SMOOTH",
"305 363 LINE SMOOTH",
"317.097 442.638 OFFCURVE",
"296.587 484 OFFCURVE",
"245 484 CURVE SMOOTH",
"204.452 484 OFFCURVE",
"160.042 458.042 OFFCURVE",
"103 401 CURVE",
"101 381 LINE",
"159.764 439.764 OFFCURVE",
"205.851 468 OFFCURVE",
"243 468 CURVE SMOOTH",
"283.317 468 OFFCURVE",
"299.172 432.154 OFFCURVE",
"289 364 CURVE SMOOTH",
"255 140 LINE SMOOTH",
"242.137 51.941 OFFCURVE",
"205.681 10 OFFCURVE",
"142 10 CURVE SMOOTH",
"121.5 10 OFFCURVE",
"92.367 15.7 OFFCURVE",
"50 28 CURVE",
"153 679 LINE SMOOTH",
"154 683 OFFCURVE",
"152 683 OFFCURVE",
"149 683 CURVE SMOOTH",
"142 683 LINE SMOOTH",
"139 683 OFFCURVE",
"138 683 OFFCURVE",
"137 679 CURVE SMOOTH",
"32 16 LINE",
"70 7 OFFCURVE",
"104 -6 OFFCURVE",
"141 -6 CURVE SMOOTH"
);
}
);
width = 326;
},
{
layerId = "F3DD84D5-00FA-4BE1-BE55-069AF9C50450";
paths = (
{
closed = 1;
nodes = (
"227 -6 OFFCURVE",
"268 37 OFFCURVE",
"287 154 CURVE SMOOTH",
"320 367 LINE SMOOTH",
"333 447 OFFCURVE",
"314 492 OFFCURVE",
"255 492 CURVE SMOOTH",
"213 492 OFFCURVE",
"173 464 OFFCURVE",
"131 417 CURVE",
"125 360 LINE",
"163 404 OFFCURVE",
"201 431 OFFCURVE",
"228 431 CURVE SMOOTH",
"254 431 OFFCURVE",
"265 413 OFFCURVE",
"258 366 CURVE SMOOTH",
"225 156 LINE SMOOTH",
"212 80 OFFCURVE",
"191 55 OFFCURVE",
"149 55 CURVE SMOOTH",
"129 55 OFFCURVE",
"108 59 OFFCURVE",
"89 64 CURVE",
"185 674 LINE SMOOTH",
"186 680 OFFCURVE",
"184 683 OFFCURVE",
"178 683 CURVE SMOOTH",
"133 683 LINE SMOOTH",
"127 683 OFFCURVE",
"124 680 OFFCURVE",
"123 674 CURVE SMOOTH",
"18 13 LINE",
"64 7 OFFCURVE",
"97 -6 OFFCURVE",
"146 -6 CURVE SMOOTH"
);
}
);
width = 331;
}
);
leftKerningGroup = h;
leftMetricsKey = h;
rightKerningGroup = o;
rightMetricsKey = "=o+2";
unicode = 0062;
},
{
glyphname = c;
lastChange = "2022-10-25 01:49:53 +0000";
layers = (
{
anchors = (
{
name = bottom;
position = "{169, 0}";
},
{
name = top;
position = "{238, 500}";
}
);
layerId = "9DFF46AD-73DE-422E-A6A3-16745129C94E";
paths = (
{
closed = 1;
nodes = (
"294.925 -6 OFFCURVE",
"354.993 56.914 OFFCURVE",
"366 193 CURVE SMOOTH",
"366.979 201.809 OFFCURVE",
"361.2 208 OFFCURVE",
"352 208 CURVE SMOOTH",
"241 208 LINE SMOOTH",
"233 208 OFFCURVE",
"227 202 OFFCURVE",
"226 193 CURVE SMOOTH",
"220.973 145.745 OFFCURVE",
"213 131 OFFCURVE",
"193 131 CURVE SMOOTH",
"177 131 OFFCURVE",
"170.736 141.151 OFFCURVE",
"175 170 CURVE SMOOTH",
"200 329 LINE SMOOTH",
"205.012 360.073 OFFCURVE",
"211.038 369 OFFCURVE",
"227 369 CURVE SMOOTH",
"248.91 369 OFFCURVE",
"253.601 352.166 OFFCURVE",
"244 308 CURVE SMOOTH",
"242.082 299.367 OFFCURVE",
"247.6 293 OFFCURVE",
"257 293 CURVE SMOOTH",
"369 293 LINE SMOOTH",
"376.5 293 OFFCURVE",
"382 299 OFFCURVE",
"384 308 CURVE SMOOTH",
"411 427 OFFCURVE",
"353 506 OFFCURVE",
"235 506 CURVE SMOOTH",
"125 506 OFFCURVE",
"62 452 OFFCURVE",
"44 336 CURVE SMOOTH",
"21 187 LINE SMOOTH",
"2 63 OFFCURVE",
"59.398 -6 OFFCURVE",
"176 -6 CURVE SMOOTH"
);
}
);
width = 386;
},
{
anchors = (
{
name = bottom;
position = "{120, 0}";
},
{
name = top;
position = "{199, 478}";
}
);
layerId = "7BE597F2-1213-4429-94A3-E96FC63EF83E";
paths = (
{
closed = 1;
nodes = (
"200 -5 OFFCURVE",
"237.171 37.579 OFFCURVE",
"250 137 CURVE SMOOTH",
"250.652 142.057 OFFCURVE",
"249 142 OFFCURVE",
"247 142 CURVE SMOOTH",
"237 142 LINE SMOOTH",
"234.875 142 OFFCURVE",
"234 141 OFFCURVE",
"234 138 CURVE SMOOTH",
"223 49 OFFCURVE",
"190 10 OFFCURVE",
"129 10 CURVE SMOOTH",
"68 10 OFFCURVE",
"42.193 56.248 OFFCURVE",
"55 139 CURVE SMOOTH",
"88 349 LINE SMOOTH",
"101 430 OFFCURVE",
"135 468 OFFCURVE",
"195 468 CURVE SMOOTH",
"257 468 OFFCURVE",
"283 423 OFFCURVE",
"267 349 CURVE SMOOTH",
"266 346 OFFCURVE",
"267 345 OFFCURVE",
"270 345 CURVE SMOOTH",
"279 345 LINE SMOOTH",
"282 345 OFFCURVE",
"282 346 OFFCURVE",
"283 349 CURVE SMOOTH",
"302 432 OFFCURVE",
"267 484 OFFCURVE",
"196 484 CURVE SMOOTH",
"127 484 OFFCURVE",
"86 440 OFFCURVE",
"72 350 CURVE SMOOTH",
"39 139 LINE SMOOTH",
"24.178 47.102 OFFCURVE",
"57 -7 OFFCURVE",
"129 -6 CURVE SMOOTH"
);
}
);
width = 301;
},
{
anchors = (
{
name = bottom;
position = "{138, 0}";
},
{
name = top;
position = "{206, 486}";
}
);
layerId = "F3DD84D5-00FA-4BE1-BE55-069AF9C50450";
paths = (
{
closed = 1;
nodes = (
"222 -6 OFFCURVE",
"267 42 OFFCURVE",
"276 141 CURVE SMOOTH",
"277 148 OFFCURVE",
"274 150 OFFCURVE",
"268 150 CURVE SMOOTH",
"226 150 LINE SMOOTH",
"221 150 OFFCURVE",
"218 147 OFFCURVE",
"217 141 CURVE SMOOTH",
"210 83 OFFCURVE",
"189 55 OFFCURVE",
"144 55 CURVE SMOOTH",
"100 55 OFFCURVE",
"85 88 OFFCURVE",
"96 158 CURVE SMOOTH",
"124 326 LINE SMOOTH",
"137 406 OFFCURVE",
"158 431 OFFCURVE",
"201 431 CURVE SMOOTH",
"243 431 OFFCURVE",
"261 399 OFFCURVE",
"250 346 CURVE SMOOTH",
"249 340 OFFCURVE",
"252 337 OFFCURVE",
"258 337 CURVE SMOOTH",
"300 337 LINE SMOOTH",
"305 337 OFFCURVE",
"307 339 OFFCURVE",
"309 346 CURVE SMOOTH",
"330 432 OFFCURVE",
"289 492 OFFCURVE",
"206 492 CURVE SMOOTH",
"122 492 OFFCURVE",
"80 446 OFFCURVE",
"62 335 CURVE SMOOTH",
"34 158 LINE SMOOTH",
"17 53 OFFCURVE",
"51 -6 OFFCURVE",
"137 -6 CURVE SMOOTH"
);
}
);
width = 320;
}
);
leftKerningGroup = o;
leftMetricsKey = o;
rightKerningGroup = c;
unicode = 0063;
},
{
glyphname = d;
lastChange = "2022-10-25 01:49:53 +0000";
layers = (
{
layerId = "9DFF46AD-73DE-422E-A6A3-16745129C94E";
paths = (
{
closed = 1;
nodes = (
"139.828 -6 OFFCURVE",
"189.853 23.81 OFFCURVE",
"234 81 CURVE",
"216 144 LINE",
"206.398 135.358 OFFCURVE",
"197.346 131 OFFCURVE",
"189 131 CURVE SMOOTH",
"174.9 131 OFFCURVE",
"171.29 138.737 OFFCURVE",
"175 161 CURVE SMOOTH",
"207 356 LINE SMOOTH",
"209.929 371.622 OFFCURVE",
"215.727 378 OFFCURVE",
"228 378 CURVE SMOOTH",
"241 378 OFFCURVE",
"249 375 OFFCURVE",
"261 368 CURVE",
"279 479 LINE",
"246 498 OFFCURVE",
"213 506 OFFCURVE",
"176 506 CURVE SMOOTH",
"103.986 506 OFFCURVE",
"66.997 463.98 OFFCURVE",
"51 364 CURVE SMOOTH",
"15 140 LINE SMOOTH",
"-1.507 39.014 OFFCURVE",
"21 -6 OFFCURVE",
"88 -6 CURVE SMOOTH"
);
},
{
closed = 1;
nodes = (
"335 0 LINE SMOOTH",
"344 0 OFFCURVE",
"349 5 OFFCURVE",
"350 15 CURVE SMOOTH",
"353 48 OFFCURVE",
"359 90 OFFCURVE",
"366 132 CURVE SMOOTH",
"451 668 LINE SMOOTH",
"452 677 OFFCURVE",
"448 683 OFFCURVE",
"437 683 CURVE SMOOTH",
"309 683 LINE SMOOTH",
"301 683 OFFCURVE",
"295 676 OFFCURVE",
"294 668 CURVE SMOOTH",
"209 132 LINE",
"220 93 LINE",
"217 67 OFFCURVE",
"214 34 OFFCURVE",
"214 15 CURVE SMOOTH",
"214 3 OFFCURVE",
"220 0 OFFCURVE",
"229 0 CURVE SMOOTH"
);
}
);
width = 398;
},
{
layerId = "7BE597F2-1213-4429-94A3-E96FC63EF83E";
paths = (
{
closed = 1;
nodes = (
"144 -6 OFFCURVE",
"190 26 OFFCURVE",
"237 81 CURVE",
"240 103 LINE",
"192 47 OFFCURVE",
"143 10 OFFCURVE",
"102 10 CURVE SMOOTH",
"60 10 OFFCURVE",
"40 38 OFFCURVE",
"54 124 CURVE SMOOTH",
"89 345 LINE SMOOTH",
"105 445 OFFCURVE",
"141 468 OFFCURVE",
"188 468 CURVE SMOOTH",
"223 468 OFFCURVE",
"261 451 OFFCURVE",
"293 423 CURVE",
"296 440 LINE",
"265 466 OFFCURVE",
"227 484 OFFCURVE",
"189 484 CURVE SMOOTH",
"130 484 OFFCURVE",
"90 454 OFFCURVE",
"73 346 CURVE SMOOTH",
"38 121 LINE SMOOTH",
"24 28 OFFCURVE",
"49 -6 OFFCURVE",
"100 -6 CURVE SMOOTH"
);
},
{
closed = 1;
nodes = (
"235 0 LINE SMOOTH",
"237 0 OFFCURVE",
"238 1 OFFCURVE",
"238 3 CURVE SMOOTH",
"242 37 OFFCURVE",
"246 75 OFFCURVE",
"252 110 CURVE SMOOTH",
"343 679 LINE SMOOTH",
"344 683 OFFCURVE",
"342 683 OFFCURVE",
"339 683 CURVE SMOOTH",
"332 683 LINE SMOOTH",
"329 683 OFFCURVE",
"328 683 OFFCURVE",
"327 679 CURVE SMOOTH",
"234 93 LINE",
"234 92 LINE",
"230 70 OFFCURVE",
"225 35 OFFCURVE",
"222 3 CURVE SMOOTH",
"222 0 OFFCURVE",
"223 0 OFFCURVE",
"225 0 CURVE SMOOTH"
);
}
);
width = 323;
},
{
layerId = "F3DD84D5-00FA-4BE1-BE55-069AF9C50450";
paths = (
{
closed = 1;
nodes = (
"138 -6 OFFCURVE",
"176 18 OFFCURVE",
"220 71 CURVE",
"222 126 LINE",
"188 82 OFFCURVE",
"151 55 OFFCURVE",
"122 55 CURVE SMOOTH",
"94 55 OFFCURVE",
"84 74 OFFCURVE",
"92 124 CURVE SMOOTH",
"128 349 LINE SMOOTH",
"137 409 OFFCURVE",
"159 431 OFFCURVE",
"195 431 CURVE SMOOTH",
"217 431 OFFCURVE",
"241 422 OFFCURVE",
"269 405 CURVE",
"279 465 LINE",
"251 482 OFFCURVE",
"220 492 OFFCURVE",
"188 492 CURVE SMOOTH",
"124 492 OFFCURVE",
"81 447 OFFCURVE",
"67 356 CURVE SMOOTH",
"30 123 LINE SMOOTH",
"17 38 OFFCURVE",
"42 -6 OFFCURVE",
"97 -6 CURVE SMOOTH"
);
},
{
closed = 1;
nodes = (
"252 0 LINE SMOOTH",
"258 0 OFFCURVE",
"261 2 OFFCURVE",
"261 9 CURVE SMOOTH",
"262 31 OFFCURVE",
"266 65 OFFCURVE",
"275 120 CURVE SMOOTH",
"363 674 LINE SMOOTH",
"364 680 OFFCURVE",
"362 683 OFFCURVE",
"356 683 CURVE SMOOTH",
"310 683 LINE SMOOTH",
"305 683 OFFCURVE",
"302 680 OFFCURVE",
"301 674 CURVE SMOOTH",
"212 107 LINE",
"214 101 LINE",
"211 80 OFFCURVE",
"205 37 OFFCURVE",
"204 9 CURVE SMOOTH",
"204 2 OFFCURVE",
"207 0 OFFCURVE",
"212 0 CURVE SMOOTH"
);
}
);
width = 330;
}
);
leftKerningGroup = o;
leftMetricsKey = "=o+2";
rightKerningGroup = d;
unicode = 0064;
},
{
glyphname = eth;
lastChange = "2022-10-25 01:49:53 +0000";
layers = (
{
layerId = "9DFF46AD-73DE-422E-A6A3-16745129C94E";
paths = (
{
closed = 1;
nodes = (
"286.008 -6 OFFCURVE",
"357 55 OFFCURVE",
"374 165 CURVE SMOOTH",
"409 383 LINE SMOOTH",
"436 552 OFFCURVE",
"393 654 OFFCURVE",
"250 688 CURVE SMOOTH",
"241 690 OFFCURVE",
"236 690 OFFCURVE",
"230 681 CURVE SMOOTH",
"172 603 LINE SMOOTH",
"166 596 OFFCURVE",
"168 586 OFFCURVE",
"175 584 CURVE SMOOTH",
"266 554 OFFCURVE",
"275 472 OFFCURVE",
"249 359 CURVE",
"219 171 LINE SMOOTH",
"214 140 OFFCURVE",
"207 131 OFFCURVE",
"192 131 CURVE SMOOTH",
"174 131 OFFCURVE",
"170 143 OFFCURVE",
"174 171 CURVE SMOOTH",
"194 298 LINE SMOOTH",
"197 320 OFFCURVE",
"205 330 OFFCURVE",
"221 330 CURVE SMOOTH",
"236 330 OFFCURVE",
"246 324 OFFCURVE",
"257 312 CURVE",
"274 422 LINE",
"251 446 OFFCURVE",
"215 460 OFFCURVE",
"178 460 CURVE SMOOTH",
"95 460 OFFCURVE",
"57 407 OFFCURVE",
"40 307 CURVE SMOOTH",
"18 174 LINE SMOOTH",
"-1 61 OFFCURVE",
"61.551 -6 OFFCURVE",
"177.394 -6 CURVE SMOOTH"
);
},
{
closed = 1;
nodes = (
"402 635 LINE SMOOTH",
"407 638 OFFCURVE",
"408 642 OFFCURVE",
"405 647 CURVE SMOOTH",
"387 679 LINE SMOOTH",
"384 684 OFFCURVE",
"381 684 OFFCURVE",
"376 681 CURVE SMOOTH",
"176 537 LINE SMOOTH",
"169 532 OFFCURVE",
"168 528 OFFCURVE",
"171 523 CURVE SMOOTH",
"190 492 LINE SMOOTH",
"193 487 OFFCURVE",
"198 488 OFFCURVE",
"202 491 CURVE SMOOTH"
);
}
);
width = 398;
},
{
layerId = "7BE597F2-1213-4429-94A3-E96FC63EF83E";
paths = (
{
closed = 1;
nodes = (
"204 -6 OFFCURVE",
"245 38 OFFCURVE",
"259 128 CURVE SMOOTH",
"296 363 LINE SMOOTH",
"321 519 OFFCURVE",
"304 632 OFFCURVE",
"207 688 CURVE SMOOTH",
"205 689 OFFCURVE",
"204 689 OFFCURVE",
"202 686 CURVE SMOOTH",
"197 679 LINE SMOOTH",
"195 676 OFFCURVE",
"196 674 OFFCURVE",
"198 673 CURVE SMOOTH",
"284 624 OFFCURVE",
"305 523 OFFCURVE",
"280 363 CURVE SMOOTH",
"243 129 LINE SMOOTH",
"231 49 OFFCURVE",
"195 10 OFFCURVE",
"134 10 CURVE SMOOTH",
"69 10 OFFCURVE",
"42 56 OFFCURVE",
"55 140 CURVE SMOOTH",
"82 311 LINE SMOOTH",
"95 391 OFFCURVE",
"124 419 OFFCURVE",
"171 419 CURVE SMOOTH",
"218 419 OFFCURVE",
"253 381 OFFCURVE",
"283 338 CURVE",
"285 361 LINE",
"260 397 OFFCURVE",
"223 435 OFFCURVE",
"172 435 CURVE SMOOTH",
"115 435 OFFCURVE",
"79 401 OFFCURVE",
"66 314 CURVE SMOOTH",
"39 140 LINE SMOOTH",
"25 48 OFFCURVE",
"60 -6 OFFCURVE",
"135 -6 CURVE SMOOTH"
);
},
{
closed = 1;
nodes = (
"338 649 LINE SMOOTH",
"341 651 OFFCURVE",
"341 652 OFFCURVE",
"340 654 CURVE SMOOTH",
"335 663 LINE SMOOTH",
"333 666 OFFCURVE",
"332 665 OFFCURVE",
"331 664 CURVE SMOOTH",
"161 567 LINE SMOOTH",
"158 565 OFFCURVE",
"158 564 OFFCURVE",
"159 562 CURVE SMOOTH",
"164 553 LINE SMOOTH",
"165 551 OFFCURVE",
"166 551 OFFCURVE",
"168 552 CURVE SMOOTH"
);
}
);
width = 314;
},
{
layerId = "F3DD84D5-00FA-4BE1-BE55-069AF9C50450";
paths = (
{
closed = 1;
nodes = (
"228 -6 OFFCURVE",
"272 42 OFFCURVE",
"290 154 CURVE SMOOTH",
"323 365 LINE SMOOTH",
"350 534 OFFCURVE",
"316 644 OFFCURVE",
"220 689 CURVE SMOOTH",
"216 691 OFFCURVE",
"212 690 OFFCURVE",
"209 686 CURVE SMOOTH",
"182 651 LINE SMOOTH",
"177 645 OFFCURVE",
"179 642 OFFCURVE",
"184 639 CURVE SMOOTH",
"266 592 OFFCURVE",
"284 512 OFFCURVE",
"261 366 CURVE SMOOTH",
"227 155 LINE SMOOTH",
"216 82 OFFCURVE",
"195 55 OFFCURVE",
"150 55 CURVE SMOOTH",
"102 55 OFFCURVE",
"84 86 OFFCURVE",
"96 159 CURVE SMOOTH",
"123 319 LINE SMOOTH",
"132 379 OFFCURVE",
"150 399 OFFCURVE",
"185 399 CURVE SMOOTH",
"221 399 OFFCURVE",
"250 369 OFFCURVE",
"268 336 CURVE",
"277 401 LINE",
"257 433 OFFCURVE",
"222 460 OFFCURVE",
"177 460 CURVE SMOOTH",
"116 460 OFFCURVE",
"76 424 OFFCURVE",
"60 323 CURVE SMOOTH",
"34 157 LINE SMOOTH",
"16 48 OFFCURVE",
"57 -6 OFFCURVE",
"142 -6 CURVE SMOOTH"
);
},
{
closed = 1;
nodes = (
"353 638 LINE SMOOTH",
"357 641 OFFCURVE",
"358 642 OFFCURVE",
"356 646 CURVE SMOOTH",
"341 674 LINE SMOOTH",
"338 679 OFFCURVE",
"337 680 OFFCURVE",
"333 677 CURVE SMOOTH",
"158 573 LINE SMOOTH",
"153 571 OFFCURVE",
"152 569 OFFCURVE",
"154 564 CURVE SMOOTH",
"171 535 LINE SMOOTH",
"173 531 OFFCURVE",
"175 531 OFFCURVE",
"179 533 CURVE SMOOTH"
);
}
);
width = 332;
}
);
leftKerningGroup = o;
leftMetricsKey = o;
rightKerningGroup = o;
rightMetricsKey = o;
unicode = 00F0;
},
{
glyphname = dcroat;
lastChange = "2022-10-25 01:48:04 +0000";
layers = (
{
components = (
{
name = d;
}
);
layerId = "9DFF46AD-73DE-422E-A6A3-16745129C94E";
paths = (
{
closed = 1;
nodes = (
"432 548 LINE",
"453 548 LINE SMOOTH",
"461 548 OFFCURVE",
"467 554 OFFCURVE",
"468 563 CURVE SMOOTH",
"479 630 LINE SMOOTH",
"481 640 OFFCURVE",
"475 645 OFFCURVE",
"466 645 CURVE SMOOTH",
"241 645 LINE SMOOTH",
"233 645 OFFCURVE",
"228 639 OFFCURVE",
"226 630 CURVE SMOOTH",
"214 563 LINE SMOOTH",
"212 553 OFFCURVE",
"218 548 OFFCURVE",
"228 548 CURVE SMOOTH"
);
}
);
width = 408;
},
{
components = (
{
name = d;
}
);
layerId = "7BE597F2-1213-4429-94A3-E96FC63EF83E";
paths = (
{
closed = 1;
nodes = (
"327 584 LINE",
"376 584 LINE SMOOTH",
"379 584 OFFCURVE",
"380 584 OFFCURVE",
"381 587 CURVE SMOOTH",
"383 596 LINE SMOOTH",
"384 600 OFFCURVE",
"382 600 OFFCURVE",
"380 600 CURVE SMOOTH",
"227 600 LINE SMOOTH",
"224 600 OFFCURVE",
"223 600 OFFCURVE",
"222 597 CURVE SMOOTH",
"220 588 LINE SMOOTH",
"219 584 OFFCURVE",
"221 584 OFFCURVE",
"223 584 CURVE SMOOTH"
);
}
);
width = 323;
},
{
components = (
{
alignment = -1;
name = d;
}
);
layerId = "F3DD84D5-00FA-4BE1-BE55-069AF9C50450";
paths = (
{
closed = 1;
nodes = (
"344 559 LINE",
"382 559 LINE SMOOTH",
"388 559 OFFCURVE",
"390 561 OFFCURVE",
"391 568 CURVE SMOOTH",
"398 608 LINE SMOOTH",
"399 615 OFFCURVE",
"396 617 OFFCURVE",
"390 617 CURVE SMOOTH",
"232 617 LINE SMOOTH",
"226 617 OFFCURVE",
"224 615 OFFCURVE",
"223 608 CURVE SMOOTH",
"217 568 LINE SMOOTH",
"216 561 OFFCURVE",
"219 559 OFFCURVE",
"224 559 CURVE SMOOTH"
);
}
);
width = 331;
}
);
leftKerningGroup = o;
leftMetricsKey = "=o+2";
rightKerningGroup = dcroat;
unicode = 0111;
},
{
glyphname = e;
lastChange = "2022-10-25 01:48:04 +0000";
layers = (
{
anchors = (
{
name = bottom;
position = "{173, 0}";
},
{
name = ogonek;
position = "{271, 10}";
},
{
name = top;
position = "{250, 500}";
}
);
layerId = "9DFF46AD-73DE-422E-A6A3-16745129C94E";
paths = (
{
closed = 1;
nodes = (
"299 -6 OFFCURVE",
"356 41 OFFCURVE",
"366 151 CURVE SMOOTH",
"367 161 OFFCURVE",
"362 166 OFFCURVE",
"353 166 CURVE SMOOTH",
"233 166 LINE SMOOTH",
"225 166 OFFCURVE",
"219 160 OFFCURVE",
"218 151 CURVE SMOOTH",
"215 122 OFFCURVE",
"208 113 OFFCURVE",
"189 113 CURVE SMOOTH",
"171 113 OFFCURVE",
"165 126 OFFCURVE",
"169 152 CURVE SMOOTH",
"176 195 LINE",
"237 202 LINE SMOOTH",
"348 215 OFFCURVE",
"404 278 OFFCURVE",
"404 380 CURVE SMOOTH",
"404 460 OFFCURVE",
"344 506 OFFCURVE",
"241 506 CURVE SMOOTH",
"125 506 OFFCURVE",
"61 450 OFFCURVE",
"43 329 CURVE SMOOTH",
"21 187 LINE SMOOTH",
"1 59 OFFCURVE",
"54 -6 OFFCURVE",
"175 -6 CURVE SMOOTH"
);
},
{
closed = 1;
nodes = (
"201 350 LINE SMOOTH",
"205 377 OFFCURVE",
"213 387 OFFCURVE",
"230 387 CURVE SMOOTH",
"245 387 OFFCURVE",
"253 377 OFFCURVE",
"253 358 CURVE SMOOTH",
"253 327 OFFCURVE",
"235 298 OFFCURVE",
"205 296 CURVE SMOOTH",
"192 295 LINE"
);
}
);
width = 397;
},
{
anchors = (
{
name = bottom;
position = "{123, 0}";
},
{
name = ogonek;
position = "{175, 10}";
},
{
name = top;
position = "{198, 478}";
}
);
layerId = "7BE597F2-1213-4429-94A3-E96FC63EF83E";
paths = (
{
closed = 1;
nodes = (
"200 -6 OFFCURVE",
"233 31 OFFCURVE",
"243 117 CURVE",
"244 122 OFFCURVE",
"242 122 OFFCURVE",
"240 122 CURVE SMOOTH",
"231 122 LINE SMOOTH",
"229 122 OFFCURVE",
"228 121 OFFCURVE",
"228 118 CURVE",
"218 41 OFFCURVE",
"192 10 OFFCURVE",
"132 10 CURVE SMOOTH",
"69 10 OFFCURVE",
"43 54 OFFCURVE",
"55 139 CURVE SMOOTH",
"71 238 LINE",
"155 250 LINE SMOOTH",
"248 263 OFFCURVE",
"288 309 OFFCURVE",
"288 394 CURVE SMOOTH",
"288 453 OFFCURVE",
"255 484 OFFCURVE",
"198 484 CURVE SMOOTH",
"127 484 OFFCURVE",
"86 440 OFFCURVE",
"72 350 CURVE SMOOTH",
"39 139 LINE SMOOTH",
"26 45 OFFCURVE",
"58 -6 OFFCURVE",
"132 -6 CURVE SMOOTH"
);
},
{
closed = 1;
nodes = (
"88 349 LINE SMOOTH",
"100 429 OFFCURVE",
"136 468 OFFCURVE",
"197 468 CURVE SMOOTH",
"245 468 OFFCURVE",
"272 442 OFFCURVE",
"272 393 CURVE SMOOTH",
"272 316 OFFCURVE",
"236 278 OFFCURVE",
"152 266 CURVE SMOOTH",
"73 254 LINE"
);
}
);
width = 301;
},
{
anchors = (
{
name = bottom;
position = "{133, 0}";
},
{
name = ogonek;
position = "{194, 11}";
},
{
name = top;
position = "{208, 486}";
}
);
layerId = "F3DD84D5-00FA-4BE1-BE55-069AF9C50450";
paths = (
{
closed = 1;
nodes = (
"217 -6 OFFCURVE",
"260 37 OFFCURVE",
"270 123 CURVE SMOOTH",
"271 130 OFFCURVE",
"268 132 OFFCURVE",
"262 132 CURVE SMOOTH",
"220 132 LINE SMOOTH",
"214 132 OFFCURVE",
"212 131 OFFCURVE",
"211 124 CURVE SMOOTH",
"207 79 OFFCURVE",
"184 55 OFFCURVE",
"143 55 CURVE SMOOTH",
"99 55 OFFCURVE",
"84 86 OFFCURVE",
"95 158 CURVE SMOOTH",
"106 221 LINE",
"171 231 LINE SMOOTH",
"264 246 OFFCURVE",
"311 303 OFFCURVE",
"311 388 CURVE SMOOTH",
"311 456 OFFCURVE",
"273 492 OFFCURVE",
"205 492 CURVE SMOOTH",
"121 492 OFFCURVE",
"79 446 OFFCURVE",
"61 334 CURVE SMOOTH",
"33 157 LINE SMOOTH",
"16 51 OFFCURVE",
"53 -6 OFFCURVE",
"137 -6 CURVE SMOOTH"
);
},
{
closed = 1;
nodes = (
"124 331 LINE SMOOTH",
"136 406 OFFCURVE",
"155 431 OFFCURVE",
"199 431 CURVE SMOOTH",
"231 431 OFFCURVE",
"249 415 OFFCURVE",
"249 380 CURVE SMOOTH",
"249 329 OFFCURVE",
"218 297 OFFCURVE",
"160 287 CURVE SMOOTH",
"115 280 LINE"
);
}
);
width = 317;
}
);
leftKerningGroup = o;
leftMetricsKey = o;
rightKerningGroup = e;
unicode = 0065;
},
{
glyphname = f;
lastChange = "2022-10-25 01:48:04 +0000";
layers = (
{
layerId = "9DFF46AD-73DE-422E-A6A3-16745129C94E";
paths = (
{
closed = 1;
nodes = (
"276 520 LINE SMOOTH",
"281 552 OFFCURVE",
"291 564 OFFCURVE",
"316 564 CURVE SMOOTH",
"333 564 OFFCURVE",
"348 560 OFFCURVE",
"359 557 CURVE SMOOTH",
"367 555 OFFCURVE",
"372 560 OFFCURVE",
"374 570 CURVE SMOOTH",
"390 664 LINE SMOOTH",
"392 673 OFFCURVE",
"387 676 OFFCURVE",
"377 679 CURVE SMOOTH",
"362 683 OFFCURVE",
"328 689 OFFCURVE",
"279 689 CURVE SMOOTH",
"183 689 OFFCURVE",
"141 640 OFFCURVE",
"121 532 CURVE SMOOTH",
"115 500 LINE",
"73 500 LINE SMOOTH",
"64 500 OFFCURVE",
"60 494 OFFCURVE",
"58 485 CURVE SMOOTH",
"40 378 LINE SMOOTH",
"38 369 OFFCURVE",
"43 363 OFFCURVE",
"53 363 CURVE SMOOTH",
"94 363 LINE",
"50 85 LINE SMOOTH",
"36 -6 OFFCURVE",
"22 -43 OFFCURVE",
"-16 -76 CURVE SMOOTH",
"-23 -82 OFFCURVE",
"-23 -89 OFFCURVE",
"-19 -95 CURVE SMOOTH",
"43 -183 LINE SMOOTH",
"46 -188 OFFCURVE",
"53 -190 OFFCURVE",
"59 -186 CURVE SMOOTH",
"158 -120 OFFCURVE",
"183 -63 OFFCURVE",
"207 87 CURVE SMOOTH",
"251 363 LINE",
"301 363 LINE SMOOTH",
"311 363 OFFCURVE",
"315 370 OFFCURVE",
"316 378 CURVE SMOOTH",
"334 485 LINE SMOOTH",
"336 494 OFFCURVE",
"330 500 OFFCURVE",
"321 500 CURVE SMOOTH",
"273 500 LINE"
);
}
);
width = 300;
},
{
layerId = "7BE597F2-1213-4429-94A3-E96FC63EF83E";
paths = (
{
closed = 1;
nodes = (
"150 565 LINE SMOOTH",
"162 642 OFFCURVE",
"182 673 OFFCURVE",
"234 673 CURVE SMOOTH",
"250 673 OFFCURVE",
"269 670 OFFCURVE",
"284 664 CURVE SMOOTH",
"287 663 OFFCURVE",
"288 664 OFFCURVE",
"288 667 CURVE SMOOTH",
"289 675 LINE SMOOTH",
"289 678 OFFCURVE",
"289 679 OFFCURVE",
"286 680 CURVE SMOOTH",
"274 685 OFFCURVE",
"254 689 OFFCURVE",
"235 689 CURVE SMOOTH",
"174 689 OFFCURVE",
"147 654 OFFCURVE",
"134 565 CURVE SMOOTH",
"121 478 LINE",
"73 478 LINE SMOOTH",
"70 478 OFFCURVE",
"69 478 OFFCURVE",
"68 475 CURVE SMOOTH",
"66 466 LINE SMOOTH",
"65 462 OFFCURVE",
"67 462 OFFCURVE",
"69 462 CURVE SMOOTH",
"118 462 LINE",
"48 23 LINE SMOOTH",
"33 -73 OFFCURVE",
"4 -121 OFFCURVE",
"-69 -174 CURVE",
"-71 -175 OFFCURVE",
"-71 -176 OFFCURVE",
"-70 -178 CURVE SMOOTH",
"-65 -187 LINE SMOOTH",
"-64 -189 OFFCURVE",
"-62 -189 OFFCURVE",
"-60 -187 CURVE",
"18 -131 OFFCURVE",
"48 -80 OFFCURVE",
"64 21 CURVE SMOOTH",
"134 462 LINE",
"236 462 LINE SMOOTH",
"239 462 OFFCURVE",
"240 462 OFFCURVE",
"241 465 CURVE SMOOTH",
"243 474 LINE SMOOTH",
"244 478 OFFCURVE",
"242 478 OFFCURVE",
"240 478 CURVE SMOOTH",
"137 478 LINE"
);
}
);
width = 216;
},
{
layerId = "F3DD84D5-00FA-4BE1-BE55-069AF9C50450";
paths = (
{
closed = 1;
nodes = (
"188 556 LINE SMOOTH",
"196 609 OFFCURVE",
"210 628 OFFCURVE",
"245 628 CURVE SMOOTH",
"260 628 OFFCURVE",
"278 624 OFFCURVE",
"294 616 CURVE SMOOTH",
"299 614 OFFCURVE",
"303 616 OFFCURVE",
"303 620 CURVE SMOOTH",
"310 666 LINE SMOOTH",
"311 671 OFFCURVE",
"310 673 OFFCURVE",
"306 675 CURVE SMOOTH",
"293 683 OFFCURVE",
"264 689 OFFCURVE",
"237 689 CURVE SMOOTH",
"175 689 OFFCURVE",
"140 648 OFFCURVE",
"127 561 CURVE SMOOTH",
"115 486 LINE",
"72 486 LINE SMOOTH",
"68 486 OFFCURVE",
"64 483 OFFCURVE",
"63 477 CURVE SMOOTH",
"56 434 LINE SMOOTH",
"55 427 OFFCURVE",
"58 425 OFFCURVE",
"64 425 CURVE SMOOTH",
"105 425 LINE",
"46 50 LINE SMOOTH",
"29 -56 OFFCURVE",
"6 -105 OFFCURVE",
"-38 -140 CURVE SMOOTH",
"-42 -144 OFFCURVE",
"-43 -146 OFFCURVE",
"-40 -151 CURVE SMOOTH",
"-17 -192 LINE SMOOTH",
"-16 -195 OFFCURVE",
"-12 -196 OFFCURVE",
"-8 -194 CURVE SMOOTH",
"60 -157 OFFCURVE",
"88 -76 OFFCURVE",
"107 45 CURVE SMOOTH",
"167 425 LINE",
"245 425 LINE SMOOTH",
"250 425 OFFCURVE",
"253 427 OFFCURVE",
"254 434 CURVE SMOOTH",
"262 477 LINE SMOOTH",
"263 483 OFFCURVE",
"259 486 OFFCURVE",
"254 486 CURVE SMOOTH",
"177 486 LINE"
);
}
);
width = 235;
}
);
leftKerningGroup = f;
rightKerningGroup = f;
unicode = 0066;
},
{
glyphname = g;
lastChange = "2022-10-25 01:48:04 +0000";
layers = (
{
anchors = (
{
name = bottom;
position = "{159, 0}";
},
{
name = top;
position = "{246, 497}";
}
);
layerId = "9DFF46AD-73DE-422E-A6A3-16745129C94E";
paths = (
{
closed = 1;
nodes = (
"116 506 OFFCURVE",
"66 463 OFFCURVE",
"50 358 CURVE SMOOTH",
"22 181 LINE SMOOTH",
"6 79 OFFCURVE",
"29 35 OFFCURVE",
"95 35 CURVE SMOOTH",
"132 35 OFFCURVE",
"167 50 OFFCURVE",
"201 79 CURVE",
"185 -20 LINE SMOOTH",
"179 -53 OFFCURVE",
"175 -60 OFFCURVE",
"159 -60 CURVE SMOOTH",
"145 -60 OFFCURVE",
"139 -44 OFFCURVE",
"143 -21 CURVE SMOOTH",
"145 -12 OFFCURVE",
"140 -6 OFFCURVE",
"130 -6 CURVE SMOOTH",
"18 -6 LINE SMOOTH",
"11 -6 OFFCURVE",
"5 -11 OFFCURVE",
"3 -21 CURVE SMOOTH",
"-19 -127 OFFCURVE",
"39 -197 OFFCURVE",
"154 -197 CURVE SMOOTH",
"269 -197 OFFCURVE",
"322 -148 OFFCURVE",
"341 -28 CURVE SMOOTH",
"422 487 LINE",
"367 489 OFFCURVE",
"300 506 OFFCURVE",
"224 506 CURVE SMOOTH"
);
},
{
closed = 1;
nodes = (
"182 172 OFFCURVE",
"178 180 OFFCURVE",
"182 202 CURVE SMOOTH",
"206 351 LINE SMOOTH",
"209 371 OFFCURVE",
"216 378 OFFCURVE",
"227 378 CURVE SMOOTH",
"235 378 OFFCURVE",
"240 377 OFFCURVE",
"248 375 CURVE",
"217 180 LINE",
"209 175 OFFCURVE",
"202 172 OFFCURVE",
"196 172 CURVE SMOOTH"
);
}
);
width = 398;
},
{
anchors = (
{
name = bottom;
position = "{125, 0}";
},
{
name = top;
position = "{206, 478}";
}
);
layerId = "7BE597F2-1213-4429-94A3-E96FC63EF83E";
paths = (
{
closed = 1;
nodes = (
"128 484 OFFCURVE",
"87 439 OFFCURVE",
"72 338 CURVE SMOOTH",
"45 158 LINE SMOOTH",
"33 79 OFFCURVE",
"55 37 OFFCURVE",
"106 37 CURVE SMOOTH",
"145 37 OFFCURVE",
"188 61 OFFCURVE",
"240 113 CURVE",
"214 -53 LINE SMOOTH",
"200 -144 OFFCURVE",
"175 -175 OFFCURVE",
"113 -175 CURVE SMOOTH",
"56 -175 OFFCURVE",
"35 -142 OFFCURVE",
"46 -67 CURVE SMOOTH",
"47 -62 OFFCURVE",
"45 -62 OFFCURVE",
"43 -62 CURVE SMOOTH",
"34 -62 LINE SMOOTH",
"32 -62 OFFCURVE",
"31 -63 OFFCURVE",
"31 -66 CURVE SMOOTH",
"18 -151 OFFCURVE",
"48 -191 OFFCURVE",
"112 -191 CURVE SMOOTH",
"184 -191 OFFCURVE",
"214 -155 OFFCURVE",
"230 -52 CURVE SMOOTH",
"311 462 LINE",
"274 471 OFFCURVE",
"240 484 OFFCURVE",
"202 484 CURVE SMOOTH"
);
},
{
closed = 1;
nodes = (
"66 53 OFFCURVE",
"50 88 OFFCURVE",
"60 155 CURVE SMOOTH",
"88 338 LINE SMOOTH",
"102 427 OFFCURVE",
"138 468 OFFCURVE",
"201 468 CURVE SMOOTH",
"230 468 OFFCURVE",
"264 459 OFFCURVE",
"294 450 CURVE",
"244 135 LINE",
"187 79 OFFCURVE",
"143 53 OFFCURVE",
"107 53 CURVE SMOOTH"
);
}
);
width = 326;
},
{
anchors = (
{
name = bottom;
position = "{129, 0}";
},
{
name = top;
position = "{208, 486}";
}
);
layerId = "F3DD84D5-00FA-4BE1-BE55-069AF9C50450";
paths = (
{
closed = 1;
nodes = (
"124 492 OFFCURVE",
"81 449 OFFCURVE",
"63 339 CURVE SMOOTH",
"33 147 LINE SMOOTH",
"20 64 OFFCURVE",
"41 18 OFFCURVE",
"100 18 CURVE SMOOTH",
"136 18 OFFCURVE",
"169 38 OFFCURVE",
"205 75 CURVE",
"187 -34 LINE SMOOTH",
"175 -111 OFFCURVE",
"156 -135 OFFCURVE",
"115 -135 CURVE SMOOTH",
"75 -135 OFFCURVE",
"63 -111 OFFCURVE",
"71 -65 CURVE SMOOTH",
"72 -60 OFFCURVE",
"69 -56 OFFCURVE",
"63 -56 CURVE SMOOTH",
"21 -56 LINE SMOOTH",
"17 -56 OFFCURVE",
"14 -58 OFFCURVE",
"12 -65 CURVE SMOOTH",
"-1 -132 OFFCURVE",
"22 -196 OFFCURVE",
"111 -196 CURVE SMOOTH",
"199 -196 OFFCURVE",
"233 -149 OFFCURVE",
"249 -37 CURVE SMOOTH",
"330 473 LINE",
"285 479 OFFCURVE",
"251 492 OFFCURVE",
"202 492 CURVE SMOOTH"
);
},
{
closed = 1;
nodes = (
"97 80 OFFCURVE",
"87 101 OFFCURVE",
"95 148 CURVE SMOOTH",
"124 333 LINE SMOOTH",
"136 407 OFFCURVE",
"158 431 OFFCURVE",
"199 431 CURVE SMOOTH",
"221 431 OFFCURVE",
"241 427 OFFCURVE",
"260 422 CURVE",
"215 136 LINE",
"181 100 OFFCURVE",
"150 80 OFFCURVE",
"124 80 CURVE SMOOTH"
);
}
);
width = 330;
}
);
leftKerningGroup = o;
rightKerningGroup = u;
rightMetricsKey = n;
unicode = 0067;
},
{
glyphname = h;
lastChange = "2022-10-25 01:48:04 +0000";
layers = (
{
anchors = (
{
name = bottom;
position = "{169, 0}";
},
{
name = center;
position = "{212, 249}";
},
{
name = top;
position = "{182, 683}";
}
);
layerId = "9DFF46AD-73DE-422E-A6A3-16745129C94E";
paths = (
{
closed = 1;
nodes = (
"139 0 LINE SMOOTH",
"146 0 OFFCURVE",
"152 6 OFFCURVE",
"153 14 CURVE SMOOTH",
"257 668 LINE SMOOTH",
"259 678 OFFCURVE",
"252 683 OFFCURVE",
"243 683 CURVE SMOOTH",
"115 683 LINE SMOOTH",
"106 683 OFFCURVE",
"101 677 OFFCURVE",
"100 668 CURVE SMOOTH",
"-4 14 LINE SMOOTH",
"-5 6 OFFCURVE",
"-1 0 OFFCURVE",
"6 0 CURVE SMOOTH"
);
},
{
closed = 1;
nodes = (
"335 0 LINE SMOOTH",
"343 0 OFFCURVE",
"349 6 OFFCURVE",
"350 15 CURVE SMOOTH",
"405 360 LINE SMOOTH",
"422 464 OFFCURVE",
"398 506 OFFCURVE",
"333 506 CURVE SMOOTH",
"281 506 OFFCURVE",
"230 476 OFFCURVE",
"186 419 CURVE",
"204 356 LINE",
"214 365 OFFCURVE",
"225 369 OFFCURVE",
"233 369 CURVE SMOOTH",
"245 369 OFFCURVE",
"249 363 OFFCURVE",
"245 339 CURVE SMOOTH",
"193 15 LINE SMOOTH",
"192 6 OFFCURVE",
"197 0 OFFCURVE",
"207 0 CURVE SMOOTH"
);
}
);
width = 401;
},
{
anchors = (
{
name = bottom;
position = "{140, 0}";
},
{
name = center;
position = "{178, 239}";
},
{
name = top;
position = "{145, 683}";
}
);
layerId = "7BE597F2-1213-4429-94A3-E96FC63EF83E";
paths = (
{
closed = 1;
nodes = (
"41 0 LINE SMOOTH",
"44 0 OFFCURVE",
"45 0 OFFCURVE",
"46 5 CURVE SMOOTH",
"152 679 LINE SMOOTH",
"153 683 OFFCURVE",
"151 683 OFFCURVE",
"148 683 CURVE SMOOTH",
"142 683 LINE SMOOTH",
"139 683 OFFCURVE",
"138 683 OFFCURVE",
"137 679 CURVE SMOOTH",
"30 5 LINE SMOOTH",
"29 0 OFFCURVE",
"31 0 OFFCURVE",
"34 0 CURVE SMOOTH"
);
},
{
closed = 1;
nodes = (
"244 0 LINE SMOOTH",
"247 0 OFFCURVE",
"248 0 OFFCURVE",
"249 4 CURVE SMOOTH",
"304 355 LINE SMOOTH",
"319 449 OFFCURVE",
"297 484 OFFCURVE",
"243 484 CURVE SMOOTH",
"195 484 OFFCURVE",
"145 442 OFFCURVE",
"104 400 CURVE",
"101 379 LINE",
"150 429 OFFCURVE",
"197 468 OFFCURVE",
"241 468 CURVE SMOOTH",
"288 468 OFFCURVE",
"301 432 OFFCURVE",
"288 352 CURVE SMOOTH",
"233 4 LINE SMOOTH",
"232 0 OFFCURVE",
"234 0 OFFCURVE",
"237 0 CURVE SMOOTH"
);
}
);
width = 336;
},
{
anchors = (
{
name = bottom;
position = "{136, 0}";
},
{
name = center;
position = "{175, 243}";
},
{
name = top;
position = "{155, 683}";
}
);
layerId = "F3DD84D5-00FA-4BE1-BE55-069AF9C50450";
paths = (
{
closed = 1;
nodes = (
"70 0 LINE SMOOTH",
"75 0 OFFCURVE",
"78 3 OFFCURVE",
"79 9 CURVE SMOOTH",
"184 674 LINE SMOOTH",
"185 680 OFFCURVE",
"182 683 OFFCURVE",
"177 683 CURVE SMOOTH",
"132 683 LINE SMOOTH",
"126 683 OFFCURVE",
"123 680 OFFCURVE",
"122 674 CURVE SMOOTH",
"17 9 LINE SMOOTH",
"16 3 OFFCURVE",
"19 0 OFFCURVE",
"25 0 CURVE SMOOTH"
);
},
{
closed = 1;
nodes = (
"258 0 LINE SMOOTH",
"262 0 OFFCURVE",
"266 3 OFFCURVE",
"267 9 CURVE SMOOTH",
"323 361 LINE SMOOTH",
"337 450 OFFCURVE",
"314 492 OFFCURVE",
"255 492 CURVE SMOOTH",
"214 492 OFFCURVE",
"171 465 OFFCURVE",
"132 420 CURVE",
"129 366 LINE",
"165 407 OFFCURVE",
"199 431 OFFCURVE",
"229 431 CURVE SMOOTH",
"260 431 OFFCURVE",
"269 410 OFFCURVE",
"261 360 CURVE SMOOTH",
"205 9 LINE SMOOTH",
"204 3 OFFCURVE",
"207 0 OFFCURVE",
"213 0 CURVE SMOOTH"
);
}
);
width = 340;
}
);
leftKerningGroup = h;
rightKerningGroup = n;
rightMetricsKey = n;
unicode = 0068;
},
{
glyphname = hbar;
lastChange = "2022-10-25 01:48:04 +0000";
layers = (
{
components = (
{
name = h;
transform = "{1, 0, 0, 1, 10, 0}";
}
);
layerId = "9DFF46AD-73DE-422E-A6A3-16745129C94E";
rightMetricsKey = "=h";
paths = (
{
closed = 1;
nodes = (
"91 548 LINE",
"297 548 LINE SMOOTH",
"306 548 OFFCURVE",
"310 554 OFFCURVE",
"312 563 CURVE SMOOTH",
"324 630 LINE SMOOTH",
"326 641 OFFCURVE",
"319 645 OFFCURVE",
"310 645 CURVE SMOOTH",
"85 645 LINE SMOOTH",
"76 645 OFFCURVE",
"71 639 OFFCURVE",
"70 630 CURVE SMOOTH",
"59 563 LINE SMOOTH",
"58 554 OFFCURVE",
"62 548 OFFCURVE",
"70 548 CURVE SMOOTH"
);
}
);
width = 411;
},
{
components = (
{
name = h;
}
);
layerId = "7BE597F2-1213-4429-94A3-E96FC63EF83E";
paths = (
{
closed = 1;
nodes = (
"122 584 LINE",
"225 584 LINE SMOOTH",
"228 584 OFFCURVE",
"229 584 OFFCURVE",
"230 587 CURVE SMOOTH",
"232 596 LINE SMOOTH",
"233 600 OFFCURVE",
"231 600 OFFCURVE",
"229 600 CURVE SMOOTH",
"76 600 LINE SMOOTH",
"73 600 OFFCURVE",
"72 600 OFFCURVE",
"71 597 CURVE SMOOTH",
"69 588 LINE SMOOTH",
"68 584 OFFCURVE",
"70 584 OFFCURVE",
"72 584 CURVE SMOOTH"
);
}
);
width = 336;
},
{
components = (
{
alignment = -1;
name = h;
}
);
layerId = "F3DD84D5-00FA-4BE1-BE55-069AF9C50450";
paths = (
{
closed = 1;
nodes = (
"104 559 LINE",
"226 559 LINE SMOOTH",
"231 559 OFFCURVE",
"234 561 OFFCURVE",
"235 568 CURVE SMOOTH",
"242 608 LINE SMOOTH",
"243 615 OFFCURVE",
"239 617 OFFCURVE",
"234 617 CURVE SMOOTH",
"75 617 LINE SMOOTH",
"70 617 OFFCURVE",
"67 615 OFFCURVE",
"66 608 CURVE SMOOTH",
"60 568 LINE SMOOTH",
"59 561 OFFCURVE",
"62 559 OFFCURVE",
"67 559 CURVE SMOOTH"
);
}
);
width = 340;
}
);
leftKerningGroup = hbar;
rightKerningGroup = n;
rightMetricsKey = h;
unicode = 0127;
},
{
glyphname = idotless;
lastChange = "2022-10-25 01:49:53 +0000";
layers = (
{
anchors = (
{
name = bottom;
position = "{73, 0}";
},
{
name = ogonek;
position = "{152, 10}";
},
{
name = top;
position = "{150, 500}";
}
);
layerId = "9DFF46AD-73DE-422E-A6A3-16745129C94E";
paths = (
{
closed = 1;
nodes = (
"138 0 LINE SMOOTH",
"146 0 OFFCURVE",
"152 7 OFFCURVE",
"153 15 CURVE SMOOTH",
"228 485 LINE SMOOTH",
"230 495 OFFCURVE",
"223 500 OFFCURVE",
"214 500 CURVE SMOOTH",
"86 500 LINE SMOOTH",
"77 500 OFFCURVE",
"72 494 OFFCURVE",
"71 485 CURVE SMOOTH",
"-4 15 LINE SMOOTH",
"-5 6 OFFCURVE",
"-1 0 OFFCURVE",
"10 0 CURVE SMOOTH"
);
}
);
width = 204;
},
{
anchors = (
{
name = bottom;
position = "{38, 0}";
},
{
name = ogonek;
position = "{50, 10}";
},
{
name = top;
position = "{114, 478}";
}
);
layerId = "7BE597F2-1213-4429-94A3-E96FC63EF83E";
paths = (
{
closed = 1;
nodes = (
"42 0 LINE SMOOTH",
"45 0 OFFCURVE",
"46 0 OFFCURVE",
"47 5 CURVE SMOOTH",
"122 474 LINE SMOOTH",
"123 478 OFFCURVE",
"121 478 OFFCURVE",
"118 478 CURVE SMOOTH",
"111 478 LINE SMOOTH",
"108 478 OFFCURVE",
"107 478 OFFCURVE",
"106 474 CURVE SMOOTH",
"31 5 LINE SMOOTH",
"30 0 OFFCURVE",
"32 0 OFFCURVE",
"35 0 CURVE SMOOTH"
);
}
);
width = 135;
},
{
anchors = (
{
name = bottom;
position = "{48, 0}";
},
{
name = ogonek;
position = "{78, 10}";
},
{
name = top;
position = "{124, 486}";
}
);
layerId = "F3DD84D5-00FA-4BE1-BE55-069AF9C50450";
paths = (
{
closed = 1;
nodes = (
"70 0 LINE SMOOTH",
"76 0 OFFCURVE",
"78 3 OFFCURVE",
"79 9 CURVE SMOOTH",
"154 477 LINE SMOOTH",
"155 483 OFFCURVE",
"152 486 OFFCURVE",
"147 486 CURVE SMOOTH",
"101 486 LINE SMOOTH",
"95 486 OFFCURVE",
"92 483 OFFCURVE",
"91 477 CURVE SMOOTH",
"17 9 LINE SMOOTH",
"16 3 OFFCURVE",
"19 0 OFFCURVE",
"25 0 CURVE SMOOTH"
);
}
);
width = 153;
}
);
leftKerningGroup = n;
leftMetricsKey = u;
rightKerningGroup = u;
rightMetricsKey = n;
unicode = 0131;
},
{
glyphname = jdotless;
lastChange = "2022-10-25 01:48:04 +0000";
layers = (
{
anchors = (
{
name = bottom;
position = "{75, 0}";
},
{
name = top;
position = "{154, 500}";
}
);
layerId = "9DFF46AD-73DE-422E-A6A3-16745129C94E";
paths = (
{
closed = 1;
nodes = (
"8 85 LINE SMOOTH",
"-6 -6 OFFCURVE",
"-22 -41 OFFCURVE",
"-58 -76 CURVE SMOOTH",
"-65 -82 OFFCURVE",
"-65 -89 OFFCURVE",
"-61 -95 CURVE SMOOTH",
"1 -183 LINE SMOOTH",
"4 -188 OFFCURVE",
"11 -190 OFFCURVE",
"17 -186 CURVE SMOOTH",
"116 -121 OFFCURVE",
"141 -63 OFFCURVE",
"165 87 CURVE SMOOTH",
"228 485 LINE SMOOTH",
"230 495 OFFCURVE",
"223 500 OFFCURVE",
"214 500 CURVE SMOOTH",
"86 500 LINE SMOOTH",
"77 500 OFFCURVE",
"72 494 OFFCURVE",
"71 485 CURVE SMOOTH"
);
}
);
width = 204;
},
{
anchors = (
{
name = bottom;
position = "{31, 0}";
},
{
name = top;
position = "{107, 478}";
}
);
layerId = "7BE597F2-1213-4429-94A3-E96FC63EF83E";
paths = (
{
closed = 1;
nodes = (
"26 11 LINE SMOOTH",
"10 -92 OFFCURVE",
"-7 -130 OFFCURVE",
"-55 -175 CURVE",
"-57 -177 OFFCURVE",
"-57 -178 OFFCURVE",
"-56 -179 CURVE SMOOTH",
"-49 -188 LINE SMOOTH",
"-48 -189 OFFCURVE",
"-47 -189 OFFCURVE",
"-46 -188 CURVE",
"5 -145 OFFCURVE",
"24 -100 OFFCURVE",
"42 10 CURVE SMOOTH",
"116 474 LINE SMOOTH",
"117 478 OFFCURVE",
"115 478 OFFCURVE",
"112 478 CURVE SMOOTH",
"105 478 LINE SMOOTH",
"102 478 OFFCURVE",
"101 478 OFFCURVE",
"100 474 CURVE SMOOTH"
);
}
);
width = 123;
},
{
anchors = (
{
name = bottom;
position = "{41, 0}";
},
{
name = top;
position = "{118, 486}";
}
);
layerId = "F3DD84D5-00FA-4BE1-BE55-069AF9C50450";
paths = (
{
closed = 1;
nodes = (
"17 47 LINE SMOOTH",
"0 -63 OFFCURVE",
"-18 -109 OFFCURVE",
"-59 -140 CURVE SMOOTH",
"-63 -144 OFFCURVE",
"-64 -147 OFFCURVE",
"-62 -151 CURVE SMOOTH",
"-39 -192 LINE SMOOTH",
"-37 -195 OFFCURVE",
"-33 -196 OFFCURVE",
"-30 -194 CURVE SMOOTH",
"33 -159 OFFCURVE",
"59 -80 OFFCURVE",
"78 43 CURVE SMOOTH",
"147 477 LINE SMOOTH",
"148 483 OFFCURVE",
"146 486 OFFCURVE",
"140 486 CURVE SMOOTH",
"95 486 LINE SMOOTH",
"89 486 OFFCURVE",
"86 483 OFFCURVE",
"85 477 CURVE SMOOTH"
);
}
);
width = 140;
}
);
leftKerningGroup = j;
rightKerningGroup = j;
unicode = 0237;
},
{
glyphname = k;
lastChange = "2022-10-25 01:48:04 +0000";
layers = (
{
anchors = (
{
name = bottom;
position = "{188, 0}";
},
{
name = top;
position = "{261, 500}";
}
);
layerId = "9DFF46AD-73DE-422E-A6A3-16745129C94E";
paths = (
{
closed = 1;
nodes = (
"138 0 LINE SMOOTH",
"146 0 OFFCURVE",
"152 6 OFFCURVE",
"153 15 CURVE SMOOTH",
"172 132 LINE",
"189 157 LINE",
"221 15 LINE SMOOTH",
"223 6 OFFCURVE",
"227 0 OFFCURVE",
"236 0 CURVE SMOOTH",
"379 0 LINE SMOOTH",
"388 0 OFFCURVE",
"394 7 OFFCURVE",
"391 15 CURVE SMOOTH",
"311 267 LINE",
"460 485 LINE SMOOTH",
"465 493 OFFCURVE",
"461 500 OFFCURVE",
"451 500 CURVE SMOOTH",
"310 500 LINE SMOOTH",
"300 500 OFFCURVE",
"295 494 OFFCURVE",
"290 485 CURVE SMOOTH",
"250 416 LINE SMOOTH",
"231 383 OFFCURVE",
"211 348 OFFCURVE",
"195 314 CURVE",
"193 314 LINE",
"207 370 OFFCURVE",
"218 426 OFFCURVE",
"227 482 CURVE SMOOTH",
"257 668 LINE SMOOTH",
"259 678 OFFCURVE",
"252 683 OFFCURVE",
"243 683 CURVE SMOOTH",
"115 683 LINE SMOOTH",
"106 683 OFFCURVE",
"101 677 OFFCURVE",
"100 668 CURVE SMOOTH",
"-4 15 LINE SMOOTH",
"-6 5 OFFCURVE",
"-1 0 OFFCURVE",
"9 0 CURVE SMOOTH"
);
}
);
width = 423;
},
{
anchors = (
{
name = bottom;
position = "{123, 0}";
},
{
name = top;
position = "{193, 478}";
}
);
layerId = "7BE597F2-1213-4429-94A3-E96FC63EF83E";
paths = (
{
closed = 1;
nodes = (
"41 0 LINE SMOOTH",
"44 0 OFFCURVE",
"45 0 OFFCURVE",
"46 5 CURVE SMOOTH",
"71 162 LINE",
"153 275 LINE",
"224 4 LINE SMOOTH",
"225 1 OFFCURVE",
"225 0 OFFCURVE",
"228 0 CURVE SMOOTH",
"237 0 LINE SMOOTH",
"239 0 OFFCURVE",
"241 1 OFFCURVE",
"240 4 CURVE SMOOTH",
"165 290 LINE",
"299 474 LINE SMOOTH",
"301 477 OFFCURVE",
"299 478 OFFCURVE",
"297 478 CURVE SMOOTH",
"288 478 LINE SMOOTH",
"285 478 OFFCURVE",
"284 478 OFFCURVE",
"282 475 CURVE SMOOTH",
"147 291 LINE SMOOTH",
"123 259 OFFCURVE",
"102 229 OFFCURVE",
"77 194 CURVE",
"76 194 LINE",
"83 239 OFFCURVE",
"89 275 OFFCURVE",
"95 315 CURVE SMOOTH",
"153 679 LINE SMOOTH",
"154 683 OFFCURVE",
"152 683 OFFCURVE",
"149 683 CURVE SMOOTH",
"142 683 LINE SMOOTH",
"139 683 OFFCURVE",
"138 683 OFFCURVE",
"137 679 CURVE SMOOTH",
"30 5 LINE SMOOTH",
"29 0 OFFCURVE",
"31 0 OFFCURVE",
"34 0 CURVE SMOOTH"
);
}
);
width = 288;
},
{
anchors = (
{
name = bottom;
position = "{136, 0}";
},
{
name = top;
position = "{204, 486}";
}
);
layerId = "F3DD84D5-00FA-4BE1-BE55-069AF9C50450";
paths = (
{
closed = 1;
nodes = (
"70 0 LINE SMOOTH",
"75 0 OFFCURVE",
"78 3 OFFCURVE",
"79 9 CURVE SMOOTH",
"105 172 LINE",
"156 244 LINE",
"205 9 LINE SMOOTH",
"206 3 OFFCURVE",
"208 0 OFFCURVE",
"213 0 CURVE SMOOTH",
"261 0 LINE SMOOTH",
"266 0 OFFCURVE",
"270 3 OFFCURVE",
"269 9 CURVE SMOOTH",
"205 303 LINE",
"334 477 LINE SMOOTH",
"337 482 OFFCURVE",
"335 486 OFFCURVE",
"329 486 CURVE SMOOTH",
"273 486 LINE SMOOTH",
"269 486 OFFCURVE",
"265 484 OFFCURVE",
"263 479 CURVE SMOOTH",
"179 360 LINE SMOOTH",
"159 331 OFFCURVE",
"138 298 OFFCURVE",
"119 267 CURVE",
"118 267 LINE",
"126 307 OFFCURVE",
"131 338 OFFCURVE",
"136 371 CURVE SMOOTH",
"184 674 LINE SMOOTH",
"185 680 OFFCURVE",
"183 683 OFFCURVE",
"177 683 CURVE SMOOTH",
"132 683 LINE SMOOTH",
"126 683 OFFCURVE",
"123 680 OFFCURVE",
"122 674 CURVE SMOOTH",
"17 9 LINE SMOOTH",
"16 3 OFFCURVE",
"19 0 OFFCURVE",
"25 0 CURVE SMOOTH"
);
}
);
width = 306;
}
);
leftKerningGroup = h;
leftMetricsKey = h;
rightKerningGroup = k;
unicode = 006B;
},
{
glyphname = kgreenlandic;
lastChange = "2022-10-25 01:48:04 +0000";
layers = (
{
anchors = (
{
name = bottom;
position = "{178, 0}";
},
{
name = top;
position = "{258, 500}";
}
);
layerId = "9DFF46AD-73DE-422E-A6A3-16745129C94E";
paths = (
{
closed = 1;
nodes = (
"138 0 LINE SMOOTH",
"146 0 OFFCURVE",
"152 6 OFFCURVE",
"153 15 CURVE SMOOTH",
"172 132 LINE",
"189 157 LINE",
"221 15 LINE SMOOTH",
"223 6 OFFCURVE",
"227 0 OFFCURVE",
"236 0 CURVE SMOOTH",
"379 0 LINE SMOOTH",
"388 0 OFFCURVE",
"394 7 OFFCURVE",
"391 15 CURVE SMOOTH",
"311 267 LINE",
"460 485 LINE SMOOTH",
"465 493 OFFCURVE",
"461 500 OFFCURVE",
"451 500 CURVE SMOOTH",
"310 500 LINE SMOOTH",
"300 500 OFFCURVE",
"295 494 OFFCURVE",
"290 485 CURVE SMOOTH",
"250 416 LINE SMOOTH",
"231 383 OFFCURVE",
"211 348 OFFCURVE",
"195 314 CURVE",
"193 314 LINE",
"207 370 OFFCURVE",
"216 413 OFFCURVE",
"226 473 CURVE SMOOTH",
"228 485 LINE SMOOTH",
"230 496 OFFCURVE",
"223 500 OFFCURVE",
"214 500 CURVE SMOOTH",
"86 500 LINE SMOOTH",
"77 500 OFFCURVE",
"72 494 OFFCURVE",
"71 485 CURVE SMOOTH",
"-4 15 LINE SMOOTH",
"-6 5 OFFCURVE",
"-1 0 OFFCURVE",
"9 0 CURVE SMOOTH"
);
}
);
width = 423;
},
{
anchors = (
{
name = bottom;
position = "{119, 0}";
},
{
name = top;
position = "{194, 478}";
}
);
layerId = "7BE597F2-1213-4429-94A3-E96FC63EF83E";
paths = (
{
closed = 1;
nodes = (
"42 0 LINE SMOOTH",
"45 0 OFFCURVE",
"46 0 OFFCURVE",
"47 5 CURVE SMOOTH",
"72 162 LINE",
"154 275 LINE",
"225 4 LINE SMOOTH",
"226 1 OFFCURVE",
"226 0 OFFCURVE",
"229 0 CURVE SMOOTH",
"238 0 LINE SMOOTH",
"240 0 OFFCURVE",
"242 1 OFFCURVE",
"241 4 CURVE SMOOTH",
"166 290 LINE",
"300 474 LINE SMOOTH",
"302 477 OFFCURVE",
"300 478 OFFCURVE",
"298 478 CURVE SMOOTH",
"289 478 LINE SMOOTH",
"286 478 OFFCURVE",
"285 478 OFFCURVE",
"283 475 CURVE SMOOTH",
"148 291 LINE SMOOTH",
"124 259 OFFCURVE",
"103 229 OFFCURVE",
"78 194 CURVE",
"77 194 LINE",
"84 239 OFFCURVE",
"89 274 OFFCURVE",
"96 315 CURVE SMOOTH",
"122 474 LINE SMOOTH",
"123 478 OFFCURVE",
"121 478 OFFCURVE",
"118 478 CURVE SMOOTH",
"111 478 LINE SMOOTH",
"108 478 OFFCURVE",
"107 478 OFFCURVE",
"106 474 CURVE SMOOTH",
"31 5 LINE SMOOTH",
"30 0 OFFCURVE",
"32 0 OFFCURVE",
"35 0 CURVE SMOOTH"
);
}
);
width = 289;
},
{
anchors = (
{
name = bottom;
position = "{129, 0}";
},
{
name = top;
position = "{205, 486}";
}
);
layerId = "F3DD84D5-00FA-4BE1-BE55-069AF9C50450";
paths = (
{
closed = 1;
nodes = (
"70 0 LINE SMOOTH",
"76 0 OFFCURVE",
"78 3 OFFCURVE",
"79 9 CURVE SMOOTH",
"105 172 LINE",
"156 244 LINE",
"205 9 LINE SMOOTH",
"206 3 OFFCURVE",
"208 0 OFFCURVE",
"214 0 CURVE SMOOTH",
"261 0 LINE SMOOTH",
"267 0 OFFCURVE",
"270 3 OFFCURVE",
"269 9 CURVE SMOOTH",
"206 303 LINE",
"334 477 LINE SMOOTH",
"338 482 OFFCURVE",
"335 486 OFFCURVE",
"329 486 CURVE SMOOTH",
"274 486 LINE SMOOTH",
"269 486 OFFCURVE",
"266 484 OFFCURVE",
"263 479 CURVE SMOOTH",
"179 360 LINE SMOOTH",
"159 331 OFFCURVE",
"139 298 OFFCURVE",
"119 267 CURVE",
"118 267 LINE",
"126 307 OFFCURVE",
"131 338 OFFCURVE",
"136 371 CURVE SMOOTH",
"153 477 LINE SMOOTH",
"154 482 OFFCURVE",
"152 486 OFFCURVE",
"146 486 CURVE SMOOTH",
"101 486 LINE SMOOTH",
"95 486 OFFCURVE",
"92 483 OFFCURVE",
"91 477 CURVE SMOOTH",
"17 9 LINE SMOOTH",
"16 3 OFFCURVE",
"19 0 OFFCURVE",
"25 0 CURVE SMOOTH"
);
}
);
width = 306;
}
);
leftKerningGroup = u;
leftMetricsKey = u;
rightKerningGroup = k;
rightMetricsKey = k;
unicode = 0138;
},
{
glyphname = l;
lastChange = "2022-10-25 01:48:04 +0000";
layers = (
{
anchors = (
{
name = bottom;
position = "{73, 0}";
},
{
name = center;
position = "{112, 250}";
},
{
name = top;
position = "{181, 683}";
},
{
name = topright;
position = "{234, 500}";
}
);
layerId = "9DFF46AD-73DE-422E-A6A3-16745129C94E";
paths = (
{
closed = 1;
nodes = (
"139 0 LINE SMOOTH",
"146 0 OFFCURVE",
"152 6 OFFCURVE",
"153 14 CURVE SMOOTH",
"257 668 LINE SMOOTH",
"259 678 OFFCURVE",
"252 683 OFFCURVE",
"243 683 CURVE SMOOTH",
"115 683 LINE SMOOTH",
"106 683 OFFCURVE",
"101 677 OFFCURVE",
"100 668 CURVE SMOOTH",
"-4 14 LINE SMOOTH",
"-5 6 OFFCURVE",
"-1 0 OFFCURVE",
"6 0 CURVE SMOOTH"
);
}
);
width = 204;
},
{
anchors = (
{
name = bottom;
position = "{37, 0}";
},
{
name = center;
position = "{75, 239}";
},
{
name = top;
position = "{145, 683}";
},
{
name = topright;
position = "{160, 478}";
}
);
layerId = "7BE597F2-1213-4429-94A3-E96FC63EF83E";
paths = (
{
closed = 1;
nodes = (
"41 0 LINE SMOOTH",
"44 0 OFFCURVE",
"45 0 OFFCURVE",
"46 5 CURVE SMOOTH",
"153 679 LINE SMOOTH",
"154 683 OFFCURVE",
"152 683 OFFCURVE",
"149 683 CURVE SMOOTH",
"142 683 LINE SMOOTH",
"139 683 OFFCURVE",
"138 683 OFFCURVE",
"137 679 CURVE SMOOTH",
"30 5 LINE SMOOTH",
"29 0 OFFCURVE",
"31 0 OFFCURVE",
"34 0 CURVE SMOOTH"
);
}
);
width = 133;
},
{
anchors = (
{
name = bottom;
position = "{47, 0}";
},
{
name = center;
position = "{86, 243}";
},
{
name = top;
position = "{155, 683}";
},
{
name = topright;
position = "{181, 486}";
}
);
layerId = "F3DD84D5-00FA-4BE1-BE55-069AF9C50450";
paths = (
{
closed = 1;
nodes = (
"70 0 LINE SMOOTH",
"75 0 OFFCURVE",
"78 3 OFFCURVE",
"79 9 CURVE SMOOTH",
"184 674 LINE SMOOTH",
"185 680 OFFCURVE",
"183 683 OFFCURVE",
"177 683 CURVE SMOOTH",
"132 683 LINE SMOOTH",
"126 683 OFFCURVE",
"123 680 OFFCURVE",
"122 674 CURVE SMOOTH",
"17 9 LINE SMOOTH",
"16 3 OFFCURVE",
"19 0 OFFCURVE",
"25 0 CURVE SMOOTH"
);
}
);
width = 153;
}
);
leftKerningGroup = h;
leftMetricsKey = h;
rightKerningGroup = l;
unicode = 006C;
},
{
glyphname = lslash;
lastChange = "2022-10-25 01:48:04 +0000";
layers = (
{
components = (
{
name = l;
}
);
layerId = "9DFF46AD-73DE-422E-A6A3-16745129C94E";
paths = (
{
closed = 1;
nodes = (
"45 324 LINE",
"234 401 LINE SMOOTH",
"241 404 OFFCURVE",
"244 409 OFFCURVE",
"245 417 CURVE SMOOTH",
"259 503 LINE SMOOTH",
"260 509 OFFCURVE",
"255 512 OFFCURVE",
"249 509 CURVE SMOOTH",
"43 424 LINE SMOOTH",
"35 421 OFFCURVE",
"32 416 OFFCURVE",
"31 408 CURVE SMOOTH",
"16 322 LINE SMOOTH",
"15 317 OFFCURVE",
"19 313 OFFCURVE",
"24 315 CURVE SMOOTH"
);
}
);
width = 204;
},
{
components = (
{
name = l;
}
);
layerId = "7BE597F2-1213-4429-94A3-E96FC63EF83E";
paths = (
{
closed = 1;
nodes = (
"94 409 LINE",
"165 457 LINE SMOOTH",
"168 459 OFFCURVE",
"168 459 OFFCURVE",
"169 463 CURVE SMOOTH",
"171 472 LINE SMOOTH",
"172 476 OFFCURVE",
"170 476 OFFCURVE",
"167 474 CURVE SMOOTH",
"44 391 LINE SMOOTH",
"42 390 OFFCURVE",
"41 389 OFFCURVE",
"40 385 CURVE SMOOTH",
"38 376 LINE SMOOTH",
"37 373 OFFCURVE",
"40 373 OFFCURVE",
"41 374 CURVE SMOOTH"
);
}
);
width = 133;
},
{
components = (
{
alignment = -1;
name = l;
}
);
layerId = "F3DD84D5-00FA-4BE1-BE55-069AF9C50450";
paths = (
{
closed = 1;
nodes = (
"75 371 LINE",
"188 447 LINE SMOOTH",
"191 450 OFFCURVE",
"192 452 OFFCURVE",
"193 457 CURVE SMOOTH",
"202 504 LINE SMOOTH",
"203 510 OFFCURVE",
"199 512 OFFCURVE",
"195 510 CURVE SMOOTH",
"42 406 LINE SMOOTH",
"39 405 OFFCURVE",
"37 402 OFFCURVE",
"36 397 CURVE SMOOTH",
"28 348 LINE SMOOTH",
"27 342 OFFCURVE",
"31 342 OFFCURVE",
"35 344 CURVE SMOOTH"
);
}
);
width = 153;
}
);
leftKerningGroup = lslash;
rightKerningGroup = lslash;
unicode = 0142;
},
{
glyphname = m;
lastChange = "2022-10-25 01:49:53 +0000";
layers = (
{
layerId = "9DFF46AD-73DE-422E-A6A3-16745129C94E";
paths = (
{
closed = 1;
nodes = (
"138 0 LINE SMOOTH",
"146 0 OFFCURVE",
"152 7 OFFCURVE",
"153 15 CURVE SMOOTH",
"208 361 LINE",
"216 367 OFFCURVE",
"223 369 OFFCURVE",
"229 369 CURVE SMOOTH",
"242 369 OFFCURVE",
"246 363 OFFCURVE",
"242 339 CURVE SMOOTH",
"190 15 LINE SMOOTH",
"189 6 OFFCURVE",
"194 0 OFFCURVE",
"204 0 CURVE SMOOTH",
"332 0 LINE SMOOTH",
"340 0 OFFCURVE",
"346 6 OFFCURVE",
"347 15 CURVE SMOOTH",
"402 362 LINE",
"410 367 OFFCURVE",
"417 369 OFFCURVE",
"423 369 CURVE SMOOTH",
"436 369 OFFCURVE",
"440 363 OFFCURVE",
"436 339 CURVE SMOOTH",
"384 15 LINE SMOOTH",
"383 6 OFFCURVE",
"388 0 OFFCURVE",
"398 0 CURVE SMOOTH",
"526 0 LINE SMOOTH",
"534 0 OFFCURVE",
"540 6 OFFCURVE",
"541 15 CURVE SMOOTH",
"596 360 LINE SMOOTH",
"613 464 OFFCURVE",
"589 506 OFFCURVE",
"524 506 CURVE SMOOTH",
"482 506 OFFCURVE",
"441 487 OFFCURVE",
"404 450 CURVE",
"396 489 OFFCURVE",
"371 506 OFFCURVE",
"330 506 CURVE SMOOTH",
"285 506 OFFCURVE",
"241 484 OFFCURVE",
"201 441 CURVE",
"203 458 OFFCURVE",
"204 474 OFFCURVE",
"204 485 CURVE SMOOTH",
"204 497 OFFCURVE",
"198 500 OFFCURVE",
"189 500 CURVE SMOOTH",
"83 500 LINE SMOOTH",
"74 500 OFFCURVE",
"69 495 OFFCURVE",
"68 485 CURVE SMOOTH",
"66 452 OFFCURVE",
"59 410 OFFCURVE",
"52 368 CURVE SMOOTH",
"-4 15 LINE SMOOTH",
"-5 6 OFFCURVE",
"-1 0 OFFCURVE",
"10 0 CURVE SMOOTH"
);
}
);
width = 592;
},
{
layerId = "7BE597F2-1213-4429-94A3-E96FC63EF83E";
paths = (
{
closed = 1;
nodes = (
"41 0 LINE SMOOTH",
"44 0 OFFCURVE",
"45 0 OFFCURVE",
"46 4 CURVE SMOOTH",
"106 384 LINE",
"164 444 OFFCURVE",
"198 468 OFFCURVE",
"233 468 CURVE SMOOTH",
"272 468 OFFCURVE",
"285 439 OFFCURVE",
"275 378 CURVE SMOOTH",
"215 4 LINE SMOOTH",
"214 0 OFFCURVE",
"216 0 OFFCURVE",
"219 0 CURVE SMOOTH",
"226 0 LINE SMOOTH",
"229 0 OFFCURVE",
"230 0 OFFCURVE",
"231 4 CURVE SMOOTH",
"291 383 LINE",
"351 443 OFFCURVE",
"383 468 OFFCURVE",
"418 468 CURVE SMOOTH",
"457 468 OFFCURVE",
"470 439 OFFCURVE",
"460 378 CURVE SMOOTH",
"400 4 LINE SMOOTH",
"399 0 OFFCURVE",
"401 0 OFFCURVE",
"404 0 CURVE SMOOTH",
"411 0 LINE SMOOTH",
"414 0 OFFCURVE",
"415 0 OFFCURVE",
"416 4 CURVE SMOOTH",
"476 382 LINE SMOOTH",
"487 454 OFFCURVE",
"466 484 OFFCURVE",
"419 484 CURVE SMOOTH",
"380 484 OFFCURVE",
"348 460 OFFCURVE",
"293 404 CURVE",
"297 460 OFFCURVE",
"276 484 OFFCURVE",
"234 484 CURVE SMOOTH",
"195 484 OFFCURVE",
"160 461 OFFCURVE",
"109 405 CURVE",
"112 426 OFFCURVE",
"115 451 OFFCURVE",
"117 475 CURVE",
"117 478 OFFCURVE",
"116 478 OFFCURVE",
"114 478 CURVE SMOOTH",
"105 478 LINE SMOOTH",
"103 478 OFFCURVE",
"102 477 OFFCURVE",
"102 475 CURVE",
"98 441 OFFCURVE",
"94 403 OFFCURVE",
"88 368 CURVE SMOOTH",
"30 4 LINE SMOOTH",
"29 0 OFFCURVE",
"31 0 OFFCURVE",
"34 0 CURVE SMOOTH"
);
}
);
width = 503;
},
{
layerId = "F3DD84D5-00FA-4BE1-BE55-069AF9C50450";
paths = (
{
closed = 1;
nodes = (
"70 0 LINE SMOOTH",
"75 0 OFFCURVE",
"78 3 OFFCURVE",
"79 9 CURVE SMOOTH",
"137 374 LINE",
"172 413 OFFCURVE",
"200 431 OFFCURVE",
"223 431 CURVE SMOOTH",
"249 431 OFFCURVE",
"258 410 OFFCURVE",
"250 365 CURVE SMOOTH",
"193 9 LINE SMOOTH",
"192 3 OFFCURVE",
"195 0 OFFCURVE",
"201 0 CURVE SMOOTH",
"246 0 LINE SMOOTH",
"251 0 OFFCURVE",
"254 3 OFFCURVE",
"255 9 CURVE SMOOTH",
"313 374 LINE",
"349 412 OFFCURVE",
"376 431 OFFCURVE",
"399 431 CURVE SMOOTH",
"425 431 OFFCURVE",
"434 410 OFFCURVE",
"426 365 CURVE SMOOTH",
"369 9 LINE SMOOTH",
"368 3 OFFCURVE",
"371 0 OFFCURVE",
"377 0 CURVE SMOOTH",
"422 0 LINE SMOOTH",
"427 0 OFFCURVE",
"430 3 OFFCURVE",
"431 9 CURVE SMOOTH",
"488 367 LINE SMOOTH",
"502 452 OFFCURVE",
"481 492 OFFCURVE",
"429 492 CURVE SMOOTH",
"391 492 OFFCURVE",
"354 470 OFFCURVE",
"315 427 CURVE",
"312 471 OFFCURVE",
"291 492 OFFCURVE",
"253 492 CURVE SMOOTH",
"215 492 OFFCURVE",
"179 471 OFFCURVE",
"140 430 CURVE",
"143 446 OFFCURVE",
"144 463 OFFCURVE",
"144 477 CURVE SMOOTH",
"144 484 OFFCURVE",
"142 486 OFFCURVE",
"137 486 CURVE SMOOTH",
"97 486 LINE SMOOTH",
"91 486 OFFCURVE",
"88 484 OFFCURVE",
"88 477 CURVE SMOOTH",
"87 456 OFFCURVE",
"83 422 OFFCURVE",
"74 366 CURVE SMOOTH",
"17 9 LINE SMOOTH",
"16 3 OFFCURVE",
"19 0 OFFCURVE",
"25 0 CURVE SMOOTH"
);
}
);
width = 504;
}
);
leftKerningGroup = n;
leftMetricsKey = n;
rightKerningGroup = n;
rightMetricsKey = n;
unicode = 006D;
},
{
glyphname = n;
lastChange = "2022-10-25 01:48:04 +0000";
layers = (
{
anchors = (
{
name = apo;
position = "{14, 497}";
},
{
name = bottom;
position = "{174, 0}";
},
{
name = top;
position = "{253, 497}";
}
);
layerId = "9DFF46AD-73DE-422E-A6A3-16745129C94E";
paths = (
{
closed = 1;
nodes = (
"335 0 LINE SMOOTH",
"343 0 OFFCURVE",
"349 6 OFFCURVE",
"350 15 CURVE SMOOTH",
"405 360 LINE SMOOTH",
"422 464 OFFCURVE",
"398 506 OFFCURVE",
"333 506 CURVE SMOOTH",
"281 506 OFFCURVE",
"230 476 OFFCURVE",
"186 419 CURVE",
"204 356 LINE",
"214 365 OFFCURVE",
"225 369 OFFCURVE",
"233 369 CURVE SMOOTH",
"245 369 OFFCURVE",
"249 363 OFFCURVE",
"245 339 CURVE SMOOTH",
"193 15 LINE SMOOTH",
"192 6 OFFCURVE",
"197 0 OFFCURVE",
"207 0 CURVE SMOOTH"
);
},
{
closed = 1;
nodes = (
"138 0 LINE SMOOTH",
"146 0 OFFCURVE",
"152 7 OFFCURVE",
"153 15 CURVE SMOOTH",
"209 368 LINE",
"198 407 LINE",
"201 433 OFFCURVE",
"204 466 OFFCURVE",
"204 485 CURVE SMOOTH",
"204 497 OFFCURVE",
"198 500 OFFCURVE",
"189 500 CURVE SMOOTH",
"83 500 LINE SMOOTH",
"74 500 OFFCURVE",
"69 495 OFFCURVE",
"68 485 CURVE SMOOTH",
"66 452 OFFCURVE",
"59 410 OFFCURVE",
"52 368 CURVE SMOOTH",
"-4 15 LINE SMOOTH",
"-5 6 OFFCURVE",
"-1 0 OFFCURVE",
"10 0 CURVE SMOOTH"
);
}
);
width = 401;
},
{
anchors = (
{
name = apo;
position = "{62, 488}";
},
{
name = bottom;
position = "{139, 0}";
},
{
name = top;
position = "{212, 478}";
}
);
layerId = "7BE597F2-1213-4429-94A3-E96FC63EF83E";
paths = (
{
closed = 1;
nodes = (
"244 0 LINE SMOOTH",
"247 0 OFFCURVE",
"248 0 OFFCURVE",
"249 4 CURVE SMOOTH",
"304 355 LINE SMOOTH",
"319 449 OFFCURVE",
"297 484 OFFCURVE",
"243 484 CURVE SMOOTH",
"195 484 OFFCURVE",
"145 442 OFFCURVE",
"104 400 CURVE",
"101 379 LINE",
"150 429 OFFCURVE",
"197 468 OFFCURVE",
"241 468 CURVE SMOOTH",
"288 468 OFFCURVE",
"301 432 OFFCURVE",
"288 352 CURVE SMOOTH",
"233 4 LINE SMOOTH",
"232 0 OFFCURVE",
"234 0 OFFCURVE",
"237 0 CURVE SMOOTH"
);
},
{
closed = 1;
nodes = (
"41 0 LINE SMOOTH",
"44 0 OFFCURVE",
"45 0 OFFCURVE",
"46 4 CURVE SMOOTH",
"106 385 LINE",
"106 386 LINE",
"110 408 OFFCURVE",
"114 443 OFFCURVE",
"117 475 CURVE SMOOTH",
"117 478 OFFCURVE",
"116 478 OFFCURVE",
"114 478 CURVE SMOOTH",
"105 478 LINE SMOOTH",
"103 478 OFFCURVE",
"102 477 OFFCURVE",
"102 475 CURVE SMOOTH",
"98 441 OFFCURVE",
"94 403 OFFCURVE",
"88 368 CURVE SMOOTH",
"30 4 LINE SMOOTH",
"29 0 OFFCURVE",
"31 0 OFFCURVE",
"34 0 CURVE SMOOTH"
);
}
);
width = 336;
},
{
anchors = (
{
name = apo;
position = "{93, 488}";
},
{
name = bottom;
position = "{141, 0}";
},
{
name = top;
position = "{219, 486}";
}
);
layerId = "F3DD84D5-00FA-4BE1-BE55-069AF9C50450";
paths = (
{
closed = 1;
nodes = (
"258 0 LINE SMOOTH",
"262 0 OFFCURVE",
"266 3 OFFCURVE",
"267 9 CURVE SMOOTH",
"323 361 LINE SMOOTH",
"337 450 OFFCURVE",
"314 492 OFFCURVE",
"255 492 CURVE SMOOTH",
"214 492 OFFCURVE",
"171 465 OFFCURVE",
"132 420 CURVE",
"129 366 LINE",
"165 407 OFFCURVE",
"199 431 OFFCURVE",
"229 431 CURVE SMOOTH",
"260 431 OFFCURVE",
"269 410 OFFCURVE",
"261 360 CURVE SMOOTH",
"205 9 LINE SMOOTH",
"204 3 OFFCURVE",
"207 0 OFFCURVE",
"213 0 CURVE SMOOTH"
);
},
{
closed = 1;
nodes = (
"70 0 LINE SMOOTH",
"75 0 OFFCURVE",
"78 3 OFFCURVE",
"79 9 CURVE SMOOTH",
"137 379 LINE",
"135 385 LINE",
"138 406 OFFCURVE",
"144 449 OFFCURVE",
"144 477 CURVE SMOOTH",
"144 484 OFFCURVE",
"142 486 OFFCURVE",
"137 486 CURVE SMOOTH",
"97 486 LINE SMOOTH",
"91 486 OFFCURVE",
"88 484 OFFCURVE",
"88 477 CURVE SMOOTH",
"87 456 OFFCURVE",
"83 422 OFFCURVE",
"74 366 CURVE SMOOTH",
"17 9 LINE SMOOTH",
"16 3 OFFCURVE",
"19 0 OFFCURVE",
"25 0 CURVE SMOOTH"
);
}
);
width = 340;
}
);
leftKerningGroup = n;
rightKerningGroup = n;
unicode = 006E;
},
{
glyphname = eng;
lastChange = "2022-10-25 01:48:04 +0000";
layers = (
{
layerId = "9DFF46AD-73DE-422E-A6A3-16745129C94E";
leftMetricsKey = "=n";
rightMetricsKey = "=n";
paths = (
{
closed = 1;
nodes = (
"313 -120 OFFCURVE",
"338 -63 OFFCURVE",
"362 87 CURVE SMOOTH",
"405 360 LINE SMOOTH",
"422 464 OFFCURVE",
"398 506 OFFCURVE",
"333 506 CURVE SMOOTH",
"287 506 OFFCURVE",
"242 482 OFFCURVE",
"201 437 CURVE",
"203 455 OFFCURVE",
"204 473 OFFCURVE",
"204 485 CURVE SMOOTH",
"204 497 OFFCURVE",
"198 500 OFFCURVE",
"189 500 CURVE SMOOTH",
"83 500 LINE SMOOTH",
"74 500 OFFCURVE",
"69 495 OFFCURVE",
"68 485 CURVE SMOOTH",
"66 452 OFFCURVE",
"59 410 OFFCURVE",
"52 368 CURVE SMOOTH",
"-4 15 LINE SMOOTH",
"-5 6 OFFCURVE",
"-1 0 OFFCURVE",
"10 0 CURVE SMOOTH",
"138 0 LINE SMOOTH",
"146 0 OFFCURVE",
"152 7 OFFCURVE",
"153 15 CURVE SMOOTH",
"208 359 LINE",
"216 366 OFFCURVE",
"225 369 OFFCURVE",
"232 369 CURVE SMOOTH",
"245 369 OFFCURVE",
"249 363 OFFCURVE",
"245 339 CURVE SMOOTH",
"205 85 LINE SMOOTH",
"191 -6 OFFCURVE",
"177 -43 OFFCURVE",
"139 -76 CURVE SMOOTH",
"132 -82 OFFCURVE",
"132 -89 OFFCURVE",
"136 -95 CURVE SMOOTH",
"198 -183 LINE SMOOTH",
"201 -188 OFFCURVE",
"208 -190 OFFCURVE",
"214 -186 CURVE SMOOTH"
);
}
);
width = 401;
},
{
layerId = "7BE597F2-1213-4429-94A3-E96FC63EF83E";
paths = (
{
closed = 1;
nodes = (
"213 -145 OFFCURVE",
"233 -100 OFFCURVE",
"250 10 CURVE SMOOTH",
"304 355 LINE SMOOTH",
"319 449 OFFCURVE",
"297 484 OFFCURVE",
"243 484 CURVE SMOOTH",
"197 484 OFFCURVE",
"149 445 OFFCURVE",
"109 405 CURVE",
"112 426 OFFCURVE",
"116 451 OFFCURVE",
"118 475 CURVE",
"118 478 OFFCURVE",
"117 478 OFFCURVE",
"115 478 CURVE SMOOTH",
"105 478 LINE SMOOTH",
"103 478 OFFCURVE",
"102 477 OFFCURVE",
"102 475 CURVE",
"98 441 OFFCURVE",
"94 403 OFFCURVE",
"88 368 CURVE SMOOTH",
"30 4 LINE SMOOTH",
"29 0 OFFCURVE",
"31 0 OFFCURVE",
"34 0 CURVE SMOOTH",
"41 0 LINE SMOOTH",
"44 0 OFFCURVE",
"45 0 OFFCURVE",
"46 4 CURVE SMOOTH",
"106 384 LINE",
"153 432 OFFCURVE",
"198 468 OFFCURVE",
"241 468 CURVE SMOOTH",
"288 468 OFFCURVE",
"301 432 OFFCURVE",
"288 352 CURVE SMOOTH",
"234 11 LINE SMOOTH",
"218 -92 OFFCURVE",
"201 -130 OFFCURVE",
"153 -175 CURVE SMOOTH",
"151 -177 OFFCURVE",
"151 -178 OFFCURVE",
"152 -179 CURVE",
"159 -188 LINE",
"160 -189 OFFCURVE",
"161 -189 OFFCURVE",
"162 -188 CURVE"
);
}
);
width = 336;
},
{
layerId = "F3DD84D5-00FA-4BE1-BE55-069AF9C50450";
paths = (
{
closed = 1;
nodes = (
"228 -160 OFFCURVE",
"253 -80 OFFCURVE",
"273 43 CURVE SMOOTH",
"323 361 LINE SMOOTH",
"338 455 OFFCURVE",
"311 492 OFFCURVE",
"255 492 CURVE SMOOTH",
"214 492 OFFCURVE",
"174 465 OFFCURVE",
"140 429 CURVE",
"143 446 OFFCURVE",
"144 463 OFFCURVE",
"145 477 CURVE SMOOTH",
"145 484 OFFCURVE",
"142 486 OFFCURVE",
"137 486 CURVE SMOOTH",
"97 486 LINE SMOOTH",
"91 486 OFFCURVE",
"88 484 OFFCURVE",
"88 477 CURVE SMOOTH",
"87 456 OFFCURVE",
"83 422 OFFCURVE",
"74 366 CURVE SMOOTH",
"17 9 LINE SMOOTH",
"16 3 OFFCURVE",
"19 0 OFFCURVE",
"25 0 CURVE SMOOTH",
"71 0 LINE SMOOTH",
"76 0 OFFCURVE",
"79 3 OFFCURVE",
"80 9 CURVE SMOOTH",
"137 375 LINE",
"172 411 OFFCURVE",
"202 431 OFFCURVE",
"229 431 CURVE SMOOTH",
"257 431 OFFCURVE",
"270 414 OFFCURVE",
"261 360 CURVE SMOOTH",
"211 47 LINE SMOOTH",
"195 -54 OFFCURVE",
"178 -106 OFFCURVE",
"135 -140 CURVE SMOOTH",
"131 -144 OFFCURVE",
"130 -147 OFFCURVE",
"133 -151 CURVE SMOOTH",
"156 -192 LINE SMOOTH",
"158 -195 OFFCURVE",
"161 -196 OFFCURVE",
"164 -194 CURVE SMOOTH"
);
}
);
width = 341;
}
);
leftKerningGroup = n;
leftMetricsKey = n;
rightKerningGroup = n;
rightMetricsKey = n;
unicode = 014B;
},
{
glyphname = o;
lastChange = "2022-10-25 01:48:04 +0000";
layers = (
{
anchors = (
{
name = bottom;
position = "{159, 0}";
},
{
name = center;
position = "{199, 250}";
},
{
name = ogonek;
position = "{318, 10}";
},
{
name = top;
position = "{239, 500}";
},
{
name = topright;
position = "{418, 500}";
}
);
layerId = "9DFF46AD-73DE-422E-A6A3-16745129C94E";
paths = (
{
closed = 1;
nodes = (
"287 -6 OFFCURVE",
"358 55 OFFCURVE",
"375 165 CURVE SMOOTH",
"400 325 LINE SMOOTH",
"418 439 OFFCURVE",
"355.294 506 OFFCURVE",
"240.205 506 CURVE SMOOTH",
"131 506 OFFCURVE",
"60 446 OFFCURVE",
"43 335 CURVE SMOOTH",
"18 174 LINE SMOOTH",
"0 61 OFFCURVE",
"61.551 -6 OFFCURVE",
"177.394 -6 CURVE SMOOTH"
);
},
{
closed = 1;
nodes = (
"174.406 131 OFFCURVE",
"171 143 OFFCURVE",
"175 171 CURVE SMOOTH",
"200 329 LINE SMOOTH",
"205 360 OFFCURVE",
"210.781 369 OFFCURVE",
"226.5 369 CURVE SMOOTH",
"243.594 369 OFFCURVE",
"247 357 OFFCURVE",
"243 329 CURVE SMOOTH",
"218 171 LINE SMOOTH",
"213 140 OFFCURVE",
"207.219 131 OFFCURVE",
"191.5 131 CURVE SMOOTH"
);
}
);
width = 398;
},
{
anchors = (
{
name = bottom;
position = "{127, 0}";
},
{
name = center;
position = "{165, 239}";
},
{
name = ogonek;
position = "{253, 10}";
},
{
name = top;
position = "{203, 478}";
},
{
name = topright;
position = "{348, 478}";
}
);
layerId = "7BE597F2-1213-4429-94A3-E96FC63EF83E";
paths = (
{
closed = 1;
nodes = (
"203 -6 OFFCURVE",
"244.838 37.97 OFFCURVE",
"259 128 CURVE SMOOTH",
"292 339 LINE SMOOTH",
"306.491 432.154 OFFCURVE",
"273 484 OFFCURVE",
"198 484 CURVE SMOOTH",
"127 484 OFFCURVE",
"86.193 440.227 OFFCURVE",
"72 350 CURVE SMOOTH",
"39 139 LINE SMOOTH",
"24.669 46.873 OFFCURVE",
"59 -6 OFFCURVE",
"134 -6 CURVE SMOOTH"
);
},
{
closed = 1;
nodes = (
"69.279 10 OFFCURVE",
"41.529 55.064 OFFCURVE",
"55 139 CURVE SMOOTH",
"88 349 LINE SMOOTH",
"100.149 428.981 OFFCURVE",
"135.746 468 OFFCURVE",
"196.562 468 CURVE SMOOTH",
"261.721 468 OFFCURVE",
"289.471 422.936 OFFCURVE",
"276 339 CURVE SMOOTH",
"243 129 LINE SMOOTH",
"230.851 49.019 OFFCURVE",
"195.254 10 OFFCURVE",
"134.438 10 CURVE SMOOTH"
);
}
);
width = 314;
},
{
anchors = (
{
name = bottom;
position = "{129, 0}";
},
{
name = center;
position = "{177, 260}";
},
{
name = ogonek;
position = "{263, 10}";
},
{
name = top;
position = "{213, 486}";
},
{
name = topright;
position = "{359, 486}";
}
);
layerId = "F3DD84D5-00FA-4BE1-BE55-069AF9C50450";
paths = (
{
closed = 1;
nodes = (
"227 -6 OFFCURVE",
"271 42 OFFCURVE",
"289 154 CURVE SMOOTH",
"316 329 LINE SMOOTH",
"334 438 OFFCURVE",
"292 492 OFFCURVE",
"208 492 CURVE SMOOTH",
"122 492 OFFCURVE",
"79 445 OFFCURVE",
"61 333 CURVE SMOOTH",
"33 157 LINE SMOOTH",
"15 48 OFFCURVE",
"57 -6 OFFCURVE",
"141 -6 CURVE SMOOTH"
);
},
{
closed = 1;
nodes = (
"101 55 OFFCURVE",
"83 86 OFFCURVE",
"95 158 CURVE SMOOTH",
"124 331 LINE SMOOTH",
"136 404 OFFCURVE",
"155 431 OFFCURVE",
"200 431 CURVE SMOOTH",
"248 431 OFFCURVE",
"265 401 OFFCURVE",
"253 328 CURVE SMOOTH",
"226 155 LINE SMOOTH",
"215 82 OFFCURVE",
"194 55 OFFCURVE",
"149 55 CURVE SMOOTH"
);
}
);
width = 331;
}
);
leftKerningGroup = o;
rightKerningGroup = o;
unicode = 006F;
},
{
glyphname = oslash;
lastChange = "2022-10-25 01:48:04 +0000";
layers = (
{
anchors = (
{
name = top;
position = "{252, 500}";
}
);
components = (
{
name = o;
}
);
layerId = "9DFF46AD-73DE-422E-A6A3-16745129C94E";
paths = (
{
closed = 1;
nodes = (
"88 -52 LINE SMOOTH",
"96 -52 OFFCURVE",
"99 -48 OFFCURVE",
"105 -37 CURVE SMOOTH",
"136 22 LINE",
"153 100 LINE",
"299 376 LINE",
"378 434 LINE",
"431 533 LINE SMOOTH",
"436 542 OFFCURVE",
"432 548 OFFCURVE",
"424 548 CURVE SMOOTH",
"331 548 LINE SMOOTH",
"323 548 OFFCURVE",
"320 544 OFFCURVE",
"314 533 CURVE SMOOTH",
"283 475 LINE",
"273 410 LINE",
"135 150 LINE",
"49 79 LINE",
"-12 -37 LINE SMOOTH",
"-17 -46 OFFCURVE",
"-13 -52 OFFCURVE",
"-5 -52 CURVE SMOOTH"
);
}
);
width = 398;
},
{
anchors = (
{
name = top;
position = "{198, 478}";
}
);
components = (
{
name = o;
}
);
layerId = "7BE597F2-1213-4429-94A3-E96FC63EF83E";
paths = (
{
closed = 1;
nodes = (
"-6 -51 LINE SMOOTH",
"-3 -51 OFFCURVE",
"-3 -50 OFFCURVE",
"-1 -47 CURVE SMOOTH",
"54 44 LINE",
"58 51 LINE",
"278 419 LINE",
"283 428 LINE",
"347 535 LINE SMOOTH",
"348 537 OFFCURVE",
"347 538 OFFCURVE",
"345 538 CURVE SMOOTH",
"337 538 LINE SMOOTH",
"334 538 OFFCURVE",
"333 537 OFFCURVE",
"331 534 CURVE SMOOTH",
"275 440 LINE",
"272 435 LINE",
"52 66 LINE",
"47 58 LINE",
"-16 -47 LINE SMOOTH",
"-18 -50 OFFCURVE",
"-17 -51 OFFCURVE",
"-14 -51 CURVE SMOOTH"
);
}
);
width = 314;
},
{
anchors = (
{
name = top;
position = "{210, 486}";
}
);
components = (
{
alignment = -1;
name = o;
}
);
layerId = "F3DD84D5-00FA-4BE1-BE55-069AF9C50450";
paths = (
{
closed = 1;
nodes = (
"25 -51 LINE SMOOTH",
"30 -51 OFFCURVE",
"33 -49 OFFCURVE",
"35 -45 CURVE SMOOTH",
"79 31 LINE",
"94 58 LINE",
"280 381 LINE",
"298 413 LINE",
"365 529 LINE SMOOTH",
"367 534 OFFCURVE",
"366 537 OFFCURVE",
"361 537 CURVE SMOOTH",
"322 537 LINE SMOOTH",
"317 537 OFFCURVE",
"314 536 OFFCURVE",
"312 532 CURVE SMOOTH",
"267 455 LINE",
"254 433 LINE",
"67 106 LINE",
"53 81 LINE",
"-18 -41 LINE SMOOTH",
"-21 -46 OFFCURVE",
"-20 -51 OFFCURVE",
"-15 -51 CURVE SMOOTH"
);
}
);
width = 331;
}
);
leftKerningGroup = o;
rightKerningGroup = o;
unicode = 00F8;
},
{
glyphname = oe;
lastChange = "2022-10-25 01:48:04 +0000";
layers = (
{
layerId = "9DFF46AD-73DE-422E-A6A3-16745129C94E";
paths = (
{
closed = 1;
nodes = (
"202 -6 OFFCURVE",
"242 6 OFFCURVE",
"268 28 CURVE",
"295 5 OFFCURVE",
"329 -6 OFFCURVE",
"377 -6 CURVE SMOOTH",
"500 -6 OFFCURVE",
"556 40 OFFCURVE",
"567 151 CURVE SMOOTH",
"568 161 OFFCURVE",
"563 166 OFFCURVE",
"554 166 CURVE SMOOTH",
"434 166 LINE SMOOTH",
"426 166 OFFCURVE",
"420 160 OFFCURVE",
"419 151 CURVE SMOOTH",
"416 122 OFFCURVE",
"409 113 OFFCURVE",
"390 113 CURVE SMOOTH",
"372 113 OFFCURVE",
"366 126 OFFCURVE",
"370 152 CURVE SMOOTH",
"377 195 LINE",
"439 202 LINE SMOOTH",
"552 215 OFFCURVE",
"605 282 OFFCURVE",
"605 386 CURVE SMOOTH",
"605 459 OFFCURVE",
"550 506 OFFCURVE",
"463 506 CURVE SMOOTH",
"417 506 OFFCURVE",
"375 494 OFFCURVE",
"342 469 CURVE",
"321 492 OFFCURVE",
"280 506 OFFCURVE",
"236 506 CURVE SMOOTH",
"128 506 OFFCURVE",
"60 446 OFFCURVE",
"43 335 CURVE SMOOTH",
"18 174 LINE SMOOTH",
"2 69 OFFCURVE",
"60 -6 OFFCURVE",
"160 -6 CURVE SMOOTH"
);
},
{
closed = 1;
nodes = (
"175 131 OFFCURVE",
"170 141 OFFCURVE",
"175 171 CURVE SMOOTH",
"200 329 LINE SMOOTH",
"205 360 OFFCURVE",
"211 369 OFFCURVE",
"227 369 CURVE SMOOTH",
"243 369 OFFCURVE",
"248 359 OFFCURVE",
"243 329 CURVE SMOOTH",
"218 171 LINE SMOOTH",
"213 140 OFFCURVE",
"207 131 OFFCURVE",
"192 131 CURVE SMOOTH"
);
},
{
closed = 1;
nodes = (
"402 350 LINE SMOOTH",
"406 377 OFFCURVE",
"414 387 OFFCURVE",
"431 387 CURVE SMOOTH",
"446 387 OFFCURVE",
"454 377 OFFCURVE",
"454 358 CURVE SMOOTH",
"454 328 OFFCURVE",
"436 298 OFFCURVE",
"406 296 CURVE SMOOTH",
"393 295 LINE"
);
}
);
width = 597;
},
{
layerId = "7BE597F2-1213-4429-94A3-E96FC63EF83E";
paths = (
{
closed = 1;
nodes = (
"180 -6 OFFCURVE",
"215 20 OFFCURVE",
"236 74 CURVE",
"244 21 OFFCURVE",
"277 -6 OFFCURVE",
"330 -6 CURVE SMOOTH",
"399 -6 OFFCURVE",
"431 30 OFFCURVE",
"441 117 CURVE SMOOTH",
"442 122 OFFCURVE",
"440 122 OFFCURVE",
"438 122 CURVE SMOOTH",
"429 122 LINE SMOOTH",
"427 122 OFFCURVE",
"426 121 OFFCURVE",
"426 118 CURVE SMOOTH",
"416 41 OFFCURVE",
"390 10 OFFCURVE",
"330 10 CURVE SMOOTH",
"267 10 OFFCURVE",
"239 54 OFFCURVE",
"253 139 CURVE SMOOTH",
"269 238 LINE",
"352 250 LINE SMOOTH",
"445 263 OFFCURVE",
"485 309 OFFCURVE",
"485 394 CURVE SMOOTH",
"485 453 OFFCURVE",
"452 484 OFFCURVE",
"395 484 CURVE SMOOTH",
"342 484 OFFCURVE",
"305 457 OFFCURVE",
"284 402 CURVE",
"278 456 OFFCURVE",
"246 484 OFFCURVE",
"193 484 CURVE SMOOTH",
"127 484 OFFCURVE",
"86 440 OFFCURVE",
"72 350 CURVE SMOOTH",
"39 139 LINE SMOOTH",
"25 47 OFFCURVE",
"60 -6 OFFCURVE",
"131 -6 CURVE SMOOTH"
);
},
{
closed = 1;
nodes = (
"69 10 OFFCURVE",
"42 55 OFFCURVE",
"55 139 CURVE SMOOTH",
"88 349 LINE SMOOTH",
"101 429 OFFCURVE",
"136 468 OFFCURVE",
"193 468 CURVE SMOOTH",
"254 468 OFFCURVE",
"281 423 OFFCURVE",
"268 339 CURVE SMOOTH",
"235 129 LINE SMOOTH",
"222 49 OFFCURVE",
"187 10 OFFCURVE",
"130 10 CURVE SMOOTH"
);
},
{
closed = 1;
nodes = (
"286 349 LINE SMOOTH",
"299 429 OFFCURVE",
"334 468 OFFCURVE",
"394 468 CURVE SMOOTH",
"442 468 OFFCURVE",
"469 442 OFFCURVE",
"469 393 CURVE SMOOTH",
"469 316 OFFCURVE",
"433 278 OFFCURVE",
"349 266 CURVE SMOOTH",
"271 254 LINE"
);
}
);
width = 498;
},
{
layerId = "F3DD84D5-00FA-4BE1-BE55-069AF9C50450";
paths = (
{
closed = 1;
nodes = (
"181 -6 OFFCURVE",
"214 12 OFFCURVE",
"239 51 CURVE",
"257 12 OFFCURVE",
"286 -6 OFFCURVE",
"330 -6 CURVE SMOOTH",
"405 -6 OFFCURVE",
"448 37 OFFCURVE",
"460 123 CURVE SMOOTH",
"461 130 OFFCURVE",
"458 132 OFFCURVE",
"452 132 CURVE SMOOTH",
"410 132 LINE SMOOTH",
"404 132 OFFCURVE",
"402 130 OFFCURVE",
"401 124 CURVE SMOOTH",
"395 78 OFFCURVE",
"373 55 OFFCURVE",
"333 55 CURVE SMOOTH",
"292 55 OFFCURVE",
"275 85 OFFCURVE",
"284 146 CURVE SMOOTH",
"296 220 LINE",
"361 231 LINE SMOOTH",
"454 248 OFFCURVE",
"501 301 OFFCURVE",
"501 386 CURVE SMOOTH",
"501 455 OFFCURVE",
"465 492 OFFCURVE",
"400 492 CURVE SMOOTH",
"358 492 OFFCURVE",
"325 475 OFFCURVE",
"296 438 CURVE",
"280 474 OFFCURVE",
"249 492 OFFCURVE",
"204 492 CURVE SMOOTH",
"122 492 OFFCURVE",
"79 444 OFFCURVE",
"61 333 CURVE SMOOTH",
"33 157 LINE SMOOTH",
"16 52 OFFCURVE",
"53 -6 OFFCURVE",
"136 -6 CURVE SMOOTH"
);
},
{
closed = 1;
nodes = (
"100 55 OFFCURVE",
"84 88 OFFCURVE",
"95 158 CURVE SMOOTH",
"124 331 LINE SMOOTH",
"136 405 OFFCURVE",
"155 431 OFFCURVE",
"196 431 CURVE SMOOTH",
"244 431 OFFCURVE",
"261 400 OFFCURVE",
"249 328 CURVE SMOOTH",
"222 155 LINE SMOOTH",
"211 82 OFFCURVE",
"190 55 OFFCURVE",
"146 55 CURVE SMOOTH"
);
},
{
closed = 1;
nodes = (
"313 331 LINE SMOOTH",
"326 405 OFFCURVE",
"345 431 OFFCURVE",
"389 431 CURVE SMOOTH",
"422 431 OFFCURVE",
"439 414 OFFCURVE",
"439 380 CURVE SMOOTH",
"439 329 OFFCURVE",
"408 297 OFFCURVE",
"350 287 CURVE SMOOTH",
"305 280 LINE"
);
}
);
width = 507;
}
);
leftKerningGroup = o;
leftMetricsKey = o;
rightKerningGroup = e;
rightMetricsKey = e;
unicode = 0153;
},
{
glyphname = p;
lastChange = "2022-10-25 01:48:04 +0000";
layers = (
{
anchors = (
{
name = bottom;
position = "{159, 0}";
},
{
name = top;
position = "{239, 500}";
}
);
layerId = "9DFF46AD-73DE-422E-A6A3-16745129C94E";
paths = (
{
closed = 1;
nodes = (
"316.919 -6 OFFCURVE",
"352.751 37.39 OFFCURVE",
"370 149 CURVE SMOOTH",
"403 360 LINE SMOOTH",
"418.728 462.232 OFFCURVE",
"397.144 506 OFFCURVE",
"331 506 CURVE SMOOTH",
"278.345 506 OFFCURVE",
"228.29 476.376 OFFCURVE",
"184 419 CURVE",
"202 356 LINE",
"211.421 364.374 OFFCURVE",
"221.385 369 OFFCURVE",
"230 369 CURVE SMOOTH",
"243.2 369 OFFCURVE",
"247 362 OFFCURVE",
"243 339 CURVE SMOOTH",
"213 154 LINE SMOOTH",
"209 131 OFFCURVE",
"201.594 122 OFFCURVE",
"188 122 CURVE SMOOTH",
"177.1 122 OFFCURVE",
"168.625 124.568 OFFCURVE",
"155 132 CURVE",
"137 19 LINE",
"162.875 4.625 OFFCURVE",
"207.5 -6 OFFCURVE",
"242 -6 CURVE SMOOTH"
);
},
{
closed = 1;
nodes = (
"109 -185 LINE SMOOTH",
"116.5 -185 OFFCURVE",
"122.929 -178.571 OFFCURVE",
"124 -170 CURVE SMOOTH",
"209 368 LINE",
"198 407 LINE",
"201.692 439 OFFCURVE",
"204 469 OFFCURVE",
"204 485 CURVE SMOOTH",
"204 495.5 OFFCURVE",
"199.5 500 OFFCURVE",
"189 500 CURVE SMOOTH",
"83 500 LINE SMOOTH",
"74 500 OFFCURVE",
"69 495 OFFCURVE",
"68 485 CURVE SMOOTH",
"66.5 460.25 OFFCURVE",
"62.5 431 OFFCURVE",
"52 368 CURVE SMOOTH",
"-33 -170 LINE SMOOTH",
"-34.085 -179.766 OFFCURVE",
"-29.2 -185 OFFCURVE",
"-19 -185 CURVE SMOOTH"
);
}
);
width = 398;
},
{
anchors = (
{
name = bottom;
position = "{124, 0}";
},
{
name = top;
position = "{200, 478}";
}
);
layerId = "7BE597F2-1213-4429-94A3-E96FC63EF83E";
paths = (
{
closed = 1;
nodes = (
"208 -6 OFFCURVE",
"251 31 OFFCURVE",
"267 132 CURVE SMOOTH",
"303 363 LINE SMOOTH",
"317 450 OFFCURVE",
"291 484 OFFCURVE",
"242 484 CURVE SMOOTH",
"191 484 OFFCURVE",
"146 445 OFFCURVE",
"98 396 CURVE",
"95 375 LINE",
"145 424 OFFCURVE",
"193 468 OFFCURVE",
"241 468 CURVE SMOOTH",
"282 468 OFFCURVE",
"299 435 OFFCURVE",
"287 360 CURVE SMOOTH",
"251 133 LINE SMOOTH",
"237 45 OFFCURVE",
"201 10 OFFCURVE",
"147 10 CURVE SMOOTH",
"112 10 OFFCURVE",
"77 28 OFFCURVE",
"47 50 CURVE",
"44 32 LINE",
"77 11 OFFCURVE",
"109 -6 OFFCURVE",
"147 -6 CURVE SMOOTH"
);
},
{
closed = 1;
nodes = (
"12 -185 LINE SMOOTH",
"15 -185 OFFCURVE",
"16 -185 OFFCURVE",
"17 -181 CURVE SMOOTH",
"107 389 LINE",
"107 390 LINE",
"111 411 OFFCURVE",
"114 443 OFFCURVE",
"117 475 CURVE SMOOTH",
"117 478 OFFCURVE",
"116 478 OFFCURVE",
"114 478 CURVE SMOOTH",
"105 478 LINE SMOOTH",
"103 478 OFFCURVE",
"102 477 OFFCURVE",
"102 475 CURVE SMOOTH",
"98 441 OFFCURVE",
"94 403 OFFCURVE",
"88 368 CURVE SMOOTH",
"1 -181 LINE SMOOTH",
"0 -185 OFFCURVE",
"2 -185 OFFCURVE",
"5 -185 CURVE SMOOTH"
);
}
);
width = 323;
},
{
anchors = (
{
name = bottom;
position = "{126, 0}";
},
{
name = top;
position = "{203, 486}";
}
);
layerId = "F3DD84D5-00FA-4BE1-BE55-069AF9C50450";
paths = (
{
closed = 1;
nodes = (
"228 -6 OFFCURVE",
"267 42 OFFCURVE",
"284 150 CURVE SMOOTH",
"318 364 LINE SMOOTH",
"331 452 OFFCURVE",
"309 492 OFFCURVE",
"252 492 CURVE SMOOTH",
"212 492 OFFCURVE",
"172 466 OFFCURVE",
"128 416 CURVE",
"122 359 LINE",
"159 401 OFFCURVE",
"197 431 OFFCURVE",
"226 431 CURVE SMOOTH",
"253 431 OFFCURVE",
"263 409 OFFCURVE",
"256 362 CURVE SMOOTH",
"222 152 LINE SMOOTH",
"210 80 OFFCURVE",
"191 55 OFFCURVE",
"154 55 CURVE SMOOTH",
"130 55 OFFCURVE",
"104 65 OFFCURVE",
"82 81 CURVE",
"72 22 LINE",
"100 5 OFFCURVE",
"135 -6 OFFCURVE",
"164 -6 CURVE SMOOTH"
);
},
{
closed = 1;
nodes = (
"41 -185 LINE SMOOTH",
"46 -185 OFFCURVE",
"49 -182 OFFCURVE",
"50 -176 CURVE SMOOTH",
"138 380 LINE",
"135 386 LINE",
"138 406 OFFCURVE",
"144 449 OFFCURVE",
"144 477 CURVE SMOOTH",
"144 484 OFFCURVE",
"142 486 OFFCURVE",
"137 486 CURVE SMOOTH",
"97 486 LINE SMOOTH",
"91 486 OFFCURVE",
"88 484 OFFCURVE",
"88 477 CURVE SMOOTH",
"87 456 OFFCURVE",
"84 422 OFFCURVE",
"74 366 CURVE SMOOTH",
"-12 -176 LINE SMOOTH",
"-13 -182 OFFCURVE",
"-10 -185 OFFCURVE",
"-4 -185 CURVE SMOOTH"
);
}
);
width = 329;
}
);
leftKerningGroup = n;
leftMetricsKey = n;
rightKerningGroup = o;
rightMetricsKey = "=o+2";
unicode = 0070;
},
{
glyphname = thorn;
lastChange = "2022-10-25 01:48:04 +0000";
layers = (
{
layerId = "9DFF46AD-73DE-422E-A6A3-16745129C94E";
paths = (
{
closed = 1;
nodes = (
"108 -185 LINE SMOOTH",
"116 -185 OFFCURVE",
"122 -179 OFFCURVE",
"123 -170 CURVE SMOOTH",
"256 668 LINE SMOOTH",
"258 678 OFFCURVE",
"251 683 OFFCURVE",
"242 683 CURVE SMOOTH",
"114 683 LINE SMOOTH",
"105 683 OFFCURVE",
"100 677 OFFCURVE",
"99 668 CURVE SMOOTH",
"-34 -170 LINE SMOOTH",
"-36 -180 OFFCURVE",
"-30 -185 OFFCURVE",
"-20 -185 CURVE SMOOTH"
);
},
{
closed = 1;
nodes = (
"316 -6 OFFCURVE",
"351 37 OFFCURVE",
"369 149 CURVE SMOOTH",
"402 360 LINE SMOOTH",
"418 462 OFFCURVE",
"396 506 OFFCURVE",
"330 506 CURVE SMOOTH",
"277 506 OFFCURVE",
"227 476 OFFCURVE",
"183 419 CURVE",
"201 356 LINE",
"210 364 OFFCURVE",
"220 369 OFFCURVE",
"229 369 CURVE SMOOTH",
"242 369 OFFCURVE",
"246 362 OFFCURVE",
"242 339 CURVE SMOOTH",
"212 154 LINE SMOOTH",
"208 131 OFFCURVE",
"201 122 OFFCURVE",
"187 122 CURVE SMOOTH",
"176 122 OFFCURVE",
"168 125 OFFCURVE",
"154 132 CURVE",
"136 19 LINE",
"162 5 OFFCURVE",
"207 -6 OFFCURVE",
"241 -6 CURVE SMOOTH"
);
}
);
width = 397;
},
{
layerId = "7BE597F2-1213-4429-94A3-E96FC63EF83E";
paths = (
{
closed = 1;
nodes = (
"12 -185 LINE SMOOTH",
"15 -185 OFFCURVE",
"16 -185 OFFCURVE",
"17 -181 CURVE SMOOTH",
"153 679 LINE SMOOTH",
"154 683 OFFCURVE",
"152 683 OFFCURVE",
"149 683 CURVE SMOOTH",
"142 683 LINE SMOOTH",
"139 683 OFFCURVE",
"138 683 OFFCURVE",
"137 679 CURVE SMOOTH",
"1 -181 LINE SMOOTH",
"0 -185 OFFCURVE",
"2 -185 OFFCURVE",
"5 -185 CURVE SMOOTH"
);
},
{
closed = 1;
nodes = (
"208 -6 OFFCURVE",
"251 31 OFFCURVE",
"267 132 CURVE SMOOTH",
"303 363 LINE SMOOTH",
"317 450 OFFCURVE",
"291 484 OFFCURVE",
"242 484 CURVE SMOOTH",
"191 484 OFFCURVE",
"146 445 OFFCURVE",
"98 396 CURVE",
"95 375 LINE",
"145 424 OFFCURVE",
"193 468 OFFCURVE",
"241 468 CURVE SMOOTH",
"282 468 OFFCURVE",
"299 435 OFFCURVE",
"287 360 CURVE SMOOTH",
"251 133 LINE SMOOTH",
"237 45 OFFCURVE",
"201 10 OFFCURVE",
"147 10 CURVE SMOOTH",
"112 10 OFFCURVE",
"77 28 OFFCURVE",
"47 50 CURVE",
"44 32 LINE",
"77 11 OFFCURVE",
"109 -6 OFFCURVE",
"147 -6 CURVE SMOOTH"
);
}
);
width = 323;
},
{
layerId = "F3DD84D5-00FA-4BE1-BE55-069AF9C50450";
paths = (
{
closed = 1;
nodes = (
"41 -185 LINE SMOOTH",
"46 -185 OFFCURVE",
"49 -182 OFFCURVE",
"50 -176 CURVE SMOOTH",
"184 674 LINE SMOOTH",
"185 680 OFFCURVE",
"183 683 OFFCURVE",
"177 683 CURVE SMOOTH",
"132 683 LINE SMOOTH",
"126 683 OFFCURVE",
"123 680 OFFCURVE",
"122 674 CURVE SMOOTH",
"-12 -176 LINE SMOOTH",
"-13 -182 OFFCURVE",
"-10 -185 OFFCURVE",
"-4 -185 CURVE SMOOTH"
);
},
{
closed = 1;
nodes = (
"228 -6 OFFCURVE",
"267 41 OFFCURVE",
"284 150 CURVE SMOOTH",
"318 364 LINE SMOOTH",
"331 452 OFFCURVE",
"309 492 OFFCURVE",
"252 492 CURVE SMOOTH",
"212 492 OFFCURVE",
"172 466 OFFCURVE",
"128 416 CURVE",
"122 359 LINE",
"159 401 OFFCURVE",
"197 431 OFFCURVE",
"226 431 CURVE SMOOTH",
"253 431 OFFCURVE",
"263 409 OFFCURVE",
"256 362 CURVE SMOOTH",
"222 152 LINE SMOOTH",
"210 80 OFFCURVE",
"191 55 OFFCURVE",
"154 55 CURVE SMOOTH",
"130 55 OFFCURVE",
"104 65 OFFCURVE",
"82 81 CURVE",
"72 22 LINE",
"100 5 OFFCURVE",
"135 -6 OFFCURVE",
"164 -6 CURVE SMOOTH"
);
}
);
width = 329;
}
);
leftKerningGroup = h;
leftMetricsKey = h;
rightKerningGroup = o;
rightMetricsKey = b;
unicode = 00FE;
},
